<?xml version="1.0" encoding="UTF-8" standalone="no"?>
<!-- Created with Inkscape (http://www.inkscape.org/) -->

<svg
   xmlns:dc="http://purl.org/dc/elements/1.1/"
   xmlns:cc="http://creativecommons.org/ns#"
   xmlns:rdf="http://www.w3.org/1999/02/22-rdf-syntax-ns#"
   xmlns:svg="http://www.w3.org/2000/svg"
   xmlns="http://www.w3.org/2000/svg"
   xmlns:sodipodi="http://sodipodi.sourceforge.net/DTD/sodipodi-0.dtd"
   xmlns:inkscape="http://www.inkscape.org/namespaces/inkscape"
   width="500"
   height="500"
   viewBox="0 0 132.29166 132.29167"
   version="1.1"
   id="svg8"
   sodipodi:docname="lieux.svg"
   inkscape:version="0.92.4 (5da689c313, 2019-01-14)">
  <defs
     id="defs2" />
  <sodipodi:namedview
     id="base"
     pagecolor="#ffffff"
     bordercolor="#666666"
     borderopacity="1.0"
     inkscape:pageopacity="0.0"
     inkscape:pageshadow="2"
     inkscape:zoom="0.12374369"
     inkscape:cx="1720.6669"
     inkscape:cy="1746.3604"
     inkscape:document-units="mm"
     inkscape:current-layer="layer1-3"
     showgrid="false"
     units="px"
     inkscape:window-width="1920"
     inkscape:window-height="1046"
     inkscape:window-x="2869"
     inkscape:window-y="-11"
     inkscape:window-maximized="1" />
  <metadata
     id="metadata5">
    <rdf:RDF>
      <cc:Work
         rdf:about="">
        <dc:format>image/svg+xml</dc:format>
        <dc:type
           rdf:resource="http://purl.org/dc/dcmitype/StillImage" />
        <dc:title></dc:title>
      </cc:Work>
    </rdf:RDF>
  </metadata>
  <g
     inkscape:label="Calque 1"
     inkscape:groupmode="layer"
     id="layer1"
     transform="translate(0,-164.70832)">
    <g
       id="g38"
       transform="translate(-1119.566,-145.64342)">
      <g
         style="display:inline"
         transform="translate(0,-164.70832)"
         id="layer1-3"
         inkscape:label="Calque 1">
        <path
           inkscape:connector-curvature="0"
           id="path3750"
           d="m 1119.5938,601.90014 v -2.11667 h 3.3073 3.3073 v -29.72352 -29.72352 l 1.43,-0.32002 c 2.4339,-0.54467 4.2044,-2.02792 5.505,-4.61188 l 0.3758,-0.74665 0.4939,1.09513 c 1.5104,3.34957 5.4138,5.15521 8.9328,4.13221 1.7846,-0.51879 4.084,-2.48536 4.8235,-4.12519 l 0.4903,-1.08723 0.8029,1.49635 c 0.9503,1.77105 2.6011,3.1281 4.4862,3.68791 1.6953,0.50343 2.6444,0.49799 4.4063,-0.0252 1.941,-0.5764 4.2212,-2.83335 4.8866,-4.83665 l 0.4701,-1.41537 0.4371,1.29122 c 0.8616,2.54486 2.6657,4.26196 5.2752,5.02054 3.4047,0.98979 7.0792,-0.72539 8.7653,-4.09145 l 0.5734,-1.14482 0.6635,1.33147 c 1.3101,2.62885 3.8102,4.12965 6.8457,4.10931 2.9793,-0.0199 5.3107,-1.52668 6.761,-4.36946 l 0.5465,-1.07132 0.6635,1.33147 c 1.286,2.58072 3.6965,4.08812 6.581,4.11555 1.5173,0.0144 2.126,-0.11685 3.3667,-0.72611 1.7719,-0.8701 3.1867,-2.40862 3.8499,-4.18629 l 0.4722,-1.26589 0.4448,1.25234 c 0.6211,1.74871 2.0647,3.32528 3.8457,4.19984 3.7185,1.826 8.0957,0.32117 10.0201,-3.44478 l 0.653,-1.2781 0.664,1.33246 c 2.3179,4.65131 8.8597,5.59668 12.2228,1.76632 0.9686,-1.10313 1.6483,-2.3342 1.9065,-3.45301 0.1614,-0.69899 0.2062,-0.73057 0.3751,-0.26458 1.2899,3.55835 3.2177,5.41706 6.2985,6.0729 l 0.7276,0.15489 v 29.76059 29.76058 h 3.3073 3.3073 v 2.11667 2.11666 h -66.1458 -66.1459 v -2.11666 z m 114.8292,-24.07708 v -21.96042 h -13.0969 -13.0968 v 21.96042 21.96041 h 13.0968 13.0969 z m -33.6021,13.75833 v -0.79375 h -33.3375 -33.3375 v 0.79375 0.79375 h 33.3375 33.3375 z m -4.5618,-17.92552 0.068,-14.88281 h -28.8418 -28.8418 v 14.77256 c 0,8.12492 0.08,14.85248 0.1776,14.95014 0.098,0.0977 13.0457,0.14727 28.7734,0.11024 l 28.5959,-0.0673 z m 4.5618,-17.92552 v -0.92604 h -33.3375 -33.3375 v 0.92604 0.92604 h 33.3375 33.3375 z m -76.3782,-17.08396 c -2.791,-0.53521 -4.8489,-2.4308 -4.8489,-4.46645 v -0.80689 h 6.2178 c 6.2161,0 6.2177,1.5e-4 6.2177,0.57793 0,1.84651 -2.3415,4.25192 -4.4698,4.59184 -0.5248,0.0838 -1.1923,0.18905 -1.4834,0.23386 -0.291,0.0448 -1.026,-0.0138 -1.6334,-0.13029 z m 15.0858,8e-4 c -2.5883,-0.49659 -4.509,-2.18664 -4.7798,-4.2059 l -0.1433,-1.06824 h 6.2526 6.2525 v 0.672 c 0,1.85413 -2.2848,4.1496 -4.4785,4.4994 -0.52,0.0829 -1.1836,0.18742 -1.4746,0.23223 -0.2911,0.0448 -1.024,-0.0135 -1.6289,-0.1295 z m 14.8121,0.005 c -2.114,-0.41663 -3.665,-1.63456 -4.4379,-3.48477 -0.7906,-1.89267 -1.1157,-1.79445 5.9391,-1.79445 7.1434,0 6.8107,-0.11393 5.8492,2.0031 -1.104,2.43067 -4.3344,3.87049 -7.3504,3.27611 z m 15.3918,-0.009 c -2.8355,-0.53447 -4.4959,-1.99449 -5.0163,-4.41071 l -0.1851,-0.8599 h 6.371 c 6.2282,0 6.371,0.0121 6.371,0.53767 0,0.97216 -0.6954,2.22475 -1.777,3.20071 -1.5122,1.36447 -3.6453,1.93154 -5.7636,1.53223 z m 14.3562,-0.0991 c -1.8468,-0.37972 -3.2803,-1.44866 -4.1036,-3.0601 -1.1348,-2.22117 -1.434,-2.11142 5.7547,-2.11142 7.1381,0 6.8097,-0.11141 5.8565,1.98665 -1.1949,2.63022 -4.1362,3.87801 -7.5076,3.18487 z m 14.9666,0.10769 c -2.114,-0.41663 -3.6651,-1.63455 -4.4379,-3.48477 -0.7907,-1.89266 -1.1158,-1.79444 5.939,-1.79444 7.1435,0 6.8108,-0.11393 5.8492,2.0031 -1.104,2.43067 -4.3344,3.87049 -7.3503,3.27611 z m 15.3918,-0.009 c -2.8355,-0.53447 -4.4959,-1.99449 -5.0163,-4.41071 l -0.1852,-0.8599 h 6.3711 c 6.2282,0 6.371,0.0121 6.371,0.53767 0,0.97216 -0.6955,2.22475 -1.7771,3.20071 -1.5121,1.36447 -3.6452,1.93154 -5.7635,1.53223 z m 14.207,-0.10314 c -1.735,-0.41495 -3.1728,-1.52612 -3.9544,-3.05605 -1.1348,-2.22117 -1.434,-2.11142 5.7547,-2.11142 7.1381,0 6.8096,-0.11141 5.8565,1.98665 -1.2004,2.64242 -4.3819,3.96409 -7.6568,3.18082 z m 15.6449,0.11174 c -1.4614,-0.28801 -2.4193,-0.81191 -3.4435,-1.88319 -0.8759,-0.91615 -1.4053,-2.00269 -1.4053,-2.88407 0,-0.49168 0.2461,-0.51195 6.2177,-0.51195 h 6.2177 v 0.8599 c 0,2.78255 -4.0191,5.12219 -7.5856,4.41931 z m -124.7051,-7.1407 c 0,-0.26031 6.3419,-23.53904 7.44,-27.30941 l 0.5203,-1.78653 58.2435,0.0667 58.2434,0.0667 3.921,14.2875 c 2.1566,7.85812 3.9216,14.43632 3.9223,14.61823 0,0.2637 -13.4037,0.33072 -66.1446,0.33072 -45.4349,0 -66.1459,-0.0858 -66.1459,-0.27399 z m 17.9917,-41.92705 v -10.71474 h 47.8896 47.8896 v 10.71562 10.71563 h -47.8896 -47.8896 z m 92.075,0 v -7.01146 h -44.1854 -44.1854 v 7.01146 7.01146 h 44.1854 44.1854 z"
           style="fill:#000000;stroke-width:0.26458335" />
      </g>
      <g
         style="opacity:0.99952608"
         inkscape:label="view"
         id="layer2" />
    </g>
  </g>
</svg>
