<?xml version="1.0" encoding="UTF-8" standalone="no"?>
<!-- Created with Inkscape (http://www.inkscape.org/) -->

<svg
   version="1.1"
   id="svg1"
   xml:space="preserve"
   width="511.12698"
   height="511.1268"
   viewBox="0 0 511.12698 511.1268"
   sodipodi:docname="favicon.svg"
   inkscape:version="1.3.2 (091e20ef0f, 2023-11-25)"
   xmlns:inkscape="http://www.inkscape.org/namespaces/inkscape"
   xmlns:sodipodi="http://sodipodi.sourceforge.net/DTD/sodipodi-0.dtd"
   xmlns:xlink="http://www.w3.org/1999/xlink"
   xmlns="http://www.w3.org/2000/svg"
   xmlns:svg="http://www.w3.org/2000/svg"><sodipodi:namedview
     id="namedview1"
     pagecolor="#505050"
     bordercolor="#eeeeee"
     borderopacity="1"
     inkscape:showpageshadow="0"
     inkscape:pageopacity="0"
     inkscape:pagecheckerboard="0"
     inkscape:deskcolor="#505050"
     inkscape:zoom="0.64"
     inkscape:cx="107.03125"
     inkscape:cy="399.21875"
     inkscape:window-width="1920"
     inkscape:window-height="1011"
     inkscape:window-x="0"
     inkscape:window-y="0"
     inkscape:window-maximized="1"
     inkscape:current-layer="svg1" /><defs
     id="defs1"><linearGradient
       id="linearGradient35"><stop
         style="stop-color:#e9b720;stop-opacity:1;"
         offset="0"
         id="stop35" /><stop
         style="stop-color:#e93363;stop-opacity:1;"
         offset="1"
         id="stop36" /></linearGradient><linearGradient
       id="linearGradient45"><stop
         style="stop-color:#3e94cb;stop-opacity:1;"
         offset="0"
         id="stop44" /><stop
         style="stop-color:#348bc0;stop-opacity:0;"
         offset="1"
         id="stop45" /></linearGradient><linearGradient
       id="linearGradient48"><stop
         style="stop-color:#00a746;stop-opacity:1;"
         offset="0"
         id="stop47" /><stop
         style="stop-color:#269f4c;stop-opacity:0;"
         offset="1"
         id="stop48" /></linearGradient><radialGradient
       xlink:href="#linearGradient35"
       id="radialGradient43-7-5-1-3-6-8-7"
       cx="1247.2418"
       cy="51.762833"
       fx="1247.2418"
       fy="51.762833"
       r="14.4836"
       gradientTransform="matrix(2.0824238,-0.03298881,0.0331465,2.0923772,-1135.4132,114.73341)"
       gradientUnits="userSpaceOnUse" /><radialGradient
       xlink:href="#linearGradient45"
       id="radialGradient44-3-6-1-0-6-9-5"
       cx="1262.7365"
       cy="44.664909"
       fx="1262.7365"
       fy="44.664909"
       r="14.4836"
       gradientTransform="matrix(2.4687725,-0.02632099,0.01508755,1.4151337,-1622.0998,145.26915)"
       gradientUnits="userSpaceOnUse" /><radialGradient
       xlink:href="#linearGradient48"
       id="radialGradient47-3-9-8-0-7-2-9"
       cx="1255.5544"
       cy="60.463173"
       fx="1255.5544"
       fy="60.463173"
       r="14.4836"
       gradientTransform="matrix(2.082685,0,0,2.0427692,-1134.0329,71.573732)"
       gradientUnits="userSpaceOnUse" /><clipPath
       clipPathUnits="userSpaceOnUse"
       id="clipPath2"><path
         id="path2"
         style="fill:#ffffff;fill-opacity:1;stroke:none;stroke-width:3.26929;stroke-linejoin:round;stroke-dasharray:none"
         d="m 121.16052,465.42702 c -12.65096,0 -21.395887,5.37447 -21.395887,5.37447 -0.387033,0.0109 -0.446576,0.0308 -0.446576,0.38465 l -0.09923,36.44688 v 0.0665 3.46162 0.12306 5.96936 l 0.09923,-0.0308 c 0,0 5.109813,0.60674 6.979463,2.16927 4.97981,4.16225 5.8551,11.04545 6.00495,12.96949 v 0.54871 h 8.50278 c 0,-2.4646 2.00165,-4.46143 4.46674,-4.46163 2.46509,0 4.46177,1.99693 4.46177,4.46163 h 8.50775 c 0,-2.4647 1.99669,-4.46163 4.46178,-4.46163 2.46509,0 4.46178,1.99693 4.46178,4.46163 h 8.50774 c 0,-2.4647 1.99668,-4.46163 4.46178,-4.46163 0.0992,0 0.13894,0.01 0.20842,0.01 0,-0.003 0.0992,-0.009 0.11908,-0.01 1.81408,2.8e-4 3.44954,1.09953 4.13429,2.77954 v -0.12822 c 0.25802,0.56737 0.4069,1.1792 0.4069,1.8103 h 7.82101 c 0,-2.4919 2.01058,-4.50151 4.46079,-4.50266 2.41349,6.9e-4 4.39132,1.95155 4.46177,4.40521 2.82136,-0.21732 5.42539,-0.99169 7.78033,-2.39491 2.84617,-1.71964 5.09889,-4.00023 6.75915,-6.84629 1.66027,-2.84618 2.48693,-5.99195 2.48693,-9.43097 0,-2.49037 -0.47632,-4.85987 -1.4211,-7.11296 -0.95273,-2.25334 -2.28451,-4.23953 -4.00432,-5.95911 1.60072,-1.36374 2.96526,-3.14467 4.09161,-5.33858 1.18591,-2.19386 1.77936,-4.56321 1.77936,-7.11296 0,-3.14259 -0.77407,-6.0499 -2.31227,-8.71812 -1.54117,-2.66823 -3.64404,-4.79911 -6.31258,-6.40013 -2.66853,-1.66026 -5.69233,-2.49236 -9.07241,-2.49236 h -17.07702 c -0.005,0 -0.006,0.005 0,0.005 -0.28779,-0.01 -10.16205,-0.35677 -15.17957,-0.92313 -9.43364,-1.0645 -9.90106,-4.66163 -28.09253,-4.66163 z m 32.57019,12.10281 h 0.005 c 0.32748,0.0999 1.59576,0.27737 1.94309,0.6257 0.46642,0.43764 0.7046,1.10748 0.7046,2.01542 0,0.94178 -0.2878,1.7832 -0.85346,2.52313 -0.53588,0.74032 -1.40919,1.10771 -2.6199,1.10771 -0.74429,0 -1.35064,-0.21366 -1.82103,-0.6513 -0.46643,-0.47039 -0.7046,-1.14626 -0.7046,-2.02055 0,-0.97552 0.26795,-1.83458 0.80384,-2.57441 0.38703,-0.50026 1.91431,-0.86526 2.54448,-1.02566 z m -20.30328,3.19493 v 0 c 0,0 1.61561,0.15472 1.91829,0.4564 0.29772,0.30268 0.35726,0.75352 0.14886,1.359 l -2.47204,9.78995 h 6.35923 c 0.40688,0 0.68474,0.16612 0.85345,0.50255 0.1687,0.30267 0.1687,0.80661 0,1.51285 -0.13894,0.67284 -0.34734,1.17653 -0.65498,1.51285 -0.30764,0.33642 -0.65497,0.50254 -1.0559,0.50254 h -6.55869 l -2.5693,9.78994 c -0.36718,1.38391 -0.55573,2.60609 -0.55573,3.68213 0,1.07602 0.18855,1.96576 0.4565,2.67185 0.30764,0.70658 0.70459,1.24545 1.21071,1.61542 0.53589,0.33642 1.14323,0.50254 1.81508,0.50254 v 0.005 c 0,5e-4 9.9e-4,-0.005 0.0992,-0.005 0.77406,0 1.64637,-0.38574 2.62089,-1.159 0.97255,-0.77307 2.10188,-2.00085 3.38008,-3.68212 1.24346,-1.71503 2.72609,-3.98579 4.44094,-6.81039 1.51538,-2.49644 3.25305,-5.50623 5.1892,-8.97454 l 0.2084,-0.86159 c 0.19848,-0.6391 0.4565,-1.05972 0.75421,-1.26157 0.33742,-0.20145 0.84353,-0.30258 1.51836,-0.30258 0.97254,0 1.60965,0.14965 1.91233,0.45134 0.29772,0.30268 0.35726,0.75928 0.14885,1.36413 l -4.79026,18.9132 c -0.1687,0.73933 -0.21832,1.29674 -0.14886,1.6667 0.0992,0.33642 0.36718,0.50254 0.80383,0.50254 0.30764,0 0.58551,-0.10014 0.85346,-0.30258 0.26794,-0.20145 0.57558,-0.48627 0.90307,-0.85643 0.36718,-0.4039 0.79391,-0.9256 1.26133,-1.56413 0.23817,-0.33642 0.48626,-0.52111 0.75421,-0.55386 0.30764,-0.0695 0.63513,0.0188 1.01025,0.25128 0.53589,0.30268 0.8733,0.62262 1.00529,0.95894 0.13894,0.30268 0.0992,0.62253 -0.0992,0.95895 -0.63513,1.10969 -1.30896,2.03462 -2.01554,2.77442 -0.7046,0.73933 -1.47072,1.27919 -2.27753,1.61541 -0.77407,0.37016 -1.60966,0.55385 -2.51769,0.55385 -1.78233,0 -2.95633,-0.66996 -3.52794,-2.01543 -0.53589,-1.37878 -0.43665,-3.3823 0.30764,-6.00525 l 1.42011,-5.88729 c -0.25803,0.45153 -0.51605,0.92599 -0.76414,1.34874 -1.84982,3.16096 -3.49619,5.66356 -4.94309,7.51298 -1.44591,1.8495 -2.82731,3.17768 -4.13925,3.98469 -1.34469,0.77307 -2.74395,1.16412 -4.18987,1.16412 0,0 0.004,-0.01 -0.0992,-0.01 l -0.0992,0.01 c -1.5134,0 -2.77075,-0.3381 -3.77902,-1.01027 -0.97254,-0.70658 -1.71584,-1.63111 -2.22097,-2.77442 -0.50611,-1.17687 -0.77406,-2.52279 -0.80383,-4.03597 0,-1.51315 0.14886,-3.07829 0.55574,-4.69241 l 2.47204,-9.53352 h -3.83162 c -0.40688,0 -0.68474,-0.16613 -0.85345,-0.50255 -0.13894,-0.33642 -0.13894,-0.83996 0,-1.51285 0.13894,-0.70559 0.35726,-1.21028 0.65498,-1.51285 0.33741,-0.33642 0.69467,-0.50255 1.0559,-0.50255 h 4.03604 l 2.57525,-10.04123 c 0.15878,-0.63037 0.36718,-1.05981 0.70459,-1.26157 0.33742,-0.20145 0.84353,-0.30734 1.50744,-0.30258 z m 41.33397,0.86666 h 6.75916 c 1.89744,0 3.52893,0.71005 4.89247,2.13337 1.36354,1.36384 2.04134,2.99506 2.04134,4.89241 0,1.71961 -0.65497,3.31768 -1.95401,4.8001 -1.24545,1.42308 -2.90373,2.1385 -4.9798,2.1385 h -6.75916 z m 0,24.72357 h 5.42042 c 2.13463,0 3.97651,0.77149 5.51867,2.31287 1.54118,1.54157 2.49289,2.71016 2.5693,4.41035 0.0992,1.42923 -0.7046,2.99362 -1.82103,3.88725 -1.67019,1.33599 -4.13231,1.37952 -6.26694,1.37952 h -5.51271 z" /></clipPath><clipPath
       clipPathUnits="userSpaceOnUse"
       id="clipPath2-7"><path
         id="path2-5"
         style="fill:#ffffff;fill-opacity:1;stroke:none;stroke-width:3.26929;stroke-linejoin:round;stroke-dasharray:none"
         d="m 121.16052,465.42702 c -12.65096,0 -21.395887,5.37447 -21.395887,5.37447 -0.387033,0.0109 -0.446576,0.0308 -0.446576,0.38465 l -0.09923,36.44688 v 0.0665 3.46162 0.12306 5.96936 l 0.09923,-0.0308 c 0,0 5.109813,0.60674 6.979463,2.16927 4.97981,4.16225 5.8551,11.04545 6.00495,12.96949 v 0.54871 h 8.50278 c 0,-2.4646 2.00165,-4.46143 4.46674,-4.46163 2.46509,0 4.46177,1.99693 4.46177,4.46163 h 8.50775 c 0,-2.4647 1.99669,-4.46163 4.46178,-4.46163 2.46509,0 4.46178,1.99693 4.46178,4.46163 h 8.50774 c 0,-2.4647 1.99668,-4.46163 4.46178,-4.46163 0.0992,0 0.13894,0.01 0.20842,0.01 0,-0.003 0.0992,-0.009 0.11908,-0.01 1.81408,2.8e-4 3.44954,1.09953 4.13429,2.77954 v -0.12822 c 0.25802,0.56737 0.4069,1.1792 0.4069,1.8103 h 7.82101 c 0,-2.4919 2.01058,-4.50151 4.46079,-4.50266 2.41349,6.9e-4 4.39132,1.95155 4.46177,4.40521 2.82136,-0.21732 5.42539,-0.99169 7.78033,-2.39491 2.84617,-1.71964 5.09889,-4.00023 6.75915,-6.84629 1.66027,-2.84618 2.48693,-5.99195 2.48693,-9.43097 0,-2.49037 -0.47632,-4.85987 -1.4211,-7.11296 -0.95273,-2.25334 -2.28451,-4.23953 -4.00432,-5.95911 1.60072,-1.36374 2.96526,-3.14467 4.09161,-5.33858 1.18591,-2.19386 1.77936,-4.56321 1.77936,-7.11296 0,-3.14259 -0.77407,-6.0499 -2.31227,-8.71812 -1.54117,-2.66823 -3.64404,-4.79911 -6.31258,-6.40013 -2.66853,-1.66026 -5.69233,-2.49236 -9.07241,-2.49236 h -17.07702 c -0.005,0 -0.006,0.005 0,0.005 -0.28779,-0.01 -10.16205,-0.35677 -15.17957,-0.92313 -9.43364,-1.0645 -9.90106,-4.66163 -28.09253,-4.66163 z m 32.57019,12.10281 h 0.005 c 0.32748,0.0999 1.59576,0.27737 1.94309,0.6257 0.46642,0.43764 0.7046,1.10748 0.7046,2.01542 0,0.94178 -0.2878,1.7832 -0.85346,2.52313 -0.53588,0.74032 -1.40919,1.10771 -2.6199,1.10771 -0.74429,0 -1.35064,-0.21366 -1.82103,-0.6513 -0.46643,-0.47039 -0.7046,-1.14626 -0.7046,-2.02055 0,-0.97552 0.26795,-1.83458 0.80384,-2.57441 0.38703,-0.50026 1.91431,-0.86526 2.54448,-1.02566 z m -20.30328,3.19493 v 0 c 0,0 1.61561,0.15472 1.91829,0.4564 0.29772,0.30268 0.35726,0.75352 0.14886,1.359 l -2.47204,9.78995 h 6.35923 c 0.40688,0 0.68474,0.16612 0.85345,0.50255 0.1687,0.30267 0.1687,0.80661 0,1.51285 -0.13894,0.67284 -0.34734,1.17653 -0.65498,1.51285 -0.30764,0.33642 -0.65497,0.50254 -1.0559,0.50254 h -6.55869 l -2.5693,9.78994 c -0.36718,1.38391 -0.55573,2.60609 -0.55573,3.68213 0,1.07602 0.18855,1.96576 0.4565,2.67185 0.30764,0.70658 0.70459,1.24545 1.21071,1.61542 0.53589,0.33642 1.14323,0.50254 1.81508,0.50254 v 0.005 c 0,5e-4 9.9e-4,-0.005 0.0992,-0.005 0.77406,0 1.64637,-0.38574 2.62089,-1.159 0.97255,-0.77307 2.10188,-2.00085 3.38008,-3.68212 1.24346,-1.71503 2.72609,-3.98579 4.44094,-6.81039 1.51538,-2.49644 3.25305,-5.50623 5.1892,-8.97454 l 0.2084,-0.86159 c 0.19848,-0.6391 0.4565,-1.05972 0.75421,-1.26157 0.33742,-0.20145 0.84353,-0.30258 1.51836,-0.30258 0.97254,0 1.60965,0.14965 1.91233,0.45134 0.29772,0.30268 0.35726,0.75928 0.14885,1.36413 l -4.79026,18.9132 c -0.1687,0.73933 -0.21832,1.29674 -0.14886,1.6667 0.0992,0.33642 0.36718,0.50254 0.80383,0.50254 0.30764,0 0.58551,-0.10014 0.85346,-0.30258 0.26794,-0.20145 0.57558,-0.48627 0.90307,-0.85643 0.36718,-0.4039 0.79391,-0.9256 1.26133,-1.56413 0.23817,-0.33642 0.48626,-0.52111 0.75421,-0.55386 0.30764,-0.0695 0.63513,0.0188 1.01025,0.25128 0.53589,0.30268 0.8733,0.62262 1.00529,0.95894 0.13894,0.30268 0.0992,0.62253 -0.0992,0.95895 -0.63513,1.10969 -1.30896,2.03462 -2.01554,2.77442 -0.7046,0.73933 -1.47072,1.27919 -2.27753,1.61541 -0.77407,0.37016 -1.60966,0.55385 -2.51769,0.55385 -1.78233,0 -2.95633,-0.66996 -3.52794,-2.01543 -0.53589,-1.37878 -0.43665,-3.3823 0.30764,-6.00525 l 1.42011,-5.88729 c -0.25803,0.45153 -0.51605,0.92599 -0.76414,1.34874 -1.84982,3.16096 -3.49619,5.66356 -4.94309,7.51298 -1.44591,1.8495 -2.82731,3.17768 -4.13925,3.98469 -1.34469,0.77307 -2.74395,1.16412 -4.18987,1.16412 0,0 0.004,-0.01 -0.0992,-0.01 l -0.0992,0.01 c -1.5134,0 -2.77075,-0.3381 -3.77902,-1.01027 -0.97254,-0.70658 -1.71584,-1.63111 -2.22097,-2.77442 -0.50611,-1.17687 -0.77406,-2.52279 -0.80383,-4.03597 0,-1.51315 0.14886,-3.07829 0.55574,-4.69241 l 2.47204,-9.53352 h -3.83162 c -0.40688,0 -0.68474,-0.16613 -0.85345,-0.50255 -0.13894,-0.33642 -0.13894,-0.83996 0,-1.51285 0.13894,-0.70559 0.35726,-1.21028 0.65498,-1.51285 0.33741,-0.33642 0.69467,-0.50255 1.0559,-0.50255 h 4.03604 l 2.57525,-10.04123 c 0.15878,-0.63037 0.36718,-1.05981 0.70459,-1.26157 0.33742,-0.20145 0.84353,-0.30734 1.50744,-0.30258 z m 41.33397,0.86666 h 6.75916 c 1.89744,0 3.52893,0.71005 4.89247,2.13337 1.36354,1.36384 2.04134,2.99506 2.04134,4.89241 0,1.71961 -0.65497,3.31768 -1.95401,4.8001 -1.24545,1.42308 -2.90373,2.1385 -4.9798,2.1385 h -6.75916 z m 0,24.72357 h 5.42042 c 2.13463,0 3.97651,0.77149 5.51867,2.31287 1.54118,1.54157 2.49289,2.71016 2.5693,4.41035 0.0992,1.42923 -0.7046,2.99362 -1.82103,3.88725 -1.67019,1.33599 -4.13231,1.37952 -6.26694,1.37952 h -5.51271 z" /></clipPath><radialGradient
       xlink:href="#linearGradient35"
       id="radialGradient43-7-5-1-3-6-8-7-3"
       cx="1247.2418"
       cy="51.762833"
       fx="1247.2418"
       fy="51.762833"
       r="14.4836"
       gradientTransform="matrix(2.0824238,-0.03298881,0.0331465,2.0923772,-1135.4132,114.73341)"
       gradientUnits="userSpaceOnUse" /><radialGradient
       xlink:href="#linearGradient45"
       id="radialGradient44-3-6-1-0-6-9-5-2"
       cx="1262.7365"
       cy="44.664909"
       fx="1262.7365"
       fy="44.664909"
       r="14.4836"
       gradientTransform="matrix(2.4687725,-0.02632099,0.01508755,1.4151337,-1622.0998,145.26915)"
       gradientUnits="userSpaceOnUse" /><radialGradient
       xlink:href="#linearGradient48"
       id="radialGradient47-3-9-8-0-7-2-9-2"
       cx="1255.5544"
       cy="60.463173"
       fx="1255.5544"
       fy="60.463173"
       r="14.4836"
       gradientTransform="matrix(2.082685,0,0,2.0427692,-1134.0329,71.573732)"
       gradientUnits="userSpaceOnUse" /><clipPath
       clipPathUnits="userSpaceOnUse"
       id="clipPath2-79"><path
         id="path2-2"
         style="fill:#ffffff;fill-opacity:1;stroke:none;stroke-width:3.26929;stroke-linejoin:round;stroke-dasharray:none"
         d="m 121.16052,465.42702 c -12.65096,0 -21.395887,5.37447 -21.395887,5.37447 -0.387033,0.0109 -0.446576,0.0308 -0.446576,0.38465 l -0.09923,36.44688 v 0.0665 3.46162 0.12306 5.96936 l 0.09923,-0.0308 c 0,0 5.109813,0.60674 6.979463,2.16927 4.97981,4.16225 5.8551,11.04545 6.00495,12.96949 v 0.54871 h 8.50278 c 0,-2.4646 2.00165,-4.46143 4.46674,-4.46163 2.46509,0 4.46177,1.99693 4.46177,4.46163 h 8.50775 c 0,-2.4647 1.99669,-4.46163 4.46178,-4.46163 2.46509,0 4.46178,1.99693 4.46178,4.46163 h 8.50774 c 0,-2.4647 1.99668,-4.46163 4.46178,-4.46163 0.0992,0 0.13894,0.01 0.20842,0.01 0,-0.003 0.0992,-0.009 0.11908,-0.01 1.81408,2.8e-4 3.44954,1.09953 4.13429,2.77954 v -0.12822 c 0.25802,0.56737 0.4069,1.1792 0.4069,1.8103 h 7.82101 c 0,-2.4919 2.01058,-4.50151 4.46079,-4.50266 2.41349,6.9e-4 4.39132,1.95155 4.46177,4.40521 2.82136,-0.21732 5.42539,-0.99169 7.78033,-2.39491 2.84617,-1.71964 5.09889,-4.00023 6.75915,-6.84629 1.66027,-2.84618 2.48693,-5.99195 2.48693,-9.43097 0,-2.49037 -0.47632,-4.85987 -1.4211,-7.11296 -0.95273,-2.25334 -2.28451,-4.23953 -4.00432,-5.95911 1.60072,-1.36374 2.96526,-3.14467 4.09161,-5.33858 1.18591,-2.19386 1.77936,-4.56321 1.77936,-7.11296 0,-3.14259 -0.77407,-6.0499 -2.31227,-8.71812 -1.54117,-2.66823 -3.64404,-4.79911 -6.31258,-6.40013 -2.66853,-1.66026 -5.69233,-2.49236 -9.07241,-2.49236 h -17.07702 c -0.005,0 -0.006,0.005 0,0.005 -0.28779,-0.01 -10.16205,-0.35677 -15.17957,-0.92313 -9.43364,-1.0645 -9.90106,-4.66163 -28.09253,-4.66163 z m 32.57019,12.10281 h 0.005 c 0.32748,0.0999 1.59576,0.27737 1.94309,0.6257 0.46642,0.43764 0.7046,1.10748 0.7046,2.01542 0,0.94178 -0.2878,1.7832 -0.85346,2.52313 -0.53588,0.74032 -1.40919,1.10771 -2.6199,1.10771 -0.74429,0 -1.35064,-0.21366 -1.82103,-0.6513 -0.46643,-0.47039 -0.7046,-1.14626 -0.7046,-2.02055 0,-0.97552 0.26795,-1.83458 0.80384,-2.57441 0.38703,-0.50026 1.91431,-0.86526 2.54448,-1.02566 z m -20.30328,3.19493 v 0 c 0,0 1.61561,0.15472 1.91829,0.4564 0.29772,0.30268 0.35726,0.75352 0.14886,1.359 l -2.47204,9.78995 h 6.35923 c 0.40688,0 0.68474,0.16612 0.85345,0.50255 0.1687,0.30267 0.1687,0.80661 0,1.51285 -0.13894,0.67284 -0.34734,1.17653 -0.65498,1.51285 -0.30764,0.33642 -0.65497,0.50254 -1.0559,0.50254 h -6.55869 l -2.5693,9.78994 c -0.36718,1.38391 -0.55573,2.60609 -0.55573,3.68213 0,1.07602 0.18855,1.96576 0.4565,2.67185 0.30764,0.70658 0.70459,1.24545 1.21071,1.61542 0.53589,0.33642 1.14323,0.50254 1.81508,0.50254 v 0.005 c 0,5e-4 9.9e-4,-0.005 0.0992,-0.005 0.77406,0 1.64637,-0.38574 2.62089,-1.159 0.97255,-0.77307 2.10188,-2.00085 3.38008,-3.68212 1.24346,-1.71503 2.72609,-3.98579 4.44094,-6.81039 1.51538,-2.49644 3.25305,-5.50623 5.1892,-8.97454 l 0.2084,-0.86159 c 0.19848,-0.6391 0.4565,-1.05972 0.75421,-1.26157 0.33742,-0.20145 0.84353,-0.30258 1.51836,-0.30258 0.97254,0 1.60965,0.14965 1.91233,0.45134 0.29772,0.30268 0.35726,0.75928 0.14885,1.36413 l -4.79026,18.9132 c -0.1687,0.73933 -0.21832,1.29674 -0.14886,1.6667 0.0992,0.33642 0.36718,0.50254 0.80383,0.50254 0.30764,0 0.58551,-0.10014 0.85346,-0.30258 0.26794,-0.20145 0.57558,-0.48627 0.90307,-0.85643 0.36718,-0.4039 0.79391,-0.9256 1.26133,-1.56413 0.23817,-0.33642 0.48626,-0.52111 0.75421,-0.55386 0.30764,-0.0695 0.63513,0.0188 1.01025,0.25128 0.53589,0.30268 0.8733,0.62262 1.00529,0.95894 0.13894,0.30268 0.0992,0.62253 -0.0992,0.95895 -0.63513,1.10969 -1.30896,2.03462 -2.01554,2.77442 -0.7046,0.73933 -1.47072,1.27919 -2.27753,1.61541 -0.77407,0.37016 -1.60966,0.55385 -2.51769,0.55385 -1.78233,0 -2.95633,-0.66996 -3.52794,-2.01543 -0.53589,-1.37878 -0.43665,-3.3823 0.30764,-6.00525 l 1.42011,-5.88729 c -0.25803,0.45153 -0.51605,0.92599 -0.76414,1.34874 -1.84982,3.16096 -3.49619,5.66356 -4.94309,7.51298 -1.44591,1.8495 -2.82731,3.17768 -4.13925,3.98469 -1.34469,0.77307 -2.74395,1.16412 -4.18987,1.16412 0,0 0.004,-0.01 -0.0992,-0.01 l -0.0992,0.01 c -1.5134,0 -2.77075,-0.3381 -3.77902,-1.01027 -0.97254,-0.70658 -1.71584,-1.63111 -2.22097,-2.77442 -0.50611,-1.17687 -0.77406,-2.52279 -0.80383,-4.03597 0,-1.51315 0.14886,-3.07829 0.55574,-4.69241 l 2.47204,-9.53352 h -3.83162 c -0.40688,0 -0.68474,-0.16613 -0.85345,-0.50255 -0.13894,-0.33642 -0.13894,-0.83996 0,-1.51285 0.13894,-0.70559 0.35726,-1.21028 0.65498,-1.51285 0.33741,-0.33642 0.69467,-0.50255 1.0559,-0.50255 h 4.03604 l 2.57525,-10.04123 c 0.15878,-0.63037 0.36718,-1.05981 0.70459,-1.26157 0.33742,-0.20145 0.84353,-0.30734 1.50744,-0.30258 z m 41.33397,0.86666 h 6.75916 c 1.89744,0 3.52893,0.71005 4.89247,2.13337 1.36354,1.36384 2.04134,2.99506 2.04134,4.89241 0,1.71961 -0.65497,3.31768 -1.95401,4.8001 -1.24545,1.42308 -2.90373,2.1385 -4.9798,2.1385 h -6.75916 z m 0,24.72357 h 5.42042 c 2.13463,0 3.97651,0.77149 5.51867,2.31287 1.54118,1.54157 2.49289,2.71016 2.5693,4.41035 0.0992,1.42923 -0.7046,2.99362 -1.82103,3.88725 -1.67019,1.33599 -4.13231,1.37952 -6.26694,1.37952 h -5.51271 z" /></clipPath><radialGradient
       xlink:href="#linearGradient35"
       id="radialGradient43-7-5-1-3-6-8-7-0"
       cx="1247.2418"
       cy="51.762833"
       fx="1247.2418"
       fy="51.762833"
       r="14.4836"
       gradientTransform="matrix(2.0824238,-0.03298881,0.0331465,2.0923772,-1135.4132,114.73341)"
       gradientUnits="userSpaceOnUse" /><radialGradient
       xlink:href="#linearGradient45"
       id="radialGradient44-3-6-1-0-6-9-5-7"
       cx="1262.7365"
       cy="44.664909"
       fx="1262.7365"
       fy="44.664909"
       r="14.4836"
       gradientTransform="matrix(2.4687725,-0.02632099,0.01508755,1.4151337,-1622.0998,145.26915)"
       gradientUnits="userSpaceOnUse" /><radialGradient
       xlink:href="#linearGradient48"
       id="radialGradient47-3-9-8-0-7-2-9-22"
       cx="1255.5544"
       cy="60.463173"
       fx="1255.5544"
       fy="60.463173"
       r="14.4836"
       gradientTransform="matrix(2.082685,0,0,2.0427692,-1134.0329,71.573732)"
       gradientUnits="userSpaceOnUse" /><clipPath
       clipPathUnits="userSpaceOnUse"
       id="clipPath2-79-4"><path
         id="path2-2-7"
         style="fill:#ffffff;fill-opacity:1;stroke:none;stroke-width:3.26929;stroke-linejoin:round;stroke-dasharray:none"
         d="m 121.16052,465.42702 c -12.65096,0 -21.395887,5.37447 -21.395887,5.37447 -0.387033,0.0109 -0.446576,0.0308 -0.446576,0.38465 l -0.09923,36.44688 v 0.0665 3.46162 0.12306 5.96936 l 0.09923,-0.0308 c 0,0 5.109813,0.60674 6.979463,2.16927 4.97981,4.16225 5.8551,11.04545 6.00495,12.96949 v 0.54871 h 8.50278 c 0,-2.4646 2.00165,-4.46143 4.46674,-4.46163 2.46509,0 4.46177,1.99693 4.46177,4.46163 h 8.50775 c 0,-2.4647 1.99669,-4.46163 4.46178,-4.46163 2.46509,0 4.46178,1.99693 4.46178,4.46163 h 8.50774 c 0,-2.4647 1.99668,-4.46163 4.46178,-4.46163 0.0992,0 0.13894,0.01 0.20842,0.01 0,-0.003 0.0992,-0.009 0.11908,-0.01 1.81408,2.8e-4 3.44954,1.09953 4.13429,2.77954 v -0.12822 c 0.25802,0.56737 0.4069,1.1792 0.4069,1.8103 h 7.82101 c 0,-2.4919 2.01058,-4.50151 4.46079,-4.50266 2.41349,6.9e-4 4.39132,1.95155 4.46177,4.40521 2.82136,-0.21732 5.42539,-0.99169 7.78033,-2.39491 2.84617,-1.71964 5.09889,-4.00023 6.75915,-6.84629 1.66027,-2.84618 2.48693,-5.99195 2.48693,-9.43097 0,-2.49037 -0.47632,-4.85987 -1.4211,-7.11296 -0.95273,-2.25334 -2.28451,-4.23953 -4.00432,-5.95911 1.60072,-1.36374 2.96526,-3.14467 4.09161,-5.33858 1.18591,-2.19386 1.77936,-4.56321 1.77936,-7.11296 0,-3.14259 -0.77407,-6.0499 -2.31227,-8.71812 -1.54117,-2.66823 -3.64404,-4.79911 -6.31258,-6.40013 -2.66853,-1.66026 -5.69233,-2.49236 -9.07241,-2.49236 h -17.07702 c -0.005,0 -0.006,0.005 0,0.005 -0.28779,-0.01 -10.16205,-0.35677 -15.17957,-0.92313 -9.43364,-1.0645 -9.90106,-4.66163 -28.09253,-4.66163 z m 32.57019,12.10281 h 0.005 c 0.32748,0.0999 1.59576,0.27737 1.94309,0.6257 0.46642,0.43764 0.7046,1.10748 0.7046,2.01542 0,0.94178 -0.2878,1.7832 -0.85346,2.52313 -0.53588,0.74032 -1.40919,1.10771 -2.6199,1.10771 -0.74429,0 -1.35064,-0.21366 -1.82103,-0.6513 -0.46643,-0.47039 -0.7046,-1.14626 -0.7046,-2.02055 0,-0.97552 0.26795,-1.83458 0.80384,-2.57441 0.38703,-0.50026 1.91431,-0.86526 2.54448,-1.02566 z m -20.30328,3.19493 v 0 c 0,0 1.61561,0.15472 1.91829,0.4564 0.29772,0.30268 0.35726,0.75352 0.14886,1.359 l -2.47204,9.78995 h 6.35923 c 0.40688,0 0.68474,0.16612 0.85345,0.50255 0.1687,0.30267 0.1687,0.80661 0,1.51285 -0.13894,0.67284 -0.34734,1.17653 -0.65498,1.51285 -0.30764,0.33642 -0.65497,0.50254 -1.0559,0.50254 h -6.55869 l -2.5693,9.78994 c -0.36718,1.38391 -0.55573,2.60609 -0.55573,3.68213 0,1.07602 0.18855,1.96576 0.4565,2.67185 0.30764,0.70658 0.70459,1.24545 1.21071,1.61542 0.53589,0.33642 1.14323,0.50254 1.81508,0.50254 v 0.005 c 0,5e-4 9.9e-4,-0.005 0.0992,-0.005 0.77406,0 1.64637,-0.38574 2.62089,-1.159 0.97255,-0.77307 2.10188,-2.00085 3.38008,-3.68212 1.24346,-1.71503 2.72609,-3.98579 4.44094,-6.81039 1.51538,-2.49644 3.25305,-5.50623 5.1892,-8.97454 l 0.2084,-0.86159 c 0.19848,-0.6391 0.4565,-1.05972 0.75421,-1.26157 0.33742,-0.20145 0.84353,-0.30258 1.51836,-0.30258 0.97254,0 1.60965,0.14965 1.91233,0.45134 0.29772,0.30268 0.35726,0.75928 0.14885,1.36413 l -4.79026,18.9132 c -0.1687,0.73933 -0.21832,1.29674 -0.14886,1.6667 0.0992,0.33642 0.36718,0.50254 0.80383,0.50254 0.30764,0 0.58551,-0.10014 0.85346,-0.30258 0.26794,-0.20145 0.57558,-0.48627 0.90307,-0.85643 0.36718,-0.4039 0.79391,-0.9256 1.26133,-1.56413 0.23817,-0.33642 0.48626,-0.52111 0.75421,-0.55386 0.30764,-0.0695 0.63513,0.0188 1.01025,0.25128 0.53589,0.30268 0.8733,0.62262 1.00529,0.95894 0.13894,0.30268 0.0992,0.62253 -0.0992,0.95895 -0.63513,1.10969 -1.30896,2.03462 -2.01554,2.77442 -0.7046,0.73933 -1.47072,1.27919 -2.27753,1.61541 -0.77407,0.37016 -1.60966,0.55385 -2.51769,0.55385 -1.78233,0 -2.95633,-0.66996 -3.52794,-2.01543 -0.53589,-1.37878 -0.43665,-3.3823 0.30764,-6.00525 l 1.42011,-5.88729 c -0.25803,0.45153 -0.51605,0.92599 -0.76414,1.34874 -1.84982,3.16096 -3.49619,5.66356 -4.94309,7.51298 -1.44591,1.8495 -2.82731,3.17768 -4.13925,3.98469 -1.34469,0.77307 -2.74395,1.16412 -4.18987,1.16412 0,0 0.004,-0.01 -0.0992,-0.01 l -0.0992,0.01 c -1.5134,0 -2.77075,-0.3381 -3.77902,-1.01027 -0.97254,-0.70658 -1.71584,-1.63111 -2.22097,-2.77442 -0.50611,-1.17687 -0.77406,-2.52279 -0.80383,-4.03597 0,-1.51315 0.14886,-3.07829 0.55574,-4.69241 l 2.47204,-9.53352 h -3.83162 c -0.40688,0 -0.68474,-0.16613 -0.85345,-0.50255 -0.13894,-0.33642 -0.13894,-0.83996 0,-1.51285 0.13894,-0.70559 0.35726,-1.21028 0.65498,-1.51285 0.33741,-0.33642 0.69467,-0.50255 1.0559,-0.50255 h 4.03604 l 2.57525,-10.04123 c 0.15878,-0.63037 0.36718,-1.05981 0.70459,-1.26157 0.33742,-0.20145 0.84353,-0.30734 1.50744,-0.30258 z m 41.33397,0.86666 h 6.75916 c 1.89744,0 3.52893,0.71005 4.89247,2.13337 1.36354,1.36384 2.04134,2.99506 2.04134,4.89241 0,1.71961 -0.65497,3.31768 -1.95401,4.8001 -1.24545,1.42308 -2.90373,2.1385 -4.9798,2.1385 h -6.75916 z m 0,24.72357 h 5.42042 c 2.13463,0 3.97651,0.77149 5.51867,2.31287 1.54118,1.54157 2.49289,2.71016 2.5693,4.41035 0.0992,1.42923 -0.7046,2.99362 -1.82103,3.88725 -1.67019,1.33599 -4.13231,1.37952 -6.26694,1.37952 h -5.51271 z" /></clipPath><radialGradient
       xlink:href="#linearGradient35"
       id="radialGradient43-7-5-1-3-6-8-7-0-8"
       cx="1247.2418"
       cy="51.762833"
       fx="1247.2418"
       fy="51.762833"
       r="14.4836"
       gradientTransform="matrix(2.0824238,-0.03298881,0.0331465,2.0923772,-1135.4132,114.73341)"
       gradientUnits="userSpaceOnUse" /><radialGradient
       xlink:href="#linearGradient45"
       id="radialGradient44-3-6-1-0-6-9-5-7-0"
       cx="1262.7365"
       cy="44.664909"
       fx="1262.7365"
       fy="44.664909"
       r="14.4836"
       gradientTransform="matrix(2.4687725,-0.02632099,0.01508755,1.4151337,-1622.0998,145.26915)"
       gradientUnits="userSpaceOnUse" /><radialGradient
       xlink:href="#linearGradient48"
       id="radialGradient47-3-9-8-0-7-2-9-22-1"
       cx="1255.5544"
       cy="60.463173"
       fx="1255.5544"
       fy="60.463173"
       r="14.4836"
       gradientTransform="matrix(2.082685,0,0,2.0427692,-1134.0329,71.573732)"
       gradientUnits="userSpaceOnUse" /></defs><path
     id="rect2-3-2"
     style="stroke-width:1.78;stroke-linejoin:round;stroke-dashoffset:6.80401"
     d="M 53.832309,6.2500003e-6 H 457.29331 c 29.823,0 53.833,24.0094997499997 53.833,53.8329997499997 V 457.29371 c 0,29.8235 -24.01,53.8331 -53.833,53.8331 H 53.832309 c -29.824,0 -53.83299969437,-24.0096 -53.83299969437,-53.8331 V 53.833006 C -6.9069437e-4,24.009506 24.008309,6.2500003e-6 53.832309,6.2500003e-6 Z" /><g
     id="layer1-6-0"
     transform="matrix(4.1988691,0,0,4.1988691,-370.98769,-1840.3795)"
     clip-path="url(#clipPath2-79-4)"
     style="stroke-width:0.238159"><g
       id="g69-0-1-6"
       transform="matrix(1.9523014,0,0,4.9079417,-2746.4272,-384.48526)"
       style="stroke-width:0.0769385"><path
         id="path96-5-1-8-2-0-9-8-5-7-3-0-59-4-1-5-6-1-9-6-4-4-1-0-2-6-6-9-0-9-2-1"
         style="fill:url(#radialGradient43-7-5-1-3-6-8-7-0-8);fill-opacity:1;stroke:none;stroke-width:0.0665517;stroke-linejoin:round;stroke-dasharray:none"
         d="m 1457.5854,169.85812 v 20.37514 h 51.2216 v -20.37514 z" /><path
         id="path96-5-1-8-2-0-9-8-5-7-3-0-59-4-1-5-6-1-9-6-4-4-1-7-8-5-2-9-6-2-3-9-5"
         style="fill:url(#radialGradient44-3-6-1-0-6-9-5-7-0);fill-opacity:1;stroke:none;stroke-width:0.0665517;stroke-linejoin:round;stroke-dasharray:none"
         d="m 1457.5854,169.85812 v 20.37514 h 51.2216 v -20.37514 z" /><path
         id="path96-5-1-8-2-0-9-8-5-7-3-0-59-4-1-5-6-1-9-6-4-4-1-8-5-4-8-3-0-0-6-3-5"
         style="fill:url(#radialGradient47-3-9-8-0-7-2-9-22-1);fill-opacity:1;stroke:none;stroke-width:0.0665517;stroke-linejoin:round;stroke-dasharray:none"
         d="m 1457.5854,169.85813 v 20.37513 h 51.2216 v -20.37513 z" /></g></g></svg>
