<?xml version="1.0" encoding="UTF-8" standalone="no"?>
<!-- Created with Inkscape (http://www.inkscape.org/) -->

<svg
   xmlns:dc="http://purl.org/dc/elements/1.1/"
   xmlns:cc="http://creativecommons.org/ns#"
   xmlns:rdf="http://www.w3.org/1999/02/22-rdf-syntax-ns#"
   xmlns:svg="http://www.w3.org/2000/svg"
   xmlns="http://www.w3.org/2000/svg"
   xmlns:sodipodi="http://sodipodi.sourceforge.net/DTD/sodipodi-0.dtd"
   xmlns:inkscape="http://www.inkscape.org/namespaces/inkscape"
   width="500"
   height="500"
   viewBox="0 0 132.29166 132.29167"
   version="1.1"
   id="svg8"
   sodipodi:docname="calendriern.svg"
   inkscape:version="0.92.4 (5da689c313, 2019-01-14)">
  <defs
     id="defs2" />
  <sodipodi:namedview
     id="base"
     pagecolor="#ffffff"
     bordercolor="#666666"
     borderopacity="1.0"
     inkscape:pageopacity="0.0"
     inkscape:pageshadow="2"
     inkscape:zoom="0.90509668"
     inkscape:cx="210.1956"
     inkscape:cy="414.58584"
     inkscape:document-units="mm"
     inkscape:current-layer="layer1-3"
     showgrid="false"
     units="px"
     inkscape:window-width="1920"
     inkscape:window-height="1046"
     inkscape:window-x="2869"
     inkscape:window-y="-11"
     inkscape:window-maximized="1" />
  <metadata
     id="metadata5">
    <rdf:RDF>
      <cc:Work
         rdf:about="">
        <dc:format>image/svg+xml</dc:format>
        <dc:type
           rdf:resource="http://purl.org/dc/dcmitype/StillImage" />
        <dc:title></dc:title>
      </cc:Work>
    </rdf:RDF>
  </metadata>
  <g
     inkscape:label="Calque 1"
     inkscape:groupmode="layer"
     id="layer1"
     transform="translate(0,-164.70832)">
    <g
       id="g38"
       transform="translate(-1140.413,-144.57434)">
      <g
         style="display:inline"
         transform="translate(0,-164.70832)"
         id="layer1-3"
         inkscape:label="Calque 1">
        <path
           inkscape:connector-curvature="0"
           id="path3776"
           d="m 1142.1857,603.98982 c -1.6377,-0.88859 -1.5247,3.35615 -1.5247,-57.2783 V 491.374 l 0.8996,-0.89958 0.8996,-0.89959 h 12.3296 12.3296 l 10e-4,6.15157 c 8e-4,5.67158 0.042,6.21884 0.5267,7.01387 1.0393,1.70466 1.748,1.91384 6.4837,1.91384 3.733,0 4.3335,-0.0611 5.0804,-0.51648 1.6634,-1.0142 1.7895,-1.57791 1.8825,-8.41123 l 0.084,-6.15157 h 26.0439 26.0439 l 10e-4,6.15157 c 8e-4,5.67158 0.042,6.21884 0.5267,7.01387 1.0366,1.70021 1.7537,1.91372 6.4307,1.91482 4.6455,0.001 5.2523,-0.15729 6.316,-1.64866 0.5968,-0.83675 0.6189,-1.06131 0.7033,-7.14774 l 0.087,-6.28386 h 11.7795 11.7794 l 0.8996,0.89959 0.8995,0.89958 v 55.33752 c 0,60.82742 0.1217,56.41174 -1.5788,57.29112 -0.6876,0.35558 -8.0429,0.40014 -64.4877,0.39076 -55.8375,-0.009 -63.8012,-0.0592 -64.436,-0.40358 z m 118.5962,-49.0629 v -38.62917 h -53.975 -53.975 v 38.62917 38.62916 h 53.975 53.975 z m -101.0709,24.20937 v -8.59895 h 12.9646 12.9646 v 8.59895 8.59896 h -12.9646 -12.9646 z m 34.3959,0 v -8.59895 h 12.9645 12.9646 v 8.59895 8.59896 h -12.9646 -12.9645 z m 34.1312,0 v -8.59895 h 12.9646 12.9646 v 8.59895 8.59896 h -12.9646 -12.9646 z m -68.5271,-24.07708 v -8.59896 h 12.9646 12.9646 v 8.59896 8.59896 h -12.9646 -12.9646 z m 34.3959,0 v -8.59896 h 12.9645 12.9646 v 8.59896 8.59896 h -12.9646 -12.9645 z m 34.1312,0 v -8.59896 h 12.9646 12.9646 v 8.59896 8.59896 h -12.9646 -12.9646 z m -68.5271,-24.07708 v -8.59896 h 12.9646 12.9646 v 8.59896 8.59895 h -12.9646 -12.9646 z m 34.3959,0 v -8.59896 h 12.9645 12.9646 v 8.59896 8.59895 h -12.9646 -12.9645 z m 34.1312,0 v -8.59896 h 12.9646 12.9646 v 8.59896 8.59895 h -12.9646 -12.9646 z m -59.614,-28.12646 -0.711,-0.74208 v -12.173 -12.173 l 0.7421,-0.71096 0.7421,-0.71096 h 4.7022 4.7022 l 0.7734,0.77339 0.7734,0.7734 v 12.07925 12.07925 l -0.7734,0.77339 -0.7734,0.7734 h -4.7333 -4.7334 z m 66.1458,0 -0.711,-0.74208 v -12.173 -12.173 l 0.7421,-0.71096 0.7421,-0.71096 h 4.7022 4.7023 l 0.7734,0.77339 0.7734,0.7734 v 12.07925 12.07925 l -0.7734,0.77339 -0.7734,0.7734 h -4.7334 -4.7333 z"
           style="fill:#020000;stroke-width:0.26458335;fill-opacity:1" />
      </g>
      <g
         style="opacity:0.99952608"
         inkscape:label="view"
         id="layer2" />
    </g>
  </g>
</svg>
