<?xml version="1.0" encoding="UTF-8" standalone="no"?>
<!-- Created with Inkscape (http://www.inkscape.org/) -->

<svg
   xmlns:dc="http://purl.org/dc/elements/1.1/"
   xmlns:cc="http://creativecommons.org/ns#"
   xmlns:rdf="http://www.w3.org/1999/02/22-rdf-syntax-ns#"
   xmlns:svg="http://www.w3.org/2000/svg"
   xmlns="http://www.w3.org/2000/svg"
   xmlns:sodipodi="http://sodipodi.sourceforge.net/DTD/sodipodi-0.dtd"
   xmlns:inkscape="http://www.inkscape.org/namespaces/inkscape"
   width="500"
   height="500"
   viewBox="0 0 132.29166 132.29167"
   version="1.1"
   id="svg8"
   sodipodi:docname="like.svg"
   inkscape:version="0.92.4 (5da689c313, 2019-01-14)">
  <defs
     id="defs2" />
  <sodipodi:namedview
     id="base"
     pagecolor="#ffffff"
     bordercolor="#666666"
     borderopacity="1.0"
     inkscape:pageopacity="0.0"
     inkscape:pageshadow="2"
     inkscape:zoom="0.64"
     inkscape:cx="697.16884"
     inkscape:cy="500.76602"
     inkscape:document-units="mm"
     inkscape:current-layer="layer1-3"
     showgrid="false"
     units="px"
     inkscape:window-width="2880"
     inkscape:window-height="1586"
     inkscape:window-x="-11"
     inkscape:window-y="-11"
     inkscape:window-maximized="1" />
  <metadata
     id="metadata5">
    <rdf:RDF>
      <cc:Work
         rdf:about="">
        <dc:format>image/svg+xml</dc:format>
        <dc:type
           rdf:resource="http://purl.org/dc/dcmitype/StillImage" />
        <dc:title></dc:title>
      </cc:Work>
    </rdf:RDF>
  </metadata>
  <g
     inkscape:label="Calque 1"
     inkscape:groupmode="layer"
     id="layer1"
     transform="translate(0,-164.70832)">
    <g
       id="g38"
       transform="translate(-1140.413,-144.57434)">
      <g
         style="display:inline"
         transform="translate(0,-164.70832)"
         id="layer1-3"
         inkscape:label="Calque 1">
        <g
           id="g4570"
           transform="translate(1139.8627,474.50485)"
           style="fill:#ffc800;fill-opacity:1">
          <g
             style="display:inline;fill:#ffc800;fill-opacity:1"
             transform="translate(0,-164.70832)"
             id="layer1-6"
             inkscape:label="Calque 1">
            <path
               inkscape:connector-curvature="0"
               id="path3855-3"
               d="m 65.826782,284.01266 c -0.192711,-0.2129 -0.278093,-0.38717 -0.189785,-0.38717 0.08824,0 -0.0439,-0.21774 -0.294115,-0.4839 -0.514703,-0.54785 -0.960925,-0.66367 -0.559406,-0.14523 0.212393,0.27421 0.179762,0.26835 -0.171055,-0.0307 -0.238365,-0.20346 -0.388497,-0.41476 -0.333623,-0.46963 0.126937,-0.12693 -0.684222,-0.99955 -0.929172,-0.99955 -0.100965,0 -0.06585,0.15247 0.07879,0.33875 0.212392,0.27421 0.179762,0.26835 -0.171055,-0.0307 -0.238366,-0.20347 -0.388497,-0.41476 -0.333624,-0.46963 0.126938,-0.12694 -0.684222,-0.99956 -0.929172,-0.99956 -0.100892,0 -0.06584,0.15247 0.0788,0.33875 0.212393,0.27422 0.179762,0.26836 -0.171056,-0.0307 -0.238365,-0.20347 -0.388495,-0.41477 -0.333623,-0.46963 0.126938,-0.12694 -0.684222,-0.99956 -0.929099,-0.99956 -0.100965,0 -0.06584,0.15247 0.07879,0.33875 0.21232,0.27421 0.179763,0.26836 -0.171055,-0.0307 -0.238439,-0.20346 -0.388569,-0.41476 -0.333697,-0.46963 0.126938,-0.12694 -0.684148,-0.99955 -0.929098,-0.99955 -0.100965,0 -0.06585,0.15247 0.07879,0.33874 0.21232,0.27422 0.179762,0.26837 -0.171055,-0.0307 -0.238366,-0.20347 -0.388569,-0.41476 -0.333697,-0.46964 0.123207,-0.12314 -0.680637,-0.99956 -0.916807,-0.99956 -0.09423,0 -0.105867,0.10894 -0.02561,0.24203 0.09621,0.16008 0.03292,0.15072 -0.186859,-0.0278 -0.182688,-0.14822 -0.285702,-0.31599 -0.228927,-0.37276 0.125621,-0.1257 -0.673247,-1.00307 -0.913368,-1.00307 -0.09424,0 -0.105868,0.10894 -0.02561,0.24202 0.09621,0.16008 0.03293,0.15072 -0.186859,-0.0278 -0.182688,-0.14823 -0.285263,-0.31643 -0.227976,-0.37372 0.128767,-0.12876 -0.872982,-1.1957 -1.122615,-1.1957 -0.09965,0 -0.06292,0.15247 0.08121,0.33882 0.212392,0.27422 0.179761,0.26829 -0.171055,-0.0315 -0.238366,-0.20339 -0.388497,-0.41476 -0.333625,-0.46956 0.126938,-0.12694 -0.684221,-0.99962 -0.929098,-0.99962 -0.100965,0 -0.06585,0.15247 0.07879,0.33881 0.212319,0.27422 0.179761,0.26829 -0.171056,-0.0315 -0.238438,-0.20338 -0.388569,-0.41476 -0.333697,-0.46956 0.126938,-0.12694 -0.684148,-0.99962 -0.929098,-0.99962 -0.100966,0 -0.06585,0.15247 0.07879,0.33881 0.212319,0.27422 0.179762,0.2683 -0.171056,-0.0315 -0.238365,-0.2034 -0.388569,-0.41476 -0.333697,-0.46956 0.123207,-0.12321 -0.680636,-0.99963 -0.916806,-0.99963 -0.09423,0 -0.107623,0.10894 -0.03,0.24203 0.07777,0.13308 -0.04829,0.0755 -0.280141,-0.1279 -0.231928,-0.20339 -0.376717,-0.41468 -0.321845,-0.46956 0.126938,-0.12695 -0.684221,-0.99958 -0.929172,-0.99958 -0.100965,0 -0.06511,0.15244 0.0788,0.33876 0.212392,0.27422 0.179762,0.2683 -0.171056,-0.0311 -0.238365,-0.20341 -0.388496,-0.41473 -0.333623,-0.46959 0.123206,-0.12318 -0.68071,-0.99955 -0.916881,-0.99955 -0.09416,0 -0.107549,0.10888 -0.03,0.24197 0.07785,0.13308 -0.04829,0.0755 -0.280142,-0.12787 -0.231853,-0.20341 -0.376717,-0.41473 -0.321844,-0.46958 0.126938,-0.12694 -0.684148,-0.99958 -0.929098,-0.99958 -0.100966,0 -0.06585,0.15245 0.07879,0.33877 0.212319,0.27422 0.179761,0.26831 -0.171055,-0.0311 -0.238366,-0.20341 -0.388131,-0.41516 -0.332746,-0.47052 0.126352,-0.12634 -0.880445,-1.19221 -1.126127,-1.19221 -0.09958,0 -0.06292,0.15244 0.08129,0.33876 0.212392,0.27422 0.179761,0.2683 -0.171056,-0.0311 -0.238365,-0.20341 -0.388496,-0.41472 -0.333624,-0.46958 0.126938,-0.12694 -0.684221,-0.99957 -0.929171,-0.99957 -0.100966,0 -0.06511,0.15245 0.07879,0.33876 0.212393,0.27422 0.179762,0.2683 -0.171056,-0.031 -0.238365,-0.20342 -0.388056,-0.41515 -0.332672,-0.47053 0.126279,-0.12633 -0.880518,-1.1922 -1.126127,-1.1922 -0.09957,0 -0.06438,0.15245 0.07873,0.33876 0.142887,0.18632 0.02341,0.1279 -0.265875,-0.12981 -0.289141,-0.25772 -0.481706,-0.51259 -0.427932,-0.56637 0.125549,-0.12555 -0.688318,-0.99763 -0.931073,-0.99763 -0.100966,0 -0.06658,0.15245 0.07624,0.33877 0.142961,0.18632 0.02342,0.1279 -0.265874,-0.12982 -0.289141,-0.25771 -0.481706,-0.51258 -0.427931,-0.56637 0.125547,-0.12556 -0.688319,-0.99761 -0.931074,-0.99761 -0.100965,0 -0.06658,0.15244 0.07631,0.33876 0.142888,0.18631 0.02341,0.1279 -0.265948,-0.12982 -0.289141,-0.25772 -0.481706,-0.51259 -0.427857,-0.56637 0.125547,-0.12555 -0.688393,-0.99761 -0.931074,-0.99761 -0.100965,0 -0.06658,0.15244 0.07624,0.33876 0.142887,0.18631 0.02341,0.1279 -0.265875,-0.12982 -0.28914,-0.25772 -0.48134,-0.51301 -0.42698,-0.56731 0.124963,-0.12496 -0.884688,-1.19025 -1.128102,-1.19025 -0.09958,0 -0.06292,0.15244 0.08129,0.33875 0.212392,0.27422 0.179761,0.2683 -0.171055,-0.031 -0.238366,-0.20342 -0.388058,-0.41515 -0.332746,-0.47053 0.122548,-0.12253 -0.876787,-1.1922 -1.113836,-1.1922 -0.09277,0 -0.105062,0.10889 -0.02707,0.24197 0.07785,0.13309 -0.04829,0.0755 -0.280141,-0.12786 -0.231854,-0.20341 -0.375985,-0.41546 -0.320235,-0.47121 0.125987,-0.12595 -1.075937,-1.3851 -1.322131,-1.3851 -0.09862,0 -0.06219,0.15245 0.08055,0.33877 0.142888,0.18632 0.02342,0.1279 -0.265948,-0.12982 -0.28914,-0.25772 -0.480975,-0.51332 -0.426248,-0.568 0.126499,-0.12654 -1.082156,-1.38314 -1.330399,-1.38314 -0.102135,0 -0.02121,0.196 0.180129,0.43555 0.203027,0.24182 0.08816,0.18352 -0.25834,-0.13107 -0.343281,-0.31164 -0.579671,-0.61104 -0.525384,-0.66533 0.125401,-0.12543 -1.280062,-1.57492 -1.527061,-1.57492 -0.101404,0 -0.02048,0.19599 0.179543,0.43554 0.200101,0.23956 0,0.0928 -0.450393,-0.32618 -0.447831,-0.41895 -0.770041,-0.80593 -0.716047,-0.85996 0.124012,-0.12401 -1.867122,-2.15307 -2.112877,-2.15307 -0.09994,0 -0.01756,0.196 0.182834,0.43555 0.20054,0.23956 0.04097,0.13662 -0.354256,-0.22874 -0.395373,-0.36535 -0.675076,-0.70807 -0.621593,-0.76158 0.123133,-0.12311 -1.084863,-1.381 -1.326228,-1.381 -0.09862,0 -0.06292,0.15244 0.07902,0.33876 0.142009,0.18632 -0.02049,0.0838 -0.361426,-0.22786 -0.340867,-0.31163 -0.575574,-0.61079 -0.52158,-0.6648 0.125694,-0.12566 -1.084863,-1.38187 -1.331642,-1.38187 -0.102062,0 -0.02122,0.19599 0.17903,0.43554 0.20054,0.23956 0.04097,0.13662 -0.354256,-0.22874 -0.395373,-0.36535 -0.67449,-0.70865 -0.620277,-0.76288 0.125695,-0.12572 -1.672509,-1.96043 -1.921483,-1.96043 -0.102428,0 0.02341,0.23954 0.279337,0.53234 0.256071,0.29279 0.01171,0.10204 -0.542505,-0.42388 -0.55443,-0.52592 -0.96385,-1.00048 -0.90971,-1.05457 0.13184,-0.13188 -3.044463,-3.31473 -3.207471,-3.21401 -0.07024,0.0434 -0.468536,-0.28545 -0.885127,-0.73081 -0.416518,-0.44538 -0.561381,-0.64604 -0.321772,-0.44593 0.239537,0.20012 0.435541,0.28092 0.435541,0.17956 0,-0.25091 -1.450459,-1.65152 -1.578128,-1.52387 -0.05633,0.056 -0.268363,-0.0931 -0.471757,-0.33149 -0.299383,-0.35083 -0.305309,-0.38342 -0.03146,-0.17106 0.186346,0.14429 0.338745,0.17975 0.338745,0.0788 0,-0.24887 -0.873568,-1.05508 -1.003067,-0.92564 -0.05707,0.0568 -0.2245375,-0.0513 -0.372766,-0.2402 -0.2450965,-0.31229 -0.2388045,-0.31934 0.069501,-0.0778 0.186346,0.14611 0.338746,0.18139 0.338746,0.0784 0,-0.24761 -0.6802712,-0.85753 -0.8107938,-0.72697 -0.056332,0.056 -0.2232209,-0.0476 -0.3714494,-0.23031 -0.1783719,-0.21982 -0.1877363,-0.28303 -0.027802,-0.18683 0.1330835,0.0799 0.2419506,0.0638 0.2419506,-0.0359 0,-0.21336 -0.4268339,-0.59706 -0.6129613,-0.551 -0.070966,0.0176 -0.2017101,-0.0473 -0.2903842,-0.14429 -0.093722,-0.10238 -0.05999,-0.11788 0.080627,-0.0369 0.1330843,0.0766 0.2420242,0.0577 0.2420242,-0.0421 0,-0.20641 -0.5807692,-0.72928 -0.7557021,-0.68039 -0.063649,0.0177 -0.1589834,-0.018 -0.2122466,-0.0794 -0.053411,-0.0615 0.01244,-0.0491 0.1452289,0.0275 0.1330843,0.0766 0.2419506,0.0577 0.2419506,-0.0421 0,-0.24431 -0.492168,-0.63992 -0.6275931,-0.50448 -0.059262,0.0594 -0.094966,-0.0481 -0.078944,-0.23898 0.016099,-0.19085 -0.072431,-0.34909 -0.1968087,-0.35166 -0.1242313,-0.003 -0.2984326,-0.084 -0.3871794,-0.18089 -0.095258,-0.10405 -0.051946,-0.11283 0.1057938,-0.0214 0.1826883,0.10586 0.2387309,0.0698 0.177421,-0.11414 -0.049015,-0.14791 -0.184006,-0.26892 -0.2993108,-0.26892 -0.1153785,0 -0.2823367,-0.0793 -0.3710835,-0.17622 -0.095185,-0.10405 -0.051946,-0.11283 0.1057938,-0.0214 0.1837859,0.10649 0.2366095,0.0709 0.1693725,-0.11414 -0.053411,-0.14791 -0.1854685,-0.25056 -0.292652,-0.22812 -0.1072572,0.0224 -0.1834928,-0.10823 -0.1694462,-0.29037 0.013897,-0.18215 -0.089698,-0.30723 -0.2306833,-0.27797 -0.1410582,0.0293 -0.2022953,-0.0343 -0.1362295,-0.14119 0.1619101,-0.262 -0.2571684,-1.0167 -0.4860225,-0.87526 -0.1026478,0.0635 -0.1262062,-0.0322 -0.054139,-0.21991 0.093356,-0.24321 0.058534,-0.28974 -0.1289136,-0.17372 -0.1656413,0.10239 -0.2099779,0.0834 -0.1252553,-0.0537 0.1734696,-0.28067 -1.641561,-3.92228 -1.8811701,-3.77422 -0.1021355,0.0631 -0.1243042,0.0154 -0.049024,-0.1059 0.074992,-0.12137 -0.135132,-1.0115 -0.4669998,-1.97804 -1.0594021,-3.0854 -1.351762,-5.13812 -1.351762,-9.49024 0,-4.35554 0.1945407,-6.56387 0.8802985,-9.99086 0.2595828,-1.29748 0.4433686,-2.47346 0.4083236,-2.61329 -0.035119,-0.13984 -0.02195,-0.1725 0.029267,-0.0726 0.1296453,0.2523 1.400415,-3.41336 1.291183,-3.72453 -0.049024,-0.1386 -0.01902,-0.20904 0.065842,-0.15652 0.2182456,0.13489 1.6198318,-2.76332 1.4607747,-3.02065 -0.076382,-0.12361 -0.041707,-0.15679 0.082895,-0.0797 0.2519001,0.15571 0.6930008,-0.57246 0.5180679,-0.85541 -0.065851,-0.10691 -0.00728,-0.17044 0.1362296,-0.14118 0.1455211,0.0302 0.2438525,-0.0989 0.2273907,-0.29848 -0.016099,-0.19342 0.019757,-0.30307 0.078944,-0.24365 0.135425,0.13544 0.6275939,-0.26017 0.6275939,-0.50448 0,-0.0997 -0.1088671,-0.11864 -0.2419506,-0.0421 -0.1406196,0.0809 -0.1744214,0.0654 -0.080702,-0.0369 0.088747,-0.0969 0.219416,-0.17755 0.2903842,-0.17918 0.070966,-0.002 0.2379272,-0.0721 0.3710107,-0.15661 0.3162104,-0.20077 0.3162104,-0.58538 0,-0.39542 -0.160081,0.0962 -0.1507894,0.033 0.027802,-0.18683 0.1482285,-0.18271 0.3164306,-0.28533 0.3737172,-0.22803 0.1307428,0.13072 1.1957045,-0.87479 1.1957045,-1.12893 0,-0.10305 -0.1742012,-0.0297 -0.3871058,0.16301 -0.7969656,0.72118 -0.3509633,0.14329 0.5290422,-0.68562 0.5039476,-0.47465 0.7065368,-0.62344 0.4501729,-0.33066 -0.2562902,0.29278 -0.3813989,0.53233 -0.2779465,0.53233 0.2317808,0 1.6087841,-1.39044 1.5975171,-1.61314 -0.0073,-0.0887 0.05633,-0.21939 0.135791,-0.29036 0.07916,-0.071 0.08129,-0.0202 0.0073,0.11291 -0.07653,0.13309 -0.05195,0.24198 0.05414,0.24198 0.193809,0 0.498241,-0.37039 0.503801,-0.613 0,-0.071 0.08231,-0.20164 0.179176,-0.29037 0.102429,-0.0937 0.117939,-0.0599 0.03731,0.0807 -0.0766,0.13308 -0.0578,0.24197 0.04244,0.24197 0.244292,0 0.639885,-0.49214 0.50446,-0.62758 -0.05926,-0.0594 0.05048,-0.095 0.243633,-0.079 0.199589,0.0165 0.328648,-0.0818 0.298505,-0.22732 -0.02927,-0.141 0.03439,-0.2023 0.141132,-0.13623 0.282994,0.17488 1.011187,-0.26618 0.855423,-0.51814 -0.07697,-0.12457 -0.0439,-0.15927 0.07916,-0.0832 0.258485,0.15975 2.382923,-0.8531 2.247864,-1.07168 -0.05268,-0.0859 0.01902,-0.11172 0.160519,-0.0575 0.141425,0.0542 0.784748,-0.11575 1.429608,-0.37781 1.625465,-0.66048 4.689024,-1.41251 7.072898,-1.73622 1.102276,-0.14968 1.829956,-0.29274 1.616978,-0.31792 -1.07601,-0.12721 1.757305,-0.28926 4.650174,-0.26594 4.590035,0.037 5.116444,0.0678 4.641542,0.2719 -0.295579,0.12702 -0.181152,0.16982 0.483974,0.18101 1.49004,0.0251 6.077294,0.76772 8.461607,1.36988 1.252699,0.31637 2.452793,0.52668 2.666869,0.46736 0.257241,-0.0712 0.306846,-0.0502 0.14618,0.0622 -0.310943,0.21743 2.152459,1.11584 2.489082,0.90777 0.139083,-0.0859 0.183347,-0.063 0.109379,0.0566 -0.159056,0.25735 0.932171,0.71787 1.244139,0.52505 0.133303,-0.0824 0.185175,-0.0645 0.119768,0.0414 -0.148229,0.2399 2.71962,1.66664 3.000858,1.49286 0.123572,-0.0764 0.156789,-0.0419 0.07967,0.0829 -0.07243,0.11758 0.03878,0.30525 0.24773,0.41706 0.502119,0.26874 0.652396,0.25669 0.482437,-0.0387 -0.08092,-0.14059 -0.06511,-0.17439 0.03731,-0.0807 0.09687,0.0887 0.176177,0.25568 0.176177,0.37101 0,0.11535 0.121012,0.25005 0.268947,0.29935 0.17925,0.0598 0.217661,0.007 0.115232,-0.15895 -0.101477,-0.16423 -0.07667,-0.20106 0.07317,-0.10853 0.12467,0.077 0.182395,0.21164 0.128328,0.2991 -0.05414,0.0875 0.115744,0.29922 0.377229,0.47057 0.560429,0.36723 0.758994,0.39803 0.56738,0.0881 -0.08824,-0.14281 -0.05267,-0.17074 0.09826,-0.0774 0.130011,0.0804 0.187736,0.19468 0.128401,0.25407 -0.135425,0.13543 0.260168,0.62756 0.50446,0.62756 0.09972,0 0.119183,-0.10057 0.04316,-0.22349 -0.08824,-0.14281 -0.05267,-0.17075 0.09826,-0.0774 0.130011,0.0804 0.18781,0.19467 0.128401,0.25406 -0.135425,0.13543 0.260241,0.62756 0.504533,0.62756 0.09972,0 0.115891,-0.10889 0.03585,-0.24197 -0.09621,-0.16011 -0.03293,-0.15078 0.186785,0.0275 0.182761,0.14826 0.285775,0.31602 0.229001,0.3728 -0.129426,0.12943 0.676758,1.00306 0.925659,1.00306 0.100892,0 0.06877,-0.15244 -0.07097,-0.33876 -0.140035,-0.18632 0.328429,0.22493 1.040964,0.91389 0.712609,0.68897 1.295573,1.29046 1.295573,1.33666 0,0.0461 -0.174202,-0.0737 -0.387106,-0.26638 -0.212979,-0.1927 -0.38718,-0.26605 -0.38718,-0.16301 0,0.25415 1.064963,1.25964 1.195706,1.12892 0.05707,-0.0573 0.225488,0.0453 0.373717,0.22804 0.178371,0.2198 0.187736,0.28301 0.0278,0.18682 -0.133085,-0.0799 -0.241951,-0.0638 -0.241951,0.0359 0,0.21335 0.426834,0.59706 0.612961,0.551 0.07097,-0.0176 0.201637,0.0473 0.290384,0.14429 0.09372,0.10237 0.05999,0.11787 -0.08063,0.0369 -0.362377,-0.20855 -0.296457,0.003 0.265583,0.85246 0.279117,0.42184 0.577988,0.72343 0.664101,0.67021 0.08611,-0.0532 0.219636,0.005 0.296677,0.12988 0.09255,0.14971 0.0556,0.17449 -0.108501,0.073 -0.166739,-0.10305 -0.216416,-0.0651 -0.150936,0.11528 0.05341,0.1479 0.192565,0.24818 0.308529,0.22284 0.121743,-0.0266 0.158911,0.0891 0.08809,0.27372 -0.08889,0.23175 -0.05195,0.27617 0.133669,0.16136 0.164836,-0.10186 0.209977,-0.0834 0.126499,0.0517 -0.161325,0.26099 0.461366,1.61213 0.680489,1.4767 0.08772,-0.0542 0.110623,0.0287 0.05122,0.18439 -0.145522,0.37933 0.439271,1.47935 0.786503,1.47935 0.325576,0 1.126346,-1.69995 0.980166,-2.08086 -0.06219,-0.16306 -0.0161,-0.20978 0.123646,-0.12358 0.151155,0.0934 0.182688,0.0303 0.0968,-0.19357 -0.07243,-0.18917 -0.04829,-0.28345 0.0556,-0.219 0.228269,0.14109 0.839912,-1.00158 0.677051,-1.26501 -0.06511,-0.10598 -0.01463,-0.16876 0.11311,-0.13951 0.12767,0.0293 0.276118,-0.0678 0.329819,-0.21572 0.06731,-0.18502 0.01463,-0.22063 -0.169372,-0.11414 -0.157667,0.0914 -0.200979,0.0825 -0.10572,-0.0214 0.08867,-0.0969 0.255631,-0.17622 0.371009,-0.17622 0.115305,0 0.249999,-0.12101 0.299311,-0.26892 0.06146,-0.18393 0.0073,-0.22 -0.177421,-0.11414 -0.157666,0.0914 -0.200979,0.0825 -0.105794,-0.0214 0.08875,-0.0969 0.255705,-0.17622 0.37101,-0.17622 0.115379,0 0.250072,-0.12101 0.299384,-0.26892 0.05999,-0.17925 0.0073,-0.21769 -0.158984,-0.11527 -0.167836,0.10372 -0.201125,0.0769 -0.102501,-0.0827 0.08033,-0.13001 0.194687,-0.18777 0.254095,-0.12839 0.135425,0.13543 0.627521,-0.26021 0.627521,-0.50451 0,-0.0997 -0.100526,-0.11914 -0.223441,-0.0432 -0.142814,0.0883 -0.170762,0.0528 -0.0774,-0.0982 0.08033,-0.13 0.196223,-0.18622 0.257461,-0.12492 0.135279,0.13527 1.011261,-0.65943 1.011261,-0.91744 0,-0.10095 -0.152399,-0.0666 -0.338745,0.0763 -0.186274,0.1429 -0.12789,0.0233 0.129791,-0.2659 0.257753,-0.28914 0.513605,-0.48073 0.568551,-0.42575 0.136302,0.13625 1.581274,-1.29167 1.477382,-1.45986 -0.04536,-0.0737 0.151375,-0.34264 0.437663,-0.59767 0.286287,-0.25502 0.40364,-0.31123 0.260753,-0.12492 -0.142961,0.18632 -0.175592,0.33876 -0.07243,0.33876 0.247584,0 0.857545,-0.68027 0.726948,-0.81083 -0.05633,-0.056 0.04756,-0.22318 0.230318,-0.37144 0.219855,-0.17837 0.283068,-0.1877 0.186859,-0.0275 -0.07997,0.13309 -0.06365,0.24198 0.03585,0.24198 0.21093,0 0.759507,-0.61561 0.615888,-0.69114 -0.05341,-0.028 -0.01756,-0.12349 0.07938,-0.21222 0.102428,-0.0937 0.117865,-0.0599 0.03731,0.0807 -0.0766,0.13309 -0.0578,0.24197 0.0417,0.24197 0.244364,0 0.639957,-0.49213 0.504532,-0.62758 -0.05926,-0.0594 0.05048,-0.0949 0.243634,-0.0789 0.193443,0.0159 0.333331,-0.0696 0.31087,-0.19016 -0.02268,-0.12056 0.108208,-0.20766 0.290384,-0.19357 0.182103,0.0142 0.307213,-0.0898 0.277947,-0.23074 -0.02927,-0.141 0.03438,-0.20231 0.141205,-0.13623 0.282922,0.17487 1.011114,-0.26618 0.855424,-0.51813 -0.07719,-0.12489 -0.0439,-0.15927 0.07997,-0.0827 0.280654,0.17347 3.922274,-1.64156 3.774192,-1.88113 -0.06292,-0.10236 -0.01317,-0.123 0.111355,-0.046 0.124377,0.0769 0.902833,-0.12123 1.730014,-0.4402 3.12941,-1.20685 8.515169,-2.39482 12.075506,-2.66359 1.15927,-0.0875 1.658096,-0.188 1.411609,-0.28434 -0.463561,-0.1812 0.310724,-0.22315 4.7428,-0.25699 2.81692,-0.0215 5.61278,0.14326 4.55491,0.26844 -0.21297,0.0252 0.46795,0.16233 1.51309,0.30473 2.31312,0.31516 5.62866,1.12557 7.19288,1.75816 0.63601,0.25721 1.2721,0.42328 1.41344,0.36903 0.14143,-0.0542 0.21328,-0.0278 0.15979,0.0589 -0.13528,0.21882 1.60249,1.03687 1.86193,0.87653 0.13579,-0.0839 0.15445,-0.0391 0.0526,0.12607 -0.11604,0.18771 -0.0695,0.22224 0.17376,0.12891 0.18759,-0.072 0.28329,-0.0485 0.21986,0.0542 -0.14142,0.22886 0.61325,0.64792 0.87525,0.48599 0.10696,-0.0661 0.17047,-0.005 0.1412,0.13623 -0.03,0.14551 0.0989,0.24381 0.29851,0.22733 0.19337,-0.0159 0.30304,0.0195 0.24364,0.079 -0.13543,0.13544 0.26016,0.62758 0.50445,0.62758 0.0997,0 0.11867,-0.10889 0.0424,-0.24197 -0.081,-0.14059 -0.0651,-0.17439 0.0373,-0.0807 0.0969,0.0887 0.17757,0.21939 0.17918,0.29036 0.008,0.24262 0.31006,0.613 0.50387,0.613 0.10646,0 0.12819,-0.10889 0.0483,-0.24197 -0.10002,-0.16643 -0.0439,-0.15958 0.17998,0.0219 0.17896,0.14515 0.28717,0.32584 0.24034,0.40154 -0.10909,0.17655 2.68773,2.96295 2.83061,2.82004 0.0593,-0.0589 0.22849,0.0423 0.37679,0.22497 0.17837,0.21981 0.18766,0.28302 0.0278,0.18683 -0.13308,-0.0799 -0.24194,-0.0583 -0.24194,0.0482 0,0.19382 0.37035,0.49825 0.61295,0.50381 0.071,0.002 0.20164,0.0823 0.29039,0.17919 0.0937,0.10238 0.06,0.11787 -0.0807,0.0369 -0.13309,-0.0766 -0.24195,-0.0577 -0.24195,0.0421 0,0.24432 0.49216,0.63993 0.62759,0.50448 0.0593,-0.0594 0.095,0.0502 0.0789,0.24365 -0.0168,0.19959 0.0819,0.32867 0.22732,0.29848 0.14106,-0.0293 0.20237,0.0343 0.13623,0.14119 -0.17486,0.28295 0.26625,1.01111 0.51815,0.8554 0.12481,-0.0771 0.15927,-0.0439 0.0829,0.0797 -0.15906,0.25734 1.24246,3.15554 1.46077,3.02065 0.0849,-0.0525 0.11465,0.0179 0.0659,0.15652 -0.10923,0.31117 1.16153,3.97683 1.29118,3.72452 0.0512,-0.0999 0.0644,-0.0672 0.03,0.0726 -0.0351,0.13983 0.14874,1.31581 0.40832,2.61329 0.68525,3.4247 0.8803,5.63502 0.8803,9.97635 0,4.13201 -0.20486,5.77779 -1.08267,8.69723 -0.26499,0.88145 -0.42127,1.70068 -0.34716,1.82051 0.0789,0.12778 0.0483,0.16431 -0.0749,0.0883 -0.25374,-0.15678 -0.51251,0.55562 -0.3168,0.87218 0.0765,0.12387 0.0556,0.17357 -0.0468,0.11044 -0.23962,-0.14806 -2.05464,3.49355 -1.88118,3.77423 0.0847,0.13706 0.0403,0.15604 -0.12525,0.0537 -0.18583,-0.11482 -0.22264,-0.0704 -0.13367,0.16134 0.071,0.18462 0.0337,0.30033 -0.0881,0.27373 -0.11597,-0.0253 -0.25483,0.0749 -0.30853,0.22285 -0.0659,0.18037 -0.0161,0.21832 0.15086,0.11527 0.16425,-0.1015 0.20105,-0.0767 0.10857,0.073 -0.077,0.12465 -0.21684,0.17922 -0.31057,0.12127 -0.22088,-0.13651 -0.63221,0.62761 -0.47483,0.88216 0.0659,0.1069 0.0153,0.17044 -0.11209,0.14119 -0.12766,-0.0292 -0.27611,0.0678 -0.32982,0.21572 -0.0673,0.18502 -0.0146,0.22064 0.16938,0.11415 0.15766,-0.0914 0.20098,-0.0826 0.10572,0.0214 -0.0887,0.0969 -0.25563,0.17621 -0.37101,0.17621 -0.1153,0 -0.25,0.12101 -0.29931,0.26892 -0.06,0.17925 -0.008,0.21769 0.15891,0.11528 0.16425,-0.10151 0.20113,-0.0768 0.10857,0.073 -0.077,0.12464 -0.21451,0.18063 -0.30545,0.12442 -0.091,-0.0562 -0.34628,0.1518 -0.56739,0.46227 -0.45668,0.64136 -0.51345,0.8821 -0.16,0.67869 0.14062,-0.0809 0.17442,-0.0654 0.0807,0.0369 -0.0888,0.0969 -0.21942,0.17756 -0.29038,0.17919 -0.24262,0.006 -0.61304,0.30999 -0.61304,0.50382 0,0.10646 0.1006,0.13142 0.22352,0.0554 0.14281,-0.0883 0.17076,-0.0528 0.0774,0.0983 -0.0804,0.13001 -0.19563,0.18682 -0.25614,0.12628 -0.13287,-0.13281 -0.81907,0.45912 -0.81907,0.70648 0,0.0962 0.10061,0.11285 0.22352,0.0368 0.14282,-0.0883 0.17077,-0.0528 0.0774,0.0982 -0.0804,0.12999 -0.19563,0.18682 -0.25622,0.12627 -0.13279,-0.13281 -0.81899,0.45913 -0.81899,0.70649 0,0.0963 0.10887,0.10958 0.24196,0.0296 0.16008,-0.0962 0.15079,-0.033 -0.0278,0.18682 -0.14822,0.18271 -0.31599,0.28575 -0.37277,0.22897 -0.12942,-0.12943 -1.00306,0.67677 -1.00306,0.92564 0,0.10093 0.1524,0.0655 0.33875,-0.0788 0.27421,-0.21235 0.26828,-0.17976 -0.0315,0.17107 -0.20339,0.23837 -0.41571,0.38753 -0.47175,0.33149 -0.1276,-0.12765 -1.57813,1.27295 -1.57813,1.52386 0,0.10136 0.196,0.0208 0.43554,-0.17895 0.23961,-0.19979 0.0512,0.0443 -0.41923,0.54234 -0.47008,0.49807 -0.91235,0.87 -0.98265,0.8265 -0.16235,-0.10031 -2.56284,2.30946 -2.43151,2.44084 0.0534,0.0537 -0.39939,0.57142 -1.00672,1.15076 -0.60726,0.57934 -0.89479,0.81379 -0.63894,0.521 0.25585,-0.29279 0.38133,-0.53233 0.27898,-0.53233 -0.24898,0 -2.04718,1.8347 -1.92148,1.96042 0.0542,0.0542 -0.22491,0.39753 -0.62029,0.76289 -0.39537,0.36536 -0.55479,0.46829 -0.35425,0.22873 0.20054,-0.23955 0.28109,-0.43555 0.17903,-0.43555 -0.24678,0 -1.45734,1.25622 -1.33164,1.38189 0.0542,0.054 -0.18072,0.35315 -0.52158,0.66479 -0.34079,0.31164 -0.50343,0.41419 -0.36143,0.22787 0.14209,-0.18633 0.17757,-0.33876 0.079,-0.33876 -0.24137,0 -1.44937,1.25789 -1.32631,1.38099 0.0534,0.0535 -0.22614,0.39623 -0.62158,0.76159 -0.39538,0.36535 -0.5548,0.46829 -0.35426,0.22873 0.20061,-0.23955 0.28255,-0.43554 0.18217,-0.43554 -0.24553,0 -2.04242,1.83567 -1.91833,1.95977 0.0542,0.0538 -0.26844,0.44072 -0.71627,0.85968 -0.44783,0.41895 -0.65049,0.56573 -0.45039,0.32618 0.2001,-0.23955 0.28138,-0.43554 0.18056,-0.43554 -0.24882,0 -1.847,1.64319 -1.72087,1.76933 0.0549,0.0553 -0.13615,0.31124 -0.42529,0.56896 -0.28914,0.25771 -0.40884,0.31613 -0.26595,0.12981 0.14296,-0.18632 0.17918,-0.33876 0.0806,-0.33876 -0.24385,0 -1.4487,1.25854 -1.32411,1.38315 0.0549,0.0547 -0.1371,0.31028 -0.42632,0.568 -0.28914,0.25771 -0.40876,0.31612 -0.26587,0.12981 0.14289,-0.18632 0.1791,-0.33876 0.0806,-0.33876 -0.24619,0 -1.44812,1.25914 -1.3222,1.38508 0.0556,0.0558 -0.0936,0.26781 -0.332016,0.47122 -0.350817,0.29938 -0.383375,0.3053 -0.171055,0.0311 0.144277,-0.18632 0.180859,-0.33876 0.08129,-0.33876 -0.243414,0 -1.253064,1.06529 -1.128102,1.19026 0.05414,0.0542 -0.137766,0.30959 -0.42698,0.5673 -0.289141,0.25772 -0.408762,0.31614 -0.265874,0.12982 0.142887,-0.18632 0.178371,-0.33876 0.07879,-0.33876 -0.245682,0 -1.25248,1.06587 -1.126127,1.1922 0.0556,0.0554 -0.08904,0.26711 -0.320967,0.47052 -0.231854,0.20342 -0.357914,0.26095 -0.280141,0.12787 0.07785,-0.13308 0.06439,-0.24197 -0.02999,-0.24197 -0.236171,0 -1.040014,0.87638 -0.916807,0.99956 0.05487,0.0548 -0.08999,0.26618 -0.321919,0.46959 -0.231853,0.2034 -0.357913,0.26095 -0.280067,0.12787 0.07777,-0.1331 0.06439,-0.24198 -0.03,-0.24198 -0.236243,0 -1.040087,0.87637 -0.91688,0.99957 0.05487,0.0548 -0.08999,0.26617 -0.321845,0.46958 -0.231926,0.20341 -0.357987,0.26095 -0.280141,0.12786 0.07785,-0.13308 0.06439,-0.24197 -0.03,-0.24197 -0.233975,0 -1.040598,0.87581 -0.918781,0.99761 0.05341,0.0538 -0.138791,0.30866 -0.427935,0.56638 -0.28914,0.25771 -0.408835,0.31613 -0.265874,0.12981 0.142887,-0.18632 0.177201,-0.33876 0.07624,-0.33876 -0.24495,0 -1.056037,0.87263 -0.929099,0.99957 0.05487,0.0548 -0.08999,0.26617 -0.321918,0.46959 -0.231853,0.2034 -0.357914,0.26095 -0.280068,0.12786 0.07777,-0.13309 0.06438,-0.24197 -0.03,-0.24197 -0.236244,0 -1.040087,0.87637 -0.91688,0.99956 0.05487,0.0549 -0.09526,0.26618 -0.333624,0.46958 -0.350817,0.29938 -0.383448,0.3053 -0.171056,0.0311 0.144278,-0.18632 0.179689,-0.33875 0.07879,-0.33875 -0.244951,0 -1.05611,0.87261 -0.929171,0.99955 0.05487,0.0549 -0.08999,0.26618 -0.321846,0.46959 -0.231926,0.20341 -0.357913,0.26095 -0.28014,0.12787 0.07785,-0.13309 0.06439,-0.24198 -0.03,-0.24198 -0.236171,0 -1.040014,0.87637 -0.916807,0.99958 0.05487,0.0548 -0.09533,0.26616 -0.333697,0.46957 -0.350817,0.29938 -0.383375,0.3053 -0.171056,0.031 0.144278,-0.18631 0.18086,-0.33876 0.08129,-0.33876 -0.245682,0 -1.252482,1.06587 -1.126129,1.19221 0.0556,0.0554 -0.09431,0.26711 -0.332673,0.47052 -0.350891,0.29937 -0.383448,0.30529 -0.171129,0.031 0.144352,-0.18631 0.179762,-0.33876 0.07887,-0.33876 -0.24495,0 -1.056109,0.87263 -0.929171,0.99957 0.05487,0.0548 -0.09526,0.26613 -0.333624,0.46953 -0.350817,0.29938 -0.383448,0.30531 -0.171056,0.0315 0.144278,-0.18635 0.179689,-0.33875 0.0788,-0.33875 -0.24495,0 -1.05611,0.87262 -0.929172,0.99956 0.05488,0.0549 -0.08999,0.26617 -0.321844,0.46956 -0.231928,0.20339 -0.357915,0.26097 -0.280142,0.12789 0.07785,-0.13308 0.06439,-0.24196 -0.02999,-0.24196 -0.240122,0 -1.03899,0.87738 -0.913369,1.003 0.05707,0.0571 -0.04609,0.22454 -0.228927,0.37284 -0.219855,0.17837 -0.282995,0.18766 -0.186859,0.0278 0.07997,-0.13308 0.06804,-0.24195 -0.02561,-0.24195 -0.236171,0 -1.040014,0.87635 -0.916807,0.99956 0.05487,0.0548 -0.09533,0.26616 -0.333697,0.46956 -0.350818,0.29938 -0.383375,0.30531 -0.171056,0.0315 0.144278,-0.18635 0.179762,-0.33875 0.07879,-0.33875 -0.244878,0 -1.056037,0.87262 -0.929099,0.99956 0.05487,0.0548 -0.09526,0.26616 -0.333624,0.46956 -0.35089,0.29938 -0.383448,0.30531 -0.171128,0.0315 0.14435,-0.18635 0.179761,-0.33874 0.07887,-0.33874 -0.24495,0 -1.05611,0.87261 -0.929172,0.99955 0.05488,0.0548 -0.09526,0.26617 -0.333624,0.46956 -0.350817,0.29939 -0.383447,0.30531 -0.171055,0.0307 0.144278,-0.18635 0.179689,-0.33875 0.07879,-0.33875 -0.24495,0 -1.05611,0.87262 -0.929172,0.99955 0.05488,0.0548 -0.09526,0.26617 -0.333623,0.46957 -0.350818,0.29938 -0.383448,0.30531 -0.171055,0.0315 0.144277,-0.18635 0.179762,-0.33874 0.07879,-0.33874 -0.24495,0 -1.05611,0.87261 -0.929172,0.99955 0.05488,0.0548 -0.09526,0.26617 -0.333624,0.46956 -0.350817,0.29939 -0.383447,0.30531 -0.171055,0.0315 0.144278,-0.18635 0.179762,-0.33875 0.07879,-0.33875 -0.24495,0 -1.056036,0.87262 -0.929098,0.99956 0.05488,0.0548 -0.08999,0.26616 -0.321917,0.46956 -0.231855,0.20339 -0.357914,0.26097 -0.280142,0.12788 0.07785,-0.13308 0.06292,-0.24202 -0.03365,-0.24202 -0.234854,0 -0.842473,0.68305 -0.718169,0.80735 0.05414,0.0542 -0.09665,0.26485 -0.335013,0.46825 -0.350818,0.29938 -0.383375,0.30531 -0.171056,0.0315 0.144277,-0.18635 0.179762,-0.33875 0.07879,-0.33875 -0.244878,0 -1.056037,0.87262 -0.929099,0.99956 0.05488,0.0548 -0.09526,0.26616 -0.333624,0.46956 -0.35089,0.29938 -0.383448,0.30531 -0.171128,0.0307 0.14435,-0.18628 0.179761,-0.33867 0.07887,-0.33867 -0.24495,0 -1.05611,0.87254 -0.929172,0.99955 0.05488,0.0548 -0.09526,0.26617 -0.333624,0.46957 -0.350817,0.29938 -0.383447,0.30531 -0.171055,0.0315 0.371669,-0.48002 0.03658,-0.42054 -0.506728,0.0899 -0.383302,0.3601 -0.516385,0.39098 -0.832523,0.19358 -0.511044,-0.31913 -0.672881,-0.29565 -0.381619,0.0556 0.358938,0.43247 0.115086,0.35118 -0.290384,-0.0968 z M 27.982428,250.65057 c 0,-0.0368 -0.196004,-0.23273 -0.43554,-0.43555 l -0.43554,-0.36877 0.368742,0.43555 c 0.346574,0.40931 0.502338,0.52367 0.502338,0.36877 z m 78.495622,-0.70752 c 0.19271,-0.21294 0.30684,-0.38716 0.25358,-0.38716 -0.0534,0 -0.25446,0.17422 -0.44717,0.38716 -0.19264,0.21293 -0.30678,0.38715 -0.25359,0.38715 0.0534,0 0.25446,-0.17422 0.44718,-0.38715 z m -81.592836,-2.20244 c 0,-0.0402 -0.152472,-0.19264 -0.338818,-0.33876 -0.306993,-0.24079 -0.31387,-0.23394 -0.07316,0.0731 0.252925,0.32246 0.411909,0.425 0.411909,0.26568 z m 84.424386,-0.45925 c 0.24078,-0.30704 0.23398,-0.31388 -0.0732,-0.0731 -0.18627,0.14611 -0.33874,0.29856 -0.33874,0.33875 0,0.15933 0.15898,0.0568 0.41184,-0.26566 z m -86.553799,-1.47653 c 0,-0.0402 -0.152398,-0.19264 -0.338745,-0.33876 -0.306992,-0.24079 -0.313869,-0.23394 -0.07316,0.0731 0.252925,0.32246 0.411835,0.425 0.411835,0.26568 z m 88.683219,-0.45925 c 0.24078,-0.30703 0.2339,-0.31388 -0.0732,-0.0731 -0.18635,0.14612 -0.33882,0.29857 -0.33882,0.33876 0,0.15933 0.15898,0.0568 0.4119,-0.26567 z m -90.812558,-1.47653 c 0,-0.0402 -0.152399,-0.19263 -0.338745,-0.33875 -0.306993,-0.24079 -0.31387,-0.23394 -0.07316,0.0731 0.252851,0.32246 0.411835,0.425 0.411835,0.26568 z m 92.941888,-0.45924 c 0.24079,-0.30703 0.23391,-0.31388 -0.0732,-0.0731 -0.32251,0.25288 -0.42501,0.41184 -0.26566,0.41184 0.0403,0 0.19264,-0.15244 0.33875,-0.33875 z m -95.651923,-2.04722 c 0,-0.0347 -0.239609,-0.27422 -0.532408,-0.53234 l -0.532335,-0.46929 0.469341,0.53234 c 0.438613,0.49755 0.595402,0.62111 0.595402,0.46929 z m 98.639833,-0.75966 0.56856,-0.62912 -0.62913,0.56855 c -0.34599,0.31271 -0.62913,0.59581 -0.62913,0.62913 0,0.14955 0.15971,0.0179 0.6897,-0.56856 z m 3.56905,-3.53279 c 0.25,-0.26617 0.41103,-0.48394 0.35784,-0.48394 -0.0534,0 -0.30143,0.21777 -0.55143,0.48394 -0.25007,0.26618 -0.4111,0.48396 -0.35784,0.48396 0.0534,0 0.30135,-0.21778 0.55143,-0.48396 z m -106.467635,0.03 c 0,-0.0368 -0.196004,-0.23273 -0.43554,-0.43554 l -0.43554,-0.36877 0.368742,0.43556 c 0.346574,0.4093 0.502338,0.52367 0.502338,0.36875 z m 47.813634,-47.41849 c 0,-0.0323 -0.326673,-0.35901 -0.725925,-0.72592 l -0.725924,-0.66709 0.667101,0.72591 c 0.620936,0.67567 0.784748,0.81492 0.784748,0.6671 z M 1.0904465,215.56692 c 0.00951,-0.22551 0.054875,-0.27137 0.1169146,-0.11695 0.055604,0.13974 0.049016,0.30669 -0.015362,0.37102 -0.064386,0.0643 -0.1101111,-0.05 -0.1016968,-0.25407 z m 131.2454935,0 c 0.01,-0.22551 0.0549,-0.27137 0.11691,-0.11695 0.0563,0.13974 0.049,0.30669 -0.0153,0.37102 -0.0644,0.0643 -0.11011,-0.05 -0.10169,-0.25407 z M 0.9193176,213.84086 c 0.007283,-0.31941 0.0475588,-0.42664 0.0964286,-0.23829 0.049016,0.18834 0.046094,0.44967 -0.00728,0.58072 -0.0526739,0.13106 -0.0932098,-0.023 -0.0892593,-0.34243 z m 131.6326724,0 c 0.008,-0.31941 0.0476,-0.42664 0.0964,-0.23829 0.049,0.18834 0.0461,0.44967 -0.008,0.58072 -0.0526,0.13106 -0.0931,-0.023 -0.0892,-0.34243 z m 0.0219,-5.42018 c 0,-0.6388 0.0373,-0.87679 0.0803,-0.52886 0.0432,0.34793 0.0424,0.87058 0,1.16146 -0.0439,0.29088 -0.0794,0.006 -0.0783,-0.6326 z M 0.93927456,208.3239 c 0,-0.58557 0.0365837,-0.82513 0.0806264,-0.53234 0.044629,0.29279 0.044629,0.77189 0,1.06468 -0.0446287,0.29278 -0.0806264,0.0532 -0.0806264,-0.53234 z m 0.17332304,-3.00045 c 0.00728,-0.3194 0.047559,-0.42664 0.096429,-0.23829 0.049015,0.18834 0.046094,0.44967 -0.00728,0.58074 -0.052674,0.13105 -0.093137,-0.023 -0.089186,-0.34245 z m 131.2383224,0.0968 c 0,-0.26616 0.0439,-0.37505 0.0976,-0.24197 0.0534,0.13308 0.0534,0.35086 0,0.48394 -0.0534,0.1331 -0.0976,0.0242 -0.0976,-0.24197 z m -0.19359,-1.74219 c 0,-0.26617 0.0439,-0.37506 0.0977,-0.24198 0.0534,0.13309 0.0534,0.35087 0,0.48395 -0.0534,0.13309 -0.0977,0.0242 -0.0977,-0.24197 z M 1.2837265,203.56512 c 0.00951,-0.2255 0.054876,-0.27138 0.1169146,-0.11695 0.055604,0.13973 0.049015,0.3067 -0.015362,0.37102 -0.064386,0.0643 -0.1100374,-0.0501 -0.101624,-0.25407 z M 124.38369,186.35286 c -0.47022,-0.4791 -0.81137,-0.8711 -0.75812,-0.8711 0.0534,0 0.4815,0.392 0.95172,0.8711 0.47021,0.47911 0.81138,0.8711 0.75811,0.8711 -0.0534,0 -0.48148,-0.39199 -0.95171,-0.8711 z m -33.138062,-6.61708 c 0.139742,-0.0559 0.3067,-0.049 0.37101,0.0153 0.06439,0.0643 -0.04975,0.11008 -0.254022,0.10168 -0.225489,-0.009 -0.271363,-0.0552 -0.116988,-0.11696 z m -68.139229,-0.38715 c 0.139742,-0.0559 0.3067,-0.0491 0.37101,0.0153 0.06438,0.0643 -0.04975,0.11007 -0.254095,0.10168 -0.225489,-0.009 -0.271362,-0.0552 -0.116915,-0.11696 z m 16.647682,0 c 0.139742,-0.0559 0.3067,-0.0491 0.37101,0.0153 0.06439,0.0643 -0.04975,0.11007 -0.254095,0.10168 -0.225489,-0.009 -0.271362,-0.0552 -0.116915,-0.11696 z m 53.814479,0 c 0.139742,-0.0559 0.3067,-0.0491 0.37101,0.0153 0.06439,0.0643 -0.04975,0.11007 -0.254022,0.10168 -0.225489,-0.009 -0.271362,-0.0552 -0.116988,-0.11696 z m 16.64768,0 c 0.13975,-0.0559 0.3067,-0.0491 0.37101,0.0153 0.0644,0.0643 -0.0497,0.11007 -0.25409,0.10168 -0.22549,-0.009 -0.27137,-0.0552 -0.11692,-0.11696 z m -85.948376,-0.19358 c 0.139741,-0.0559 0.306699,-0.0491 0.37101,0.0153 0.06438,0.0643 -0.04975,0.11008 -0.254096,0.10167 -0.225488,-0.009 -0.271362,-0.0552 -0.116914,-0.11695 z m 13.925501,0.004 c 0.133084,-0.0537 0.350818,-0.0537 0.483901,0 0.133084,0.0537 0.02414,0.0976 -0.24195,0.0976 -0.266168,0 -0.375034,-0.0439 -0.241951,-0.0976 z m 56.718177,0 c 0.133084,-0.0537 0.350817,-0.0537 0.483901,0 0.133084,0.0537 0.02414,0.0976 -0.241951,0.0976 -0.266167,0 -0.375034,-0.0439 -0.24195,-0.0976 z m 14.143238,-0.004 c 0.13974,-0.0559 0.3067,-0.0491 0.37101,0.0153 0.0644,0.0643 -0.0497,0.11008 -0.25409,0.10167 -0.2255,-0.009 -0.27137,-0.0552 -0.11692,-0.11695 z"
               style="fill:#ffc800;fill-opacity:1;stroke-width:0.19357742" />
          </g>
          <g
             style="opacity:0.99952608;fill:#ffc800;fill-opacity:1"
             inkscape:label="view"
             id="layer2-5" />
        </g>
      </g>
      <g
         style="opacity:0.99952608"
         inkscape:label="view"
         id="layer2" />
    </g>
  </g>
</svg>
