<?xml version="1.0" encoding="UTF-8" standalone="no"?>
<!-- Created with Inkscape (http://www.inkscape.org/) -->

<svg
   xmlns:dc="http://purl.org/dc/elements/1.1/"
   xmlns:cc="http://creativecommons.org/ns#"
   xmlns:rdf="http://www.w3.org/1999/02/22-rdf-syntax-ns#"
   xmlns:svg="http://www.w3.org/2000/svg"
   xmlns="http://www.w3.org/2000/svg"
   xmlns:sodipodi="http://sodipodi.sourceforge.net/DTD/sodipodi-0.dtd"
   xmlns:inkscape="http://www.inkscape.org/namespaces/inkscape"
   width="500"
   height="500"
   viewBox="0 0 132.29166 132.29167"
   version="1.1"
   id="svg8"
   inkscape:version="0.92.4 (5da689c313, 2019-01-14)"
   sodipodi:docname="programme.svg">
  <defs
     id="defs2" />
  <sodipodi:namedview
     id="base"
     pagecolor="#ffffff"
     bordercolor="#666666"
     borderopacity="1.0"
     inkscape:pageopacity="0.0"
     inkscape:pageshadow="2"
     inkscape:zoom="0.22627417"
     inkscape:cx="1388.7263"
     inkscape:cy="-430.88597"
     inkscape:document-units="mm"
     inkscape:current-layer="layer1"
     showgrid="false"
     inkscape:window-width="2880"
     inkscape:window-height="1586"
     inkscape:window-x="-11"
     inkscape:window-y="-11"
     inkscape:window-maximized="1"
     units="px" />
  <metadata
     id="metadata5">
    <rdf:RDF>
      <cc:Work
         rdf:about="">
        <dc:format>image/svg+xml</dc:format>
        <dc:type
           rdf:resource="http://purl.org/dc/dcmitype/StillImage" />
        <dc:title></dc:title>
      </cc:Work>
    </rdf:RDF>
  </metadata>
  <g
     inkscape:label="Calque 1"
     inkscape:groupmode="layer"
     id="layer1"
     transform="translate(0,-164.70832)"
     style="display:inline">
    <path
       style="fill:#000000;stroke-width:0.26458335"
       d="m 25.320276,296.67807 c -0.097,-0.097 -0.17639,-1.82342 -0.17639,-3.83646 v -3.66007 h -3.30729 c -2.95451,0 -3.36373,-0.0564 -3.83646,-0.52916 -0.52575,-0.52576 -0.52916,-0.88195 -0.52916,-55.23905 0,-49.08849 0.0423,-54.7703 0.41188,-55.29792 0.38935,-0.55587 0.59815,-0.58804 3.8177,-0.58804 h 3.40582 l 0.30043,-1.52135 c 0.71541,-3.62268 2.0609,-6.27243 4.21079,-8.29251 2.04434,-1.9209 3.41438,-2.46393 6.24192,-2.47404 2.21456,-0.008 2.49816,0.0546 4.05146,0.89371 0.91861,0.49623 2.21759,1.50676 2.88662,2.24561 1.50204,1.65881 3.10298,4.98836 3.54016,7.36265 l 0.32885,1.78593 h 2.18447 2.18446 l 0.30044,-1.52135 c 0.46878,-2.37383 1.00197,-3.83682 2.01256,-5.5222 1.26034,-2.10189 2.51251,-3.33629 4.44216,-4.37914 1.48791,-0.80411 1.80649,-0.87373 3.99799,-0.87373 2.20654,0 2.50379,0.0662 4.05145,0.90223 0.91861,0.49623 2.2176,1.50676 2.88663,2.24561 1.47618,1.63025 3.06396,4.94146 3.53049,7.36265 l 0.34413,1.78593 h 2.16215 2.162142 l 0.46068,-2.13215 c 0.91508,-4.23522 3.55997,-8.0303 6.62733,-9.50934 1.09055,-0.52586 1.74116,-0.63939 3.70416,-0.64641 2.21457,-0.008 2.49817,0.0546 4.05146,0.89371 3.05294,1.64918 5.3627,5.03521 6.35756,9.31999 l 0.45088,1.94191 3.289952,0.0747 c 4.41344,0.10025 4.2387,-0.0892 4.2387,4.59649 v 3.66316 h 3.30729 c 2.95451,0 3.36373,0.0564 3.83646,0.52916 0.52574,0.52575 0.52916,0.88195 0.52916,55.14399 0,30.03815 -0.0723,54.80315 -0.1606,55.03333 -0.14555,0.37931 -4.28073,0.41852 -44.141324,0.41852 -24.18939,0 -44.06009,-0.0794 -44.15711,-0.17639 z m 85.019454,-55.12153 v -52.3875 h -2.11667 -2.11666 v 49.5224 c 0,45.70982 -0.0337,49.55965 -0.43789,50.00625 -0.42037,0.46451 -1.97022,0.48385 -38.761464,0.48385 h -38.32357 v 2.38125 2.38125 h 40.87812 40.878134 z m -7.67292,-8.20208 v -52.3875 h -2.07161 -2.071602 l -0.44866,2.08786 c -0.63659,2.9624 -1.79933,5.13228 -3.85661,7.19713 -1.2673,1.27195 -2.13208,1.8907 -3.19318,2.2847 l -1.45521,0.54033 -0.0789,1.94194 c -0.0917,2.25539 -0.48255,2.88137 -1.79915,2.88137 -1.56353,0 -1.69379,-0.48832 -1.69379,-6.35 0,-5.82232 0.13693,-6.35 1.64782,-6.35 1.35437,0 1.79177,0.6236 1.79177,2.55455 0,0.92333 0.10119,1.67878 0.22488,1.67878 0.48679,0 2.46112,-1.64754 3.20514,-2.67462 0.84581,-1.16761 1.68093,-3.20189 1.97044,-4.79986 l 0.17976,-0.99218 H 83.806188 72.594466 l -0.44866,2.08786 c -0.63659,2.9624 -1.79933,5.13228 -3.85661,7.19713 -1.2673,1.27195 -2.13207,1.8907 -3.19318,2.2847 l -1.45521,0.54033 -0.0789,1.94194 c -0.0917,2.25539 -0.48255,2.88137 -1.79915,2.88137 -1.56353,0 -1.69379,-0.48832 -1.69379,-6.35 0,-5.82232 0.13694,-6.35 1.64782,-6.35 1.35437,0 1.79177,0.6236 1.79177,2.55455 0,0.92333 0.1012,1.67878 0.22488,1.67878 0.48679,0 2.46112,-1.64754 3.20514,-2.67462 0.84581,-1.16761 1.68093,-3.20189 1.97044,-4.79986 l 0.17977,-0.99218 h -11.22297 -11.22296 l -0.17345,1.12448 c -0.71417,4.63015 -3.92561,9.18621 -7.38242,10.47342 l -1.37531,0.51212 -0.0789,1.94194 c -0.0893,2.19765 -0.48842,2.88137 -1.68187,2.88137 -0.414,0 -0.99086,-0.23812 -1.28191,-0.52917 -0.49349,-0.49349 -0.52916,-0.88194 -0.52916,-5.76196 0,-5.8865 0.13431,-6.40887 1.64781,-6.40887 1.35438,0 1.79177,0.6236 1.79177,2.55455 0,0.92333 0.1012,1.67878 0.22489,1.67878 0.48679,0 2.46112,-1.64754 3.20513,-2.67462 0.84582,-1.16761 1.68093,-3.20189 1.97045,-4.79986 l 0.17976,-0.99218 h -11.12449 -11.12449 v 52.3875 52.3875 h 40.87813 40.878124 z m -71.922144,43.61769 c -0.67006,-0.33167 -1.43934,-1.01003 -1.85209,-1.6332 -0.6934,-1.04691 -0.70754,-1.1558 -0.79389,-6.11321 -0.0956,-5.48796 0.0575,-6.48327 1.20709,-7.8495 1.2018,-1.42827 1.87327,-1.56345 7.76599,-1.56345 6.0137,0 6.62763,0.15853 7.92042,2.04524 0.65087,0.94988 0.65691,1.0126 0.65691,6.81951 v 5.86082 l -0.76303,1.00039 c -1.34858,1.76807 -2.2298,1.98871 -7.96822,1.99511 -4.61344,0.005 -5.12138,-0.0411 -6.17318,-0.56171 z m 11.11329,-3.30974 c 0.43392,-0.3927 0.48385,-0.91964 0.48385,-5.10646 0,-3.27833 -0.0946,-4.76312 -0.3175,-4.98607 -0.22306,-0.22307 -1.71265,-0.3175 -5.00818,-0.3175 -3.91148,0 -4.75975,0.0691 -5.10646,0.41577 -0.34523,0.34523 -0.41578,1.17573 -0.41578,4.89479 0,5.91765 -0.37562,5.53735 5.46928,5.53735 3.73312,0 4.48528,-0.0673 4.89479,-0.43788 z m 11.18745,0.31762 c -0.75084,-0.75084 -0.818,-1.37342 -0.23756,-2.20211 l 0.41188,-0.58804 h 20.21062 20.210622 l 0.41188,0.58804 c 0.60515,0.86397 0.50377,1.68252 -0.28526,2.30317 -0.69109,0.54361 -0.86795,0.54837 -20.384942,0.54837 h -19.68781 z m -0.10106,-8.51438 c -0.68955,-0.87661 -0.69528,-1.5372 -0.0192,-2.21327 0.51983,-0.51983 0.88195,-0.52917 20.50521,-0.52917 19.623272,0 19.985392,0.009 20.505212,0.52917 0.70239,0.70238 0.66941,1.62809 -0.0832,2.33513 l -0.61236,0.57528 H 73.366356 53.492716 Z M 30.833026,252.5168 c -1.19299,-0.62204 -1.74468,-1.19313 -2.28111,-2.3613 -0.41643,-0.90686 -0.48682,-1.77534 -0.4918,-6.06803 -0.007,-5.80565 0.25189,-6.75552 2.18868,-8.03849 1.05503,-0.69887 1.15218,-0.7115 6.11951,-0.79556 5.48666,-0.0928 6.49086,0.0612 7.84964,1.20459 1.4219,1.19645 1.56344,1.88559 1.56344,7.61207 0,5.6446 -0.13291,6.32223 -1.48876,7.58994 -1.23721,1.15678 -1.92283,1.27371 -7.45815,1.27198 -4.206,-10e-4 -5.36093,-0.0812 -6.00145,-0.4152 z m 11.23489,-3.53453 c 0.15751,-0.2943 0.27389,-2.39352 0.27389,-4.94011 0,-3.74931 -0.0671,-4.50252 -0.43788,-4.91218 -0.3912,-0.43227 -0.91303,-0.48385 -4.89479,-0.48385 -5.89202,0 -5.51525,-0.37364 -5.51525,5.46927 0,3.73312 0.0673,4.48528 0.43789,4.89479 0.39299,0.43425 0.92099,0.48385 5.15006,0.48385 4.38801,0 4.73103,-0.0352 4.98608,-0.51177 z m 10.87643,0.3438 c -0.70899,-0.90134 -0.6926,-1.45637 0.064,-2.16716 l 0.61237,-0.57528 h 19.84672 19.846722 l 0.57529,0.61236 c 0.7198,0.76619 0.73151,1.50142 0.0358,2.24816 l -0.53947,0.57906 H 73.439246 53.492716 Z m -0.0192,-8.29869 c -0.70784,-0.70785 -0.66711,-1.47361 0.12027,-2.26099 l 0.64943,-0.64943 h 19.73551 19.735522 l 0.64943,0.64943 c 0.78737,0.78738 0.82811,1.55314 0.12026,2.26099 -0.51982,0.51982 -0.88194,0.52916 -20.505212,0.52916 -19.62326,0 -19.98538,-0.009 -20.50521,-0.52916 z m -20.5052,-12.59623 c -0.29105,-0.0684 -0.78789,-0.17924 -1.10409,-0.24629 -0.90297,-0.19148 -2.23233,-1.45373 -2.76421,-2.62466 -0.41369,-0.91073 -0.48657,-1.78654 -0.49152,-5.90643 -0.006,-5.15933 0.1729,-6.11154 1.39588,-7.42136 1.20067,-1.28593 1.65209,-1.36782 7.51486,-1.36318 5.20444,0.004 5.55963,0.0364 6.54173,0.59531 0.6474,0.36841 1.27014,1.03009 1.65364,1.75705 0.58489,1.1087 0.61516,1.42846 0.61516,6.49664 v 5.33054 l -0.75806,1.19535 c -1.24442,1.96224 -2.01388,2.19565 -7.44402,2.25814 -2.54661,0.0293 -4.86833,-0.003 -5.15937,-0.0711 z m 9.48521,-3.77419 c 0.37579,-0.31251 0.43666,-1.01795 0.43666,-5.06084 0,-3.55793 -0.0844,-4.76772 -0.34774,-4.9863 -0.21938,-0.18207 -2.09496,-0.29949 -5.08133,-0.3181 -4.2447,-0.0265 -4.76898,0.0189 -5.07622,0.43906 -0.47662,0.65181 -0.48698,9.08011 -0.0119,9.67913 0.53481,0.67433 0.91456,0.72119 5.38417,0.66435 3.15705,-0.0402 4.37273,-0.14817 4.69636,-0.4173 z m 11.14026,0.63973 c -0.78738,-0.78737 -0.82811,-1.55314 -0.12027,-2.26098 0.51988,-0.51988 0.88195,-0.52917 20.6225,-0.52917 h 20.093332 l 0.41188,0.58804 c 0.58045,0.8287 0.51328,1.45128 -0.23755,2.20211 l -0.64943,0.64943 H 73.430356 53.694846 Z m 0,-8.73125 c -0.78738,-0.78737 -0.82811,-1.55314 -0.12027,-2.26098 0.51988,-0.51988 0.88195,-0.52917 20.6225,-0.52917 h 20.093332 l 0.41188,0.58804 c 0.58045,0.8287 0.51328,1.45128 -0.23755,2.20211 l -0.64943,0.64943 H 73.430356 53.694846 Z m -10.04237,-39.30229 c 0.27265,-0.44114 -0.62281,-3.44067 -1.46832,-4.91847 -3.05727,-5.34355 -8.71056,-5.04577 -11.59141,0.61056 -0.66116,1.29814 -1.41365,4.00641 -1.20637,4.34181 0.20367,0.32954 14.06184,0.29661 14.2661,-0.0339 z m 25.92105,-0.86026 c -0.47,-2.82399 -2.16283,-5.69959 -4.11633,-6.99235 -0.77266,-0.51133 -1.52304,-0.74827 -2.62133,-0.82771 -2.56908,-0.18583 -4.78434,1.34752 -6.31692,4.37241 -0.65991,1.30247 -1.40976,4.00791 -1.2034,4.34181 0.0783,0.12668 3.36047,0.23032 7.29374,0.23032 h 7.15139 z m 25.929172,0 c -0.47,-2.82399 -2.16284,-5.69959 -4.11633,-6.99235 -0.77266,-0.51133 -1.52305,-0.74827 -2.62134,-0.82771 -2.56907,-0.18583 -4.78433,1.34752 -6.31691,4.37241 -0.65991,1.30247 -1.40976,4.00791 -1.2034,4.34181 0.0783,0.12668 3.36047,0.23032 7.29374,0.23032 h 7.15139 z"
       id="path3842"
       inkscape:connector-curvature="0" />
  </g>
  <g
     inkscape:groupmode="layer"
     id="layer2"
     inkscape:label="view"
     style="opacity:0.99952607" />
</svg>
