<?xml version="1.0" encoding="UTF-8" standalone="no"?>
<!-- Created with Inkscape (http://www.inkscape.org/) -->

<svg
   xmlns:dc="http://purl.org/dc/elements/1.1/"
   xmlns:cc="http://creativecommons.org/ns#"
   xmlns:rdf="http://www.w3.org/1999/02/22-rdf-syntax-ns#"
   xmlns:svg="http://www.w3.org/2000/svg"
   xmlns="http://www.w3.org/2000/svg"
   xmlns:sodipodi="http://sodipodi.sourceforge.net/DTD/sodipodi-0.dtd"
   xmlns:inkscape="http://www.inkscape.org/namespaces/inkscape"
   width="500"
   height="500"
   viewBox="0 0 132.29166 132.29167"
   version="1.1"
   id="svg8"
   sodipodi:docname="search.svg"
   inkscape:version="0.92.4 (5da689c313, 2019-01-14)">
  <defs
     id="defs2" />
  <sodipodi:namedview
     id="base"
     pagecolor="#ffffff"
     bordercolor="#666666"
     borderopacity="1.0"
     inkscape:pageopacity="0.0"
     inkscape:pageshadow="2"
     inkscape:zoom="0.64"
     inkscape:cx="359.86524"
     inkscape:cy="985.44154"
     inkscape:document-units="mm"
     inkscape:current-layer="layer1-3"
     showgrid="false"
     units="px"
     inkscape:window-width="2880"
     inkscape:window-height="1586"
     inkscape:window-x="-11"
     inkscape:window-y="-11"
     inkscape:window-maximized="1" />
  <metadata
     id="metadata5">
    <rdf:RDF>
      <cc:Work
         rdf:about="">
        <dc:format>image/svg+xml</dc:format>
        <dc:type
           rdf:resource="http://purl.org/dc/dcmitype/StillImage" />
        <dc:title></dc:title>
      </cc:Work>
    </rdf:RDF>
  </metadata>
  <g
     inkscape:label="Calque 1"
     inkscape:groupmode="layer"
     id="layer1"
     transform="translate(0,-164.70832)">
    <g
       id="g38"
       transform="translate(-1140.413,-144.57434)">
      <g
         style="display:inline"
         transform="translate(0,-164.70832)"
         id="layer1-3"
         inkscape:label="Calque 1">
        <path
           inkscape:connector-curvature="0"
           id="path3828"
           d="m 1260.8514,606.11597 c -0.4104,-0.28742 -0.8163,-0.45244 -0.9021,-0.36668 -0.086,0.0857 -10.2296,-9.91877 -22.5418,-22.23228 -12.3123,-12.31351 -22.5899,-22.38821 -22.839,-22.38821 -0.2492,0 -1.324,0.55546 -2.3884,1.23434 -3.6536,2.33038 -5.0419,2.90672 -5.7046,2.36819 -0.505,-0.41038 -0.5581,-0.39116 -0.3625,0.13132 0.3171,0.8472 -2.4767,2.0192 -3.2612,1.36808 -0.2864,-0.23772 -0.636,-0.31704 -0.7767,-0.17629 -0.1408,0.14078 -0.013,0.4097 0.2843,0.59762 0.2971,0.18792 0.3667,0.34419 0.1546,0.3473 -0.2121,0.002 -0.5812,-0.18995 -0.8202,-0.42898 -0.239,-0.23903 -0.5565,-0.31267 -0.7055,-0.16367 -0.149,0.14901 -0.028,0.42468 0.2693,0.6126 0.7276,0.46016 0.1181,0.44766 -0.747,-0.0154 -0.46,-0.24616 -0.7636,-0.24616 -0.9157,0 -0.1252,0.20254 0.071,0.38131 0.4368,0.39726 0.4061,0.0177 0.4811,0.10255 0.1929,0.21834 -0.2592,0.10417 -0.7065,-0.006 -0.9938,-0.24423 -0.2874,-0.23849 -0.7253,-0.30823 -0.9733,-0.155 -0.3239,0.20017 -0.2508,0.36627 0.2594,0.59005 0.6826,0.29937 0.6816,0.30564 -0.024,0.16193 -0.404,-0.0822 -1.0238,-0.26856 -1.3772,-0.41408 -0.3683,-0.1516 -0.6428,-0.10243 -0.6428,0.11506 0,0.20877 0.2893,0.45519 0.6428,0.54757 0.5919,0.1547 0.59,0.17132 -0.024,0.21056 -0.3668,0.0235 -1.0043,-0.13797 -1.4167,-0.35868 -0.5423,-0.29021 -0.8609,-0.29021 -1.1511,0 -0.2902,0.29021 -0.1522,0.4093 0.4985,0.43028 0.4949,0.016 0.6947,0.11194 0.4439,0.21316 -0.2507,0.10139 -1.0331,-0.007 -1.7387,-0.2392 -0.7369,-0.24319 -1.637,-0.29969 -2.115,-0.1327 -0.7335,0.25621 -0.658,0.32153 0.637,0.55137 0.808,0.14339 0.3122,0.15338 -1.1018,0.0223 -1.414,-0.13118 -3.2319,-0.23851 -4.0399,-0.23851 -0.808,0 -2.6259,0.1073 -4.0399,0.23851 -1.4139,0.13116 -1.9097,0.12118 -1.1017,-0.0223 1.2949,-0.22984 1.3704,-0.29516 0.6369,-0.55137 -0.478,-0.16696 -1.3781,-0.11054 -2.1149,0.1327 -0.7056,0.23286 -1.4881,0.34051 -1.7388,0.2392 -0.2507,-0.10127 -0.051,-0.19721 0.4439,-0.21316 0.6508,-0.021 0.7887,-0.14007 0.4985,-0.43028 -0.2902,-0.29021 -0.6208,-0.28379 -1.1944,0.0232 -0.4363,0.23348 -1.0738,0.35059 -1.4167,0.26025 -0.5701,-0.15017 -0.5684,-0.1679 0.019,-0.20685 0.3535,-0.0234 0.6427,-0.22555 0.6427,-0.44915 0,-0.24315 -0.2583,-0.30021 -0.6427,-0.14198 -0.3535,0.14553 -0.9733,0.33188 -1.3772,0.41411 -0.7061,0.14369 -0.707,0.13742 -0.024,-0.16195 0.5102,-0.22377 0.5832,-0.38988 0.2593,-0.59005 -0.2479,-0.15323 -0.6859,-0.0834 -0.9732,0.155 -0.2874,0.23847 -0.7346,0.34838 -0.9939,0.24424 -0.2882,-0.11575 -0.2132,-0.20063 0.193,-0.21835 0.3654,-0.016 0.5619,-0.1947 0.4367,-0.39725 -0.1521,-0.24616 -0.4557,-0.24616 -0.9156,0 -0.8652,0.46299 -1.4746,0.47552 -0.7471,0.0154 0.2972,-0.18792 0.4184,-0.46358 0.2694,-0.6126 -0.149,-0.14901 -0.4665,-0.0753 -0.7056,0.16367 -0.2389,0.23903 -0.608,0.43206 -0.8201,0.42896 -0.2121,-0.002 -0.1425,-0.15938 0.1546,-0.34729 0.2972,-0.18791 0.4251,-0.45684 0.2844,-0.59761 -0.1408,-0.14076 -0.4903,-0.0615 -0.7768,0.17629 -0.7845,0.65112 -3.5783,-0.52089 -3.2611,-1.36809 0.1954,-0.52207 0.1422,-0.54152 -0.3615,-0.13215 -0.4966,0.40349 -0.8782,0.3343 -2.3949,-0.43428 -8.3886,-4.2508 -17.0026,-12.86479 -21.2534,-21.25336 -0.7685,-1.51669 -0.8377,-1.89829 -0.4343,-2.39482 0.4081,-0.50213 0.3905,-0.55718 -0.117,-0.36732 -0.8312,0.31093 -1.5712,-1.32605 -1.0444,-2.31037 0.2626,-0.49075 0.2632,-0.71351 10e-4,-0.71351 -0.2091,0 -0.3802,0.19281 -0.3802,0.42847 0,0.23565 -0.1062,0.32229 -0.236,0.1925 -0.1298,-0.12978 -0.024,-0.49185 0.236,-0.8046 0.2596,-0.31276 0.3568,-0.68382 0.216,-0.82458 -0.1408,-0.14076 -0.4097,-0.0125 -0.5976,0.28432 -0.1879,0.29714 -0.3442,0.36673 -0.3473,0.15463 0,-0.21209 0.1899,-0.58118 0.429,-0.82021 0.239,-0.23903 0.3126,-0.55651 0.1636,-0.70553 -0.149,-0.14902 -0.4247,-0.0278 -0.6126,0.26932 -0.4601,0.72763 -0.4476,0.11813 0.015,-0.74701 0.2462,-0.45996 0.2462,-0.76355 0,-0.91567 -0.2025,-0.12521 -0.3813,0.0714 -0.3972,0.43678 -0.018,0.40613 -0.1026,0.48113 -0.2184,0.19295 -0.1041,-0.25927 0.018,-0.72077 0.2705,-1.02554 0.3484,-0.41969 0.3568,-0.65721 0.035,-0.97925 -0.322,-0.32202 -0.4322,-0.25144 -0.4541,0.29101 -0.016,0.39389 -0.1093,0.51875 -0.2075,0.27745 -0.098,-0.24129 0.015,-0.79944 0.2506,-1.2403 0.3194,-0.59692 0.3224,-0.86749 0.011,-1.0597 -0.2297,-0.14196 -0.3109,-0.53621 -0.1805,-0.87613 0.1305,-0.33991 0.012,-0.88897 -0.2626,-1.22014 -0.3824,-0.46083 -0.4897,-2.0758 -0.4574,-6.88148 0.041,-6.09042 0.09,-6.6747 0.6684,-8.00625 0.1494,-0.34382 0.1532,-0.81678 0.01,-1.05104 -0.1447,-0.23425 -0.06,-0.55167 0.189,-0.70541 0.3495,-0.21599 0.3548,-0.46157 0.023,-1.08107 -0.2359,-0.44087 -0.3487,-0.99901 -0.2505,-1.24031 0.098,-0.24129 0.1915,-0.11646 0.2074,0.27745 0.022,0.54245 0.1322,0.61302 0.4542,0.29101 0.322,-0.32202 0.3136,-0.55956 -0.035,-0.97926 -0.2529,-0.30475 -0.3747,-0.76625 -0.2705,-1.02553 0.1157,-0.28819 0.2006,-0.21319 0.2183,0.19294 0.016,0.36541 0.1947,0.56199 0.3973,0.43681 0.2461,-0.15215 0.2461,-0.45572 0,-0.91569 -0.463,-0.8651 -0.4755,-1.47465 -0.015,-0.74702 0.1879,0.29714 0.4636,0.41834 0.6126,0.26933 0.149,-0.14901 0.075,-0.4665 -0.1637,-0.70553 -0.239,-0.23903 -0.4321,-0.60811 -0.429,-0.82022 0,-0.2121 0.1594,-0.1425 0.3473,0.15463 0.188,0.29715 0.4569,0.42509 0.5976,0.28433 0.1408,-0.14076 0.062,-0.49029 -0.1763,-0.77673 -0.6511,-0.78454 0.5209,-3.5783 1.3682,-3.26118 0.522,0.19543 0.5415,0.14223 0.1321,-0.3615 -0.4035,-0.49653 -0.3343,-0.87814 0.4343,-2.39484 4.2508,-8.38857 12.8648,-17.00255 21.2534,-21.25335 1.5167,-0.76857 1.8983,-0.83778 2.3948,-0.4343 0.5037,0.40936 0.5569,0.38992 0.3615,-0.13214 -0.3171,-0.84721 2.4767,-2.01921 3.2612,-1.36811 0.2864,0.23774 0.636,0.31706 0.7767,0.17629 0.1408,-0.14076 0.013,-0.40967 -0.2843,-0.59759 -0.2971,-0.18792 -0.3667,-0.34419 -0.1546,-0.3473 0.2121,-0.002 0.5812,0.18995 0.8201,0.42898 0.239,0.23903 0.5565,0.31266 0.7055,0.16365 0.149,-0.14901 0.028,-0.42469 -0.2693,-0.61259 -0.7275,-0.46017 -0.1181,-0.44765 0.747,0.0154 0.46,0.24617 0.7635,0.24617 0.9157,0 0.1252,-0.20253 -0.071,-0.3813 -0.4368,-0.39724 -0.4061,-0.0177 -0.4811,-0.10255 -0.193,-0.21836 0.2593,-0.10405 0.7208,0.0176 1.0256,0.27051 0.4197,0.34832 0.6572,0.35675 0.9792,0.0348 0.3221,-0.32204 0.2515,-0.4322 -0.291,-0.45415 -0.3939,-0.016 -0.5187,-0.10927 -0.2774,-0.20745 0.2413,-0.0981 0.7994,0.0146 1.2403,0.25055 0.4764,0.25496 0.8944,0.291 1.0303,0.0889 0.3173,-0.47189 1.6125,-0.92638 1.3279,-0.46599 -0.2543,0.41159 0.2963,0.49788 0.6866,0.10752 0.494,-0.49401 1.5722,-0.57832 7.3958,-0.57832 5.8235,0 6.9018,0.0842 7.3958,0.57832 0.3903,0.39031 0.9409,0.30403 0.6865,-0.10752 -0.2845,-0.46039 1.0106,-0.006 1.328,0.46599 0.1359,0.20216 0.5539,0.16613 1.0303,-0.0889 0.4409,-0.23595 0.999,-0.3487 1.2403,-0.25055 0.2413,0.0982 0.1165,0.1915 -0.2774,0.20745 -0.5425,0.0219 -0.6131,0.13215 -0.2911,0.45415 0.3221,0.32202 0.5596,0.31359 0.9793,-0.0348 0.3048,-0.25292 0.7663,-0.37466 1.0255,-0.27051 0.2882,0.11575 0.2132,0.20064 -0.1929,0.21836 -0.3654,0.016 -0.562,0.19471 -0.4368,0.39724 0.1521,0.24617 0.4557,0.24617 0.9157,0 0.8651,-0.46298 1.4746,-0.4755 0.747,-0.0154 -0.2971,0.1879 -0.4184,0.46358 -0.2693,0.61259 0.149,0.14901 0.4665,0.0754 0.7055,-0.16365 0.239,-0.23903 0.6081,-0.43207 0.8202,-0.42898 0.2121,0.002 0.1425,0.15938 -0.1546,0.3473 -0.2972,0.18792 -0.4251,0.45683 -0.2843,0.59759 0.1407,0.14077 0.4902,0.0615 0.7767,-0.17629 0.7845,-0.6511 3.5783,0.5209 3.2612,1.36811 -0.1955,0.52207 -0.1423,0.54151 0.3615,0.13214 0.4965,-0.40348 0.8781,-0.33427 2.3948,0.4343 8.3886,4.2508 17.0025,12.86478 21.2534,21.25335 0.7685,1.5167 0.8377,1.89831 0.4342,2.39484 -0.4093,0.50373 -0.3899,0.55693 0.1322,0.3615 0.8472,-0.31712 2.0192,2.47664 1.3681,3.26118 -0.2377,0.28644 -0.3171,0.63597 -0.1763,0.77673 0.1408,0.14076 0.4097,0.0125 0.5976,-0.28433 0.1879,-0.29713 0.3442,-0.36673 0.3473,-0.15463 0,0.21211 -0.19,0.58119 -0.429,0.82022 -0.239,0.23903 -0.3127,0.55652 -0.1636,0.70553 0.149,0.14901 0.4246,0.0278 0.6126,-0.26933 0.4601,-0.72763 0.4476,-0.11813 -0.015,0.74702 -0.2462,0.45997 -0.2462,0.76354 0,0.91569 0.2025,0.1252 0.3813,-0.0714 0.3972,-0.43681 0.018,-0.40613 0.1026,-0.48113 0.2184,-0.19294 0.1041,0.25928 -0.01,0.70652 -0.2443,0.99388 -0.2385,0.28734 -0.3082,0.72531 -0.155,0.97324 0.2002,0.32387 0.3663,0.25087 0.5901,-0.25935 0.2993,-0.68262 0.3056,-0.68167 0.1619,0.0244 -0.082,0.40399 -0.2686,1.02374 -0.4141,1.37723 -0.1582,0.38439 -0.1012,0.64271 0.142,0.64271 0.2236,0 0.4196,-0.28922 0.4355,-0.64271 0.02,-0.44038 0.091,-0.48678 0.2263,-0.14741 0.1086,0.27241 -0.017,0.89551 -0.2786,1.38464 -0.3657,0.68327 -0.3756,0.98977 -0.043,1.32267 0.3329,0.33287 0.44,0.22476 0.4623,-0.46651 0.016,-0.49488 0.1118,-0.69466 0.2131,-0.44392 0.1014,0.25074 -0.01,1.03317 -0.2392,1.73873 -0.2432,0.7369 -0.2997,1.63698 -0.1327,2.11495 0.2563,0.73383 0.3217,0.65863 0.5534,-0.63693 0.1445,-0.80799 0.1575,-0.22955 0.029,1.28541 -0.2872,3.38322 -0.286,4.61211 0.01,7.89612 0.1264,1.41397 0.1108,1.90975 -0.035,1.10179 -0.2334,-1.2961 -0.2987,-1.37109 -0.5552,-0.63696 -0.1669,0.47799 -0.1104,1.37808 0.1327,2.11497 0.2329,0.70557 0.3405,1.488 0.2393,1.73872 -0.1014,0.25073 -0.1973,0.051 -0.2132,-0.44391 -0.022,-0.69128 -0.1294,-0.79938 -0.4623,-0.4665 -0.3329,0.33288 -0.323,0.63939 0.043,1.32265 0.2618,0.48915 0.3872,1.11224 0.2786,1.38465 -0.1352,0.33938 -0.2064,0.29297 -0.2263,-0.14741 -0.016,-0.35348 -0.2119,-0.64271 -0.4355,-0.64271 -0.2432,0 -0.3002,0.25833 -0.142,0.64271 0.1455,0.35349 0.3319,0.97324 0.4141,1.37723 0.1437,0.70604 0.1374,0.70697 -0.1619,0.0245 -0.2238,-0.51024 -0.3899,-0.58324 -0.5901,-0.25935 -0.1532,0.24792 -0.084,0.68588 0.155,0.97323 0.2385,0.28736 0.3484,0.73459 0.2443,0.99389 -0.1158,0.28818 -0.2007,0.21317 -0.2184,-0.19297 -0.016,-0.3654 -0.1947,-0.56196 -0.3972,-0.43679 -0.2462,0.15215 -0.2462,0.45572 0,0.91569 0.4629,0.86511 0.4755,1.47465 0.015,0.74702 -0.188,-0.29715 -0.4636,-0.41834 -0.6126,-0.26933 -0.149,0.14901 -0.075,0.46651 0.1636,0.70554 0.239,0.23902 0.4321,0.60811 0.429,0.82021 0,0.21209 -0.1594,0.14251 -0.3473,-0.15464 -0.1879,-0.29714 -0.4568,-0.42508 -0.5976,-0.28431 -0.1408,0.14076 -0.044,0.51182 0.216,0.82457 0.2596,0.31276 0.3657,0.67483 0.236,0.8046 -0.1298,0.12979 -0.236,0.0432 -0.236,-0.1925 0,-0.23567 -0.1711,-0.42847 -0.3802,-0.42847 -0.2615,0 -0.2609,0.22275 0,0.71352 0.5268,0.9843 -0.2132,2.62129 -1.0444,2.31037 -0.5079,-0.19002 -0.5253,-0.13506 -0.1162,0.36834 0.5385,0.66266 -0.038,2.05097 -2.3682,5.70461 -0.6789,1.06439 -1.2343,2.13913 -1.2343,2.38833 0,0.2492 10.0711,10.52319 22.3802,22.8311 12.3092,12.3079 22.3554,22.47136 22.325,22.58545 -0.03,0.11413 0.1454,0.56925 0.3909,1.01147 0.2901,0.52273 0.3174,0.88368 0.078,1.03165 -0.2025,0.1252 -0.3683,0.0962 -0.3683,-0.0644 0,-0.16061 -2.2222,1.92563 -4.9383,4.6361 -2.716,2.71047 -4.8618,5.05182 -4.7684,5.20301 0.3416,0.55269 -0.4775,0.64778 -1.203,0.13963 z m -23.2489,-23.22692 c -15.02,-15.08334 -22.8222,-22.66872 -23.2968,-22.64951 -0.3924,0.016 -0.7784,0.22351 -0.8577,0.46137 -0.079,0.23786 -0.2965,0.33833 -0.4826,0.22327 -0.1862,-0.11506 -0.4373,0.0483 -0.558,0.36286 -0.1208,0.31465 -0.3675,0.48063 -0.5483,0.36886 -0.1809,-0.11169 -0.3288,-0.0281 -0.3288,0.18574 0,0.21391 -0.2479,0.38894 -0.5509,0.38894 -0.303,0 -0.5509,0.17502 -0.5509,0.38894 0,0.21392 -0.1653,0.2868 -0.3673,0.16196 -0.202,-0.12479 -0.3672,-0.0422 -0.3672,0.18362 0,0.22585 -0.1653,0.30847 -0.3673,0.18363 -0.202,-0.12478 -0.3672,-0.0422 -0.3672,0.18364 0,0.22583 -0.1653,0.30847 -0.3673,0.18364 -0.202,-0.12479 -0.3673,-0.0422 -0.3673,0.18362 0,0.22583 -0.1652,0.30848 -0.3672,0.18363 -0.202,-0.12478 -0.3673,-0.0422 -0.3673,0.18363 0,0.22585 -0.1653,0.30847 -0.3673,0.18364 -0.2019,-0.1248 -0.3672,-0.0519 -0.3672,0.16195 0,0.21392 0.089,0.38894 0.1982,0.38894 0.367,0 3.2751,-1.56121 5.226,-2.80554 1.0644,-0.67889 2.1392,-1.23435 2.3884,-1.23435 0.2491,0 10.5333,10.08134 22.8537,22.40295 12.3204,12.32162 22.4823,22.40296 22.5821,22.40296 0.1,0 -9.981,-10.20528 -22.4018,-22.67839 z m 11.4791,-11.20259 c -12.3715,-12.37274 -22.4936,-22.69875 -22.4936,-22.94672 0,-0.24795 0.5555,-1.32169 1.2344,-2.38609 1.2443,-1.95088 2.8055,-4.85901 2.8055,-5.22597 0,-0.10892 -0.175,-0.19826 -0.389,-0.19826 -0.2139,0 -0.2868,0.16527 -0.1619,0.36726 0.1248,0.20199 0.042,0.36727 -0.1836,0.36727 -0.2259,0 -0.3085,0.16527 -0.1837,0.36725 0.1248,0.202 0.042,0.36727 -0.1836,0.36727 -0.2258,0 -0.3085,0.16527 -0.1836,0.36726 0.1248,0.202 0.042,0.36726 -0.1837,0.36726 -0.2258,0 -0.3084,0.16527 -0.1836,0.36725 0.1248,0.202 0.042,0.36728 -0.1836,0.36728 -0.2259,0 -0.3085,0.16527 -0.1837,0.36725 0.1248,0.202 0.052,0.36727 -0.1619,0.36727 -0.2139,0 -0.389,0.2479 -0.389,0.55089 0,0.30299 -0.175,0.55088 -0.3889,0.55088 -0.2139,0 -0.2975,0.14796 -0.1857,0.32879 0.1117,0.18082 -0.054,0.42756 -0.3689,0.5483 -0.3146,0.12076 -0.4779,0.37184 -0.3629,0.55801 0.1151,0.18617 0,0.40745 -0.2506,0.49175 -0.2528,0.0842 -0.4605,0.43099 -0.4613,0.77045 0,0.52345 44.8318,45.77794 45.3541,45.78037 0.1003,3.8e-4 -9.9396,-10.12229 -22.3112,-22.49502 z m -77.95,-5.78326 c 0,-0.20199 -0.073,-0.36726 -0.1619,-0.36726 -0.089,0 -0.2641,0.16527 -0.389,0.36726 -0.1248,0.202 -0.052,0.36726 0.162,0.36726 0.2139,0 0.3889,-0.16526 0.3889,-0.36726 z m 32.6862,0.2053 c 0,-0.0891 -0.1653,-0.26409 -0.3673,-0.38892 -0.202,-0.12479 -0.3672,-0.0519 -0.3672,0.16194 0,0.21392 0.1652,0.38894 0.3672,0.38894 0.202,0 0.3673,-0.0729 0.3673,-0.16196 z m -33.788,-0.59423 c 0,-0.21392 -0.1652,-0.28681 -0.3672,-0.16197 -0.202,0.1248 -0.3673,0.0422 -0.3673,-0.18363 0,-0.22583 -0.1829,-0.29755 -0.4064,-0.15939 -0.2834,0.17513 -0.2556,0.34684 0.092,0.56694 0.675,0.42771 1.0491,0.40561 1.0491,-0.0619 z m 35.2044,0.0619 c 0.3474,-0.22011 0.3752,-0.39183 0.092,-0.56695 -0.2235,-0.13811 -0.4064,-0.0665 -0.4064,0.1594 0,0.22583 -0.1653,0.30847 -0.3673,0.18362 -0.202,-0.12478 -0.3672,-0.0519 -0.3672,0.16197 0,0.46756 0.3741,0.48965 1.0491,0.0619 z m -37.7752,-1.16376 c 0,-0.2139 -0.1653,-0.2868 -0.3672,-0.16195 -0.202,0.12478 -0.3673,0.0422 -0.3673,-0.18363 0,-0.22584 -0.1653,-0.30847 -0.3673,-0.18363 -0.202,0.12479 -0.3672,0.0422 -0.3672,-0.18362 0,-0.22584 -0.1653,-0.30847 -0.3673,-0.18363 -0.202,0.12479 -0.3673,0.0422 -0.3673,-0.18365 0,-0.22582 -0.1652,-0.30847 -0.3672,-0.18363 -0.202,0.12479 -0.3673,0.0422 -0.3673,-0.18362 0,-0.22584 -0.1653,-0.30848 -0.3672,-0.18363 -0.202,0.12478 -0.3673,0.0519 -0.3673,-0.16196 0,-0.21391 -0.2479,-0.38893 -0.5509,-0.38893 -0.303,0 -0.5509,-0.17503 -0.5509,-0.38895 0,-0.21391 -0.148,-0.2975 -0.3288,-0.18574 -0.1808,0.1117 -0.4276,-0.0542 -0.5483,-0.36886 -0.1208,-0.31462 -0.3686,-0.4799 -0.5509,-0.36726 -0.1822,0.11262 -0.4301,-0.0526 -0.5509,-0.36726 -0.1207,-0.31463 -0.3686,-0.4799 -0.5509,-0.36727 -0.1822,0.11263 -0.4301,-0.0526 -0.5509,-0.36725 -0.1207,-0.31464 -0.3678,-0.48038 -0.5492,-0.3683 -0.1813,0.11205 -0.5988,-0.20697 -0.9277,-0.70894 -0.3289,-0.50197 -0.7188,-0.87999 -0.8665,-0.84004 -0.3507,0.0949 -6.8677,-6.4221 -6.7728,-6.77286 0.04,-0.14765 -0.3381,-0.53759 -0.8401,-0.8665 -0.5019,-0.3289 -0.821,-0.74637 -0.7089,-0.92769 0.112,-0.18132 -0.054,-0.42847 -0.3683,-0.54921 -0.3146,-0.12076 -0.4799,-0.36863 -0.3673,-0.55089 0.1128,-0.18226 -0.053,-0.43015 -0.3672,-0.55089 -0.3146,-0.12076 -0.4799,-0.36863 -0.3673,-0.5509 0.1127,-0.18226 -0.053,-0.43015 -0.3672,-0.55089 -0.3147,-0.12076 -0.4807,-0.36747 -0.3689,-0.5483 0.1117,-0.18082 0.028,-0.32878 -0.1857,-0.32878 -0.214,0 -0.389,-0.24789 -0.389,-0.55088 0,-0.30299 -0.175,-0.5509 -0.3889,-0.5509 -0.2139,0 -0.2868,-0.16526 -0.162,-0.36726 0.1248,-0.20199 0.042,-0.36725 -0.1836,-0.36725 -0.2258,0 -0.3085,-0.16528 -0.1836,-0.36728 0.1247,-0.20198 0.042,-0.36725 -0.1837,-0.36725 -0.2258,0 -0.3084,-0.16527 -0.1836,-0.36726 0.1248,-0.20199 0.042,-0.36727 -0.1836,-0.36727 -0.2259,0 -0.3085,-0.16526 -0.1837,-0.36726 0.1248,-0.20199 0.042,-0.36725 -0.1836,-0.36725 -0.2258,0 -0.3085,-0.16528 -0.1836,-0.36728 0.1248,-0.20198 0.052,-0.36725 -0.162,-0.36725 -0.626,0 -0.478,0.41234 1.2142,3.3818 4.7526,8.33974 10.5473,14.13446 18.8871,18.88707 2.9695,1.69222 3.3818,1.84027 3.3818,1.21418 z m -14.1745,-9.61893 -0.6996,-0.82634 0.8263,0.69963 c 0.7766,0.65749 0.9936,0.95305 0.6997,0.95305 -0.07,0 -0.4416,-0.37185 -0.8264,-0.82634 z m 36.9446,-1.00997 c 0.3748,-0.24221 -0.6817,-0.35601 -3.3053,-0.35601 -2.6237,0 -3.6802,0.11378 -3.3054,0.35601 0.303,0.19581 1.7904,0.35601 3.3054,0.35601 1.5149,0 3.0023,-0.1602 3.3053,-0.35601 z m -3.3053,-0.55089 c 2.1209,0 4.3107,0.14187 4.8662,0.31526 0.6559,0.20476 1.0099,0.18153 1.0099,-0.0662 0,-0.20986 -0.3718,-0.45316 -0.8263,-0.5407 -0.7624,-0.14685 -0.7539,-0.16303 0.1102,-0.20917 0.5151,-0.0275 1.1349,0.1483 1.3773,0.3907 0.3427,0.34277 0.5386,0.34277 0.8814,0 0.3428,-0.34279 0.2815,-0.44715 -0.2755,-0.46971 -0.3939,-0.016 -0.5187,-0.10927 -0.2774,-0.20745 0.2413,-0.0981 0.7684,-0.002 1.1713,0.21361 0.4852,0.25965 0.8095,0.26771 0.9602,0.0239 0.1252,-0.20253 -0.071,-0.38128 -0.4368,-0.39724 -0.4061,-0.0177 -0.4811,-0.10255 -0.1929,-0.21836 0.2592,-0.10405 0.7177,0.0152 1.0188,0.26497 0.3011,0.24988 0.6626,0.33916 0.8033,0.19839 0.1408,-0.14076 0.013,-0.40969 -0.2843,-0.59761 -0.2971,-0.18791 -0.3667,-0.3442 -0.1546,-0.34729 0.2121,-0.002 0.5653,0.17404 0.7849,0.39364 0.2875,0.28751 0.4683,0.28751 0.646,0 0.1357,-0.2196 0.03,-0.40429 -0.234,-0.41043 -0.288,-0.007 -0.2153,-0.16561 0.1812,-0.39628 0.469,-0.27284 0.8074,-0.26438 1.1609,0.029 0.3493,0.28987 0.5715,0.29679 0.7407,0.0231 0.1329,-0.2151 0.3955,-0.29601 0.5836,-0.17978 0.188,0.11618 0.3418,0.0265 0.3418,-0.19932 0,-0.22583 0.1653,-0.30847 0.3673,-0.18363 0.202,0.12478 0.3673,0.0422 0.3673,-0.18363 0,-0.22584 0.1652,-0.30848 0.3672,-0.18364 0.202,0.1248 0.3673,0.0519 0.3673,-0.16194 0,-0.21392 0.2479,-0.38894 0.5509,-0.38894 0.303,0 0.5509,-0.16806 0.5509,-0.37345 0,-0.20541 -0.8209,0.0425 -1.8241,0.55088 -2.6416,1.33857 -2.7921,1.12005 -0.1959,-0.28422 6.26,-3.38596 10.2796,-7.40554 13.6656,-13.66552 1.4042,-2.59623 1.6227,-2.44568 0.2842,0.19584 -0.5084,1.00326 -0.7563,1.8241 -0.5509,1.8241 0.2054,0 0.3734,-0.2479 0.3734,-0.5509 0,-0.30299 0.1751,-0.55088 0.389,-0.55088 0.2139,0 0.2868,-0.16527 0.1619,-0.36726 -0.1248,-0.20199 -0.042,-0.36727 0.1837,-0.36727 0.2258,0 0.3084,-0.16526 0.1836,-0.36726 -0.1248,-0.20199 -0.042,-0.36725 0.1836,-0.36725 0.2258,0 0.3155,-0.15386 0.1993,-0.34189 -0.1161,-0.18805 -0.035,-0.45066 0.1798,-0.58358 0.2738,-0.1692 0.2669,-0.39141 -0.023,-0.74068 -0.3071,-0.37011 -0.3072,-0.66992 -3e-4,-1.16091 0.3663,-0.58583 0.3879,-0.56693 0.1879,0.16441 -0.1371,0.50158 -0.063,0.82633 0.1878,0.82633 0.2275,0 0.3186,-0.15385 0.2024,-0.34188 -0.1162,-0.18804 -0.035,-0.45065 0.1798,-0.58359 0.2711,-0.1676 0.2569,-0.40332 -0.046,-0.76877 -0.2406,-0.28991 -0.3313,-0.63326 -0.2015,-0.76304 0.1298,-0.12979 0.236,-0.0334 0.236,0.21418 0,0.24758 0.1733,0.34303 0.385,0.21214 0.2644,-0.16339 0.2535,-0.39658 -0.035,-0.74385 -0.2309,-0.27822 -0.3346,-0.71798 -0.2304,-0.97727 0.1158,-0.28818 0.2006,-0.21317 0.2183,0.19296 0.016,0.36541 0.1947,0.56196 0.3973,0.43679 0.2439,-0.15074 0.2358,-0.47501 -0.024,-0.96019 -0.2157,-0.40294 -0.3118,-0.93002 -0.2136,-1.17131 0.098,-0.24129 0.1915,-0.11646 0.2074,0.27744 0.023,0.55702 0.1269,0.61823 0.4697,0.27544 0.3428,-0.34277 0.3428,-0.53864 0,-0.88143 -0.2424,-0.24238 -0.4182,-0.86215 -0.3907,-1.37721 0.046,-0.86407 0.062,-0.8726 0.2092,-0.1102 0.088,0.45448 0.3308,0.82633 0.5407,0.82633 0.2478,0 0.271,-0.35399 0.066,-1.00996 -0.4087,-1.30938 -0.4087,-8.42304 0,-9.73242 0.2047,-0.65597 0.1815,-1.00997 -0.066,-1.00997 -0.2099,0 -0.4532,0.37186 -0.5407,0.82634 -0.1468,0.76241 -0.163,0.75387 -0.2092,-0.1102 -0.027,-0.51506 0.1483,-1.13483 0.3907,-1.37721 0.3428,-0.34279 0.3428,-0.53866 0,-0.88143 -0.3428,-0.34279 -0.4471,-0.28158 -0.4697,0.27544 -0.016,0.39389 -0.1092,0.51873 -0.2074,0.27744 -0.098,-0.24129 0,-0.76838 0.2136,-1.17132 0.2645,-0.49415 0.2703,-0.80787 0.018,-0.96389 -0.2058,-0.12714 -0.2862,-0.37372 -0.1786,-0.5478 0.1075,-0.17407 0.01,-0.43124 -0.217,-0.57145 -0.2887,-0.17846 -0.3469,0.11687 -0.1939,0.98459 0.2127,1.20637 0.2079,1.21218 -0.1791,0.21723 -0.2907,-0.74747 -0.2848,-1.15832 0.022,-1.52816 0.2932,-0.35324 0.3019,-0.57877 0.029,-0.74756 -0.2151,-0.13299 -0.296,-0.39555 -0.1798,-0.58359 0.1163,-0.18807 0.025,-0.34193 -0.2023,-0.34193 -0.2511,0 -0.3249,0.32478 -0.1878,0.82636 0.2,0.73131 0.1783,0.75022 -0.1879,0.16438 -0.3069,-0.49099 -0.3068,-0.79078 3e-4,-1.1609 0.2899,-0.34926 0.2968,-0.57147 0.023,-0.74066 -0.2151,-0.13297 -0.296,-0.39556 -0.1798,-0.58359 0.1162,-0.18804 0.026,-0.34188 -0.1993,-0.34188 -0.2258,0 -0.3085,-0.16528 -0.1836,-0.36728 0.1248,-0.20198 0.042,-0.36725 -0.1837,-0.36725 -0.2258,0 -0.3084,-0.16526 -0.1836,-0.36726 0.1248,-0.20199 0.052,-0.36726 -0.1619,-0.36726 -0.214,0 -0.389,-0.2479 -0.389,-0.55089 0,-0.30299 -0.168,-0.5509 -0.3734,-0.5509 -0.2054,0 0.043,0.82085 0.5509,1.8241 1.3385,2.64151 1.12,2.79208 -0.2843,0.19584 -3.3859,-6.25999 -7.4055,-10.27957 -13.6655,-13.66552 -2.5962,-1.40427 -2.4457,-1.62278 0.1959,-0.28423 1.0032,0.50839 1.8241,0.75629 1.8241,0.5509 0,-0.2054 -0.2479,-0.37344 -0.5509,-0.37344 -0.303,0 -0.5509,-0.17503 -0.5509,-0.38895 0,-0.21392 -0.1653,-0.2868 -0.3673,-0.16196 -0.202,0.12479 -0.3673,0.0422 -0.3673,-0.18362 0,-0.22584 -0.1652,-0.30848 -0.3672,-0.18363 -0.202,0.12478 -0.3673,0.0422 -0.3673,-0.18363 0,-0.22585 -0.1538,-0.31554 -0.3419,-0.19931 -0.188,0.11618 -0.4506,0.0352 -0.5835,-0.1798 -0.1692,-0.27376 -0.3915,-0.26685 -0.7407,0.0231 -0.3535,0.29338 -0.6919,0.30184 -1.1609,0.029 -0.3965,-0.23068 -0.4692,-0.38958 -0.1812,-0.39627 0.2644,-0.006 0.3697,-0.19085 0.234,-0.41044 -0.1777,-0.28749 -0.3585,-0.28749 -0.646,0 -0.2196,0.21959 -0.5728,0.39673 -0.7849,0.39364 -0.2121,-0.002 -0.1425,-0.15938 0.1546,-0.34729 0.2971,-0.18792 0.4251,-0.45683 0.2843,-0.5976 -0.1407,-0.14076 -0.5022,-0.0514 -0.8033,0.19838 -0.3011,0.24988 -0.7596,0.36911 -1.0189,0.26496 -0.2881,-0.11575 -0.2131,-0.20063 0.193,-0.21836 0.3654,-0.016 0.562,-0.1947 0.4368,-0.39723 -0.1508,-0.24389 -0.475,-0.23586 -0.9602,0.0239 -0.4029,0.21566 -0.93,0.31179 -1.1713,0.21364 -0.2413,-0.0981 -0.1165,-0.1915 0.2774,-0.20746 0.557,-0.0226 0.6182,-0.12701 0.2755,-0.4697 -0.3428,-0.34277 -0.5387,-0.34277 -0.8815,0 -0.2423,0.2424 -0.8621,0.41821 -1.3772,0.3907 -0.864,-0.0461 -0.8726,-0.0623 -0.1102,-0.20917 0.4545,-0.0876 0.8263,-0.33087 0.8263,-0.5407 0,-0.2478 -0.354,-0.27103 -1.0099,-0.0662 -1.3094,0.40873 -8.4231,0.40873 -9.7325,0 -0.6559,-0.20476 -1.0099,-0.18152 -1.0099,0.0662 0,0.20983 0.3718,0.45315 0.8263,0.5407 0.7624,0.14684 0.7539,0.16302 -0.1102,0.20917 -0.5151,0.0275 -1.1348,-0.1483 -1.3772,-0.3907 -0.3428,-0.34277 -0.5387,-0.34277 -0.8815,0 -0.3427,0.34276 -0.2815,0.44715 0.2755,0.4697 0.3939,0.016 0.5187,0.10927 0.2774,0.20746 -0.2413,0.0981 -0.7684,10e-4 -1.1713,-0.21364 -0.4851,-0.25965 -0.8094,-0.26768 -0.9602,-0.0239 -0.1252,0.20253 0.071,0.38128 0.4368,0.39723 0.4062,0.0177 0.4812,0.10255 0.193,0.21836 -0.2593,0.10405 -0.7178,-0.0152 -1.0189,-0.26496 -0.301,-0.24987 -0.6626,-0.33914 -0.8033,-0.19838 -0.1408,0.14077 -0.012,0.40968 0.2843,0.5976 0.2971,0.18791 0.3667,0.3442 0.1546,0.34729 -0.2121,0.002 -0.5653,-0.17405 -0.7849,-0.39364 -0.2875,-0.28749 -0.4683,-0.28749 -0.646,0 -0.1357,0.21959 -0.03,0.40429 0.234,0.41044 0.288,0.007 0.2153,0.16559 -0.1812,0.39627 -0.4689,0.27284 -0.8074,0.26438 -1.1609,-0.029 -0.3492,-0.28987 -0.5715,-0.29678 -0.7406,-0.0231 -0.133,0.21509 -0.3956,0.296 -0.5836,0.1798 -0.1881,-0.11619 -0.3419,-0.0265 -0.3419,0.19931 0,0.22583 -0.1653,0.30847 -0.3673,0.18363 -0.202,-0.1248 -0.3671,-0.0422 -0.3671,0.18363 0,0.22583 -0.1653,0.30847 -0.3673,0.18362 -0.202,-0.12478 -0.3673,-0.0519 -0.3673,0.16196 0,0.21392 -0.2479,0.38895 -0.5508,0.38895 -0.303,0 -0.5509,0.16804 -0.5509,0.37344 0,0.20539 0.8208,-0.0424 1.8241,-0.5509 2.6414,-1.33855 2.7919,-1.12004 0.1957,0.28423 -6.2599,3.38595 -10.2795,7.40553 -13.6655,13.66552 -1.4042,2.59624 -1.6227,2.44567 -0.2842,-0.19584 0.5084,-1.00325 0.7563,-1.8241 0.5509,-1.8241 -0.2054,0 -0.3734,0.24791 -0.3734,0.5509 0,0.30299 -0.1751,0.55089 -0.389,0.55089 -0.2139,0 -0.2868,0.16527 -0.1619,0.36726 0.1248,0.202 0.042,0.36726 -0.1837,0.36726 -0.2258,0 -0.3084,0.16527 -0.1836,0.36725 0.1248,0.202 0.042,0.36728 -0.1836,0.36728 -0.2259,0 -0.3156,0.15384 -0.1993,0.34188 0.1161,0.18803 0.035,0.45065 -0.1798,0.58359 -0.2738,0.16919 -0.2669,0.3914 0.023,0.74066 0.3071,0.37012 0.3072,0.66991 3e-4,1.1609 -0.3663,0.58584 -0.3879,0.56693 -0.1879,-0.16438 0.1371,-0.50158 0.063,-0.82636 -0.1878,-0.82636 -0.2275,0 -0.3186,0.15386 -0.2024,0.34189 0.1162,0.18804 0.035,0.45064 -0.1798,0.58358 -0.2731,0.16879 -0.2644,0.39433 0.029,0.74757 0.307,0.36983 0.3129,0.7807 0.022,1.52815 -0.387,0.99496 -0.3918,0.98915 -0.179,-0.21723 0.153,-0.86768 0.095,-1.16305 -0.194,-0.98459 -0.2269,0.14024 -0.3245,0.39739 -0.2169,0.57148 0.1076,0.17407 0.027,0.42058 -0.1786,0.5478 -0.2525,0.15602 -0.2467,0.46973 0.018,0.96389 0.2156,0.40292 0.3117,0.93001 0.2136,1.1713 -0.098,0.2413 -0.1915,0.11646 -0.2075,-0.27744 -0.023,-0.55701 -0.1268,-0.61821 -0.4697,-0.27545 -0.3427,0.34277 -0.3427,0.53866 0,0.88143 0.2424,0.2424 0.4182,0.86215 0.3907,1.37724 -0.046,0.86406 -0.062,0.87259 -0.2091,0.11019 -0.088,-0.45449 -0.3309,-0.82634 -0.5407,-0.82634 -0.2478,0 -0.2711,0.35401 -0.066,1.00996 0.4087,1.30941 0.4087,8.42305 0,9.73244 -0.2048,0.65598 -0.1816,1.00997 0.066,1.00997 0.2098,0 0.4531,-0.37185 0.5407,-0.82634 0.1468,-0.76241 0.163,-0.75388 0.2091,0.11019 0.027,0.51509 -0.1483,1.13484 -0.3907,1.37724 -0.3427,0.34277 -0.3427,0.53865 0,0.88143 0.3428,0.34277 0.4472,0.28155 0.4697,-0.27545 0.016,-0.39389 0.1093,-0.51874 0.2075,-0.27745 0.098,0.2413 10e-4,0.76838 -0.2136,1.17131 -0.2645,0.49417 -0.2703,0.80787 -0.018,0.96389 0.2058,0.12729 0.2862,0.37373 0.1786,0.54781 -0.1076,0.17408 -0.01,0.43123 0.2169,0.57146 0.2888,0.17847 0.347,-0.11688 0.194,-0.98459 -0.2128,-1.20636 -0.208,-1.21218 0.179,-0.21723 0.2908,0.74748 0.2848,1.15832 -0.022,1.52817 -0.2931,0.35323 -0.3018,0.57877 -0.029,0.74755 0.2151,0.13297 0.296,0.39556 0.1798,0.58358 -0.1162,0.18805 -0.025,0.34189 0.2024,0.34189 0.2511,0 0.3249,-0.32476 0.1878,-0.82635 -0.2,-0.73132 -0.1784,-0.75021 0.1879,-0.16439 0.3069,0.49099 0.3068,0.79079 -3e-4,1.16089 -0.2899,0.34927 -0.2968,0.57149 -0.023,0.74068 0.2151,0.13299 0.296,0.39555 0.1798,0.5836 -0.1162,0.18802 -0.026,0.34187 0.1993,0.34187 0.2258,0 0.3084,0.16527 0.1836,0.36727 -0.1248,0.20198 -0.042,0.36726 0.1836,0.36726 0.2259,0 0.3085,0.16527 0.1837,0.36726 -0.1248,0.20199 -0.052,0.36726 0.1619,0.36726 0.2139,0 0.389,0.24791 0.389,0.5509 0,0.30298 0.168,0.55089 0.3734,0.55089 0.2054,0 -0.043,-0.82084 -0.5509,-1.82411 -1.3385,-2.6415 -1.12,-2.79206 0.2842,-0.19582 3.386,6.25997 7.4056,10.27955 13.6655,13.66551 2.5962,1.40427 2.4457,1.62278 -0.1957,0.28422 -1.0033,-0.50838 -1.8241,-0.75628 -1.8241,-0.55088 0,0.20539 0.2479,0.37345 0.5509,0.37345 0.3029,0 0.5508,0.17502 0.5508,0.38893 0,0.21392 0.1653,0.28679 0.3673,0.16196 0.202,-0.12479 0.3673,-0.0422 0.3673,0.18364 0,0.22582 0.1651,0.30847 0.3671,0.18362 0.202,-0.12479 0.3673,-0.0422 0.3673,0.18363 0,0.22584 0.1538,0.31552 0.3419,0.19931 0.188,-0.11618 0.4506,-0.0352 0.5836,0.1798 0.1691,0.27374 0.3914,0.26684 0.7406,-0.0231 0.3535,-0.2934 0.692,-0.30186 1.1609,-0.029 0.3965,0.23068 0.4692,0.38959 0.1812,0.39629 -0.2644,0.006 -0.3697,0.19082 -0.234,0.41042 0.1777,0.28751 0.3585,0.28751 0.646,0 0.2196,-0.2196 0.5728,-0.39673 0.7849,-0.39364 0.2121,0.002 0.1425,0.15938 -0.1546,0.34729 -0.2971,0.18792 -0.4251,0.45685 -0.2843,0.59761 0.1407,0.14077 0.5023,0.0516 0.8033,-0.19839 0.3011,-0.24986 0.7596,-0.3691 1.0189,-0.26496 0.2882,0.11576 0.2132,0.20062 -0.193,0.21835 -0.3654,0.016 -0.5619,0.19472 -0.4368,0.39725 0.1508,0.24388 0.4751,0.23584 0.9602,-0.0239 0.4029,-0.21565 0.93,-0.31177 1.1713,-0.21363 0.2413,0.0981 0.1165,0.1915 -0.2774,0.20746 -0.557,0.0226 -0.6182,0.127 -0.2755,0.4697 0.3428,0.34278 0.5387,0.34278 0.8815,0 0.2424,-0.24238 0.8621,-0.41821 1.3772,-0.39069 0.8641,0.0461 0.8726,0.0623 0.1102,0.20917 -0.4545,0.0876 -0.8263,0.33085 -0.8263,0.54068 0,0.2478 0.354,0.27105 1.0099,0.0663 0.5555,-0.17336 2.7453,-0.31524 4.8663,-0.31524 z m -11.5688,-1.65268 c 0.1248,-0.20198 0.052,-0.36726 -0.1619,-0.36726 -0.2139,0 -0.389,0.16528 -0.389,0.36726 0,0.202 0.073,0.36727 0.162,0.36727 0.089,0 0.2641,-0.16527 0.3889,-0.36727 z m 23.6884,0 c 0,-0.20198 -0.175,-0.36726 -0.3889,-0.36726 -0.214,0 -0.2868,0.16528 -0.162,0.36726 0.1248,0.202 0.2999,0.36727 0.3889,0.36727 0.089,0 0.162,-0.16527 0.162,-0.36727 z m -30.5459,-3.95787 c -2.4209,-1.61885 -6.0801,-5.29317 -7.7691,-7.80124 -0.6988,-1.03766 -1.3699,-1.72585 -1.4914,-1.52932 -0.1214,0.19652 0.037,0.4561 0.3512,0.57684 0.3147,0.12076 0.4799,0.36863 0.3673,0.55088 -0.1126,0.18227 0.053,0.43017 0.3673,0.5509 0.3146,0.12077 0.4743,0.37765 0.3548,0.57095 -0.1195,0.19328 0.1164,0.52992 0.524,0.74808 0.4076,0.21815 0.7015,0.53063 0.653,0.6944 -0.1151,0.3887 4.1615,4.66528 4.5502,4.5502 0.1638,-0.0484 0.4763,0.24535 0.6944,0.65298 0.2182,0.40764 0.5548,0.64342 0.7481,0.52396 0.1933,-0.11951 0.4502,0.0402 0.5709,0.35486 0.1208,0.31465 0.3687,0.47992 0.5509,0.36728 0.1823,-0.11263 0.4302,0.0526 0.5509,0.36725 0.1208,0.31464 0.3803,0.4727 0.5769,0.35124 0.1965,-0.12146 -0.5232,-0.80963 -1.5994,-1.52926 z m 36.4062,0.82631 c 0.1684,0.10405 0.405,-0.0681 0.5257,-0.38282 0.1208,-0.31462 0.3777,-0.47431 0.5709,-0.35486 0.1933,0.11952 0.53,-0.11632 0.7481,-0.52396 0.2182,-0.40763 0.5307,-0.70148 0.6944,-0.65298 0.3887,0.11505 4.6653,-4.1615 4.5502,-4.5502 -0.048,-0.16377 0.2454,-0.47625 0.653,-0.6944 0.4077,-0.21816 0.6434,-0.5548 0.524,-0.74808 -0.1195,-0.1933 0.04,-0.45022 0.3548,-0.57095 0.3147,-0.12076 0.4799,-0.36863 0.3673,-0.5509 -0.1126,-0.18225 0.053,-0.43015 0.3673,-0.55088 0.3146,-0.12076 0.4726,-0.38032 0.3512,-0.57684 -0.1215,-0.19653 -0.7926,0.49166 -1.4914,1.52932 -1.6815,2.49687 -5.345,6.18031 -7.7389,7.78094 -1.0596,0.70847 -1.8125,1.40221 -1.6731,1.54163 0.1395,0.13942 0.3968,-0.002 0.5719,-0.31538 0.1751,-0.31289 0.4562,-0.48372 0.6246,-0.37964 z m -61.3167,-8.98809 c 0,-0.202 -0.175,-0.36728 -0.3889,-0.36728 -0.214,0 -0.2869,-0.16525 -0.162,-0.36725 0.1248,-0.202 0.052,-0.36725 -0.162,-0.36725 -0.4505,0 -0.4689,0.0987 -0.166,0.8881 0.2459,0.64078 0.8789,0.79465 0.8789,0.21368 z m 87.9197,-0.21368 c 0.303,-0.78941 0.2845,-0.8881 -0.166,-0.8881 -0.2139,0 -0.2868,0.16525 -0.1619,0.36725 0.1248,0.202 0.052,0.36725 -0.162,0.36725 -0.2139,0 -0.3889,0.16528 -0.3889,0.36728 0,0.58097 0.633,0.4271 0.8788,-0.21368 z m -76.5346,-17.80377 c 0,-2.12451 -0.1327,-3.24499 -0.3673,-3.10005 -0.4046,0.25006 -0.5143,5.79031 -0.1224,6.18222 0.4566,0.45658 0.4897,0.24807 0.4897,-3.08217 z m 64.6379,0.0217 c 0,-1.59211 -0.1652,-2.99689 -0.3672,-3.12172 -0.2346,-0.14499 -0.3673,0.98277 -0.3673,3.12172 0,2.13895 0.1327,3.2667 0.3673,3.12171 0.202,-0.12478 0.3672,-1.52962 0.3672,-3.12171 z m -76.7575,-16.32151 c 0,-0.0891 -0.1653,-0.26409 -0.3673,-0.38893 -0.202,-0.12479 -0.3673,-0.0519 -0.3673,0.16195 0,0.21392 0.1653,0.38895 0.3673,0.38895 0.202,0 0.3673,-0.0729 0.3673,-0.16197 z m 89.2444,-0.20531 c 0,-0.20198 -0.073,-0.36725 -0.1619,-0.36725 -0.089,0 -0.2641,0.16527 -0.389,0.36725 -0.1247,0.202 -0.052,0.36728 0.162,0.36728 0.2139,0 0.3889,-0.16528 0.3889,-0.36728 z m -67.7664,-6.0666 c 1.2609,-1.26093 3.1546,-2.87309 4.2081,-3.58259 1.0536,-0.70952 1.7548,-1.38939 1.5583,-1.51086 -0.1966,-0.12146 -0.4561,0.0366 -0.5769,0.35123 -0.1207,0.31463 -0.3686,0.47991 -0.5509,0.36727 -0.1822,-0.11263 -0.4301,0.0526 -0.5509,0.36725 -0.1207,0.31464 -0.3776,0.47433 -0.5709,0.35487 -0.1933,-0.11951 -0.5333,0.12257 -0.7555,0.5379 -0.2223,0.41531 -0.5281,0.6785 -0.6796,0.58487 -0.3569,-0.22059 -4.9073,4.35651 -4.6183,4.64544 0.1205,0.12048 -0.1302,0.40606 -0.5572,0.63454 -0.4269,0.2285 -0.6785,0.5736 -0.5591,0.76688 0.1195,0.19328 -0.04,0.45022 -0.3548,0.57095 -0.3147,0.12076 -0.4799,0.36863 -0.3673,0.55089 0.1126,0.18225 -0.053,0.43017 -0.3673,0.55089 -0.3146,0.12077 -0.4726,0.38031 -0.3512,0.57684 0.1215,0.19652 0.8014,-0.50469 1.5109,-1.55823 0.7095,-1.05356 2.3216,-2.94721 3.5826,-4.20814 z m 49.9937,5.25869 c -0.3332,-0.18645 -0.5206,-0.4768 -0.4165,-0.64522 0.1041,-0.16842 -0.068,-0.40498 -0.3829,-0.52572 -0.3146,-0.12076 -0.4743,-0.37767 -0.3548,-0.57095 0.1195,-0.19328 -0.1322,-0.53838 -0.5591,-0.76688 -0.4269,-0.22848 -0.6777,-0.51402 -0.5572,-0.63454 0.289,-0.28893 -4.2613,-4.86603 -4.6183,-4.64544 -0.1514,0.0937 -0.4573,-0.16956 -0.6795,-0.58487 -0.2223,-0.4153 -0.5623,-0.65736 -0.7556,-0.5379 -0.1932,0.11951 -0.4502,-0.0402 -0.5709,-0.35487 -0.1208,-0.31463 -0.3686,-0.4799 -0.5509,-0.36725 -0.1823,0.11251 -0.4301,-0.0526 -0.5509,-0.36727 -0.1208,-0.31463 -0.3803,-0.47269 -0.5768,-0.35123 -0.1965,0.12147 0.5232,0.80801 1.5993,1.52568 2.3734,1.58271 6.4429,5.68988 7.865,7.93771 0.5722,0.90452 1.1922,1.5508 1.3776,1.43617 0.1855,-0.11471 0.065,-0.36096 -0.2685,-0.54742 z m -71.2687,-0.2625 c -0.1143,-0.18473 0,-0.41001 0.2538,-0.50061 0.2537,-0.0906 0.3284,-0.30651 0.1659,-0.47982 -0.1625,-0.17328 -0.4492,-0.0721 -0.6371,0.22519 -0.4524,0.71539 -0.44,1.09114 0.036,1.09114 0.2139,0 0.2955,-0.15116 0.1814,-0.3359 z m 88.6685,0.0604 c -0.013,-0.60288 -0.7066,-1.33708 -0.9843,-1.04088 -0.1625,0.17331 -0.088,0.38922 0.1659,0.47982 0.2538,0.0906 0.368,0.31588 0.2538,0.50061 -0.1141,0.18474 -0.033,0.3359 0.1813,0.3359 0.2139,0 0.3864,-0.12395 0.3833,-0.27545 z m -87.5861,-2.66268 c -0.1248,-0.20199 -0.042,-0.36725 0.1836,-0.36725 0.2258,0 0.3085,-0.16528 0.1836,-0.36728 -0.1247,-0.20198 -0.042,-0.36725 0.1837,-0.36725 0.2258,0 0.3084,-0.16526 0.1836,-0.36726 -0.1248,-0.20199 -0.042,-0.36727 0.1836,-0.36727 0.2259,0 0.3085,-0.16526 0.1837,-0.36726 -0.1248,-0.20198 -0.042,-0.36725 0.1836,-0.36725 0.2258,0 0.3085,-0.16528 0.1836,-0.36728 -0.1248,-0.20198 -0.052,-0.36725 0.162,-0.36725 0.2139,0 0.3889,-0.24789 0.3889,-0.55088 0,-0.303 0.175,-0.55091 0.389,-0.55091 0.2139,0 0.2974,-0.14794 0.1857,-0.32877 -0.1118,-0.18083 0.054,-0.42756 0.3689,-0.54831 0.3146,-0.12076 0.4799,-0.36863 0.3672,-0.55088 -0.1127,-0.18226 0.053,-0.43015 0.3673,-0.5509 0.3146,-0.12076 0.4799,-0.36863 0.3672,-0.55088 -0.1125,-0.18226 0.053,-0.43016 0.3673,-0.55091 0.3146,-0.12076 0.4804,-0.36787 0.3683,-0.54919 -0.112,-0.18132 0.207,-0.59879 0.7089,-0.9277 0.502,-0.32891 0.88,-0.71883 0.8401,-0.86651 -0.095,-0.35075 6.4221,-6.86772 6.7728,-6.77285 0.1477,0.04 0.5376,-0.33806 0.8665,-0.84005 0.3289,-0.50196 0.7464,-0.82099 0.9277,-0.70892 0.1814,0.11205 0.4285,-0.0538 0.5492,-0.3683 0.1208,-0.31464 0.3687,-0.4799 0.5509,-0.36725 0.1823,0.11251 0.4302,-0.0526 0.5509,-0.36728 0.1208,-0.31462 0.3687,-0.4799 0.5509,-0.36725 0.1823,0.11251 0.4302,-0.0526 0.5509,-0.36726 0.1208,-0.31464 0.3675,-0.48062 0.5483,-0.36887 0.1808,0.1117 0.3288,0.0282 0.3288,-0.18574 0,-0.21392 0.2479,-0.38894 0.5509,-0.38894 0.303,0 0.5509,-0.17502 0.5509,-0.38893 0,-0.21392 0.1653,-0.28679 0.3673,-0.16195 0.2019,0.12479 0.3672,0.0422 0.3672,-0.18365 0,-0.22582 0.1653,-0.30847 0.3673,-0.18363 0.202,0.12479 0.3672,0.0422 0.3672,-0.18362 0,-0.22584 0.1653,-0.30847 0.3673,-0.18363 0.202,0.12479 0.3673,0.0422 0.3673,-0.18363 0,-0.22583 0.1652,-0.30847 0.3672,-0.18362 0.202,0.12478 0.3673,0.0422 0.3673,-0.18365 0,-0.22583 0.1653,-0.30847 0.3673,-0.18363 0.2019,0.12479 0.3672,0.0519 0.3672,-0.16196 0,-0.62606 -0.4123,-0.47803 -3.3818,1.21419 -8.3398,4.75262 -14.1345,10.54735 -18.8871,18.88707 -1.6922,2.96948 -1.8402,3.3818 -1.2142,3.3818 0.2139,0 0.2868,-0.16526 0.162,-0.36726 z m 9.1815,-13.58867 c 0.3656,-0.40398 0.7474,-0.73452 0.8484,-0.73452 0.101,0 -0.1155,0.33054 -0.4811,0.73452 -0.3656,0.40399 -0.7474,0.73452 -0.8484,0.73452 -0.101,0 0.1155,-0.33053 0.4811,-0.73452 z m 77.3085,13.6716 c 0,-0.15639 -0.7214,-1.55025 -1.6031,-3.09747 -4.7526,-8.33972 -10.5474,-14.13445 -18.8871,-18.88707 -2.9695,-1.69222 -3.3818,-1.84025 -3.3818,-1.21419 0,0.21392 0.1653,0.2868 0.3672,0.16196 0.202,-0.12479 0.3673,-0.0422 0.3673,0.18363 0,0.22584 0.1653,0.30847 0.3673,0.18365 0.202,-0.1248 0.3672,-0.0422 0.3672,0.18362 0,0.22583 0.1653,0.30847 0.3673,0.18363 0.202,-0.12479 0.3673,-0.0422 0.3673,0.18363 0,0.22583 0.1652,0.30847 0.3672,0.18362 0.202,-0.12478 0.3673,-0.0422 0.3673,0.18363 0,0.22585 0.1652,0.30847 0.3672,0.18365 0.202,-0.12478 0.3673,-0.0519 0.3673,0.16195 0,0.21391 0.2479,0.38893 0.5509,0.38893 0.303,0 0.5509,0.17502 0.5509,0.38894 0,0.21392 0.1479,0.29749 0.3288,0.18574 0.1808,-0.1117 0.4275,0.0542 0.5483,0.36887 0.1207,0.31463 0.3686,0.4799 0.5508,0.36726 0.1823,-0.11263 0.4302,0.0526 0.5509,0.36725 0.1208,0.31464 0.3687,0.47991 0.5509,0.36728 0.1823,-0.11263 0.4302,0.0526 0.5509,0.36725 0.1208,0.31463 0.3679,0.48037 0.5492,0.3683 0.1814,-0.11204 0.5988,0.20696 0.9277,0.70892 0.3289,0.50199 0.7189,0.88002 0.8665,0.84005 0.3508,-0.0949 6.8678,6.4221 6.7729,6.77285 -0.04,0.14768 0.338,0.5376 0.84,0.86651 0.502,0.32891 0.821,0.74638 0.709,0.9277 -0.112,0.18132 0.054,0.42846 0.3683,0.54919 0.3146,0.12077 0.4799,0.36865 0.3672,0.55091 -0.1125,0.18225 0.053,0.43014 0.3673,0.55088 0.3146,0.12076 0.4799,0.36864 0.3672,0.5509 -0.1125,0.18225 0.053,0.43015 0.3673,0.55088 0.3147,0.12077 0.4806,0.36748 0.3689,0.54831 -0.1118,0.18083 -0.028,0.32877 0.1857,0.32877 0.2139,0 0.3889,0.24791 0.3889,0.55091 0,0.30299 0.1751,0.55088 0.389,0.55088 0.2139,0 0.2868,0.16527 0.1619,0.36725 -0.1247,0.202 -0.042,0.36728 0.1837,0.36728 0.2258,0 0.3084,0.16527 0.1836,0.36725 -0.1248,0.202 -0.042,0.36726 0.1836,0.36726 0.2259,0 0.3085,0.16528 0.1837,0.36727 -0.1248,0.202 -0.042,0.36726 0.1836,0.36726 0.2258,0 0.3085,0.16527 0.1836,0.36725 -0.1248,0.202 -0.042,0.36728 0.1837,0.36728 0.2258,0 0.3084,0.16526 0.1836,0.36725 -0.1248,0.202 -0.052,0.36726 0.1619,0.36726 0.214,0 0.389,-0.12798 0.389,-0.28433 z m -10.1346,-13.76341 -0.6996,-0.82634 0.8263,0.69963 c 0.7766,0.65748 0.9935,0.95304 0.6996,0.95304 -0.07,0 -0.4415,-0.37185 -0.8263,-0.82633 z m -44.9546,3.96974 c 0,-0.0891 -0.1653,-0.2641 -0.3673,-0.38895 -0.202,-0.12478 -0.3673,-0.0519 -0.3673,0.16197 0,0.21391 0.1653,0.38892 0.3673,0.38892 0.202,0 0.3673,-0.0729 0.3673,-0.16194 z m 23.5047,-0.20532 c 0,-0.20199 -0.073,-0.36725 -0.162,-0.36725 -0.089,0 -0.2641,0.16526 -0.3889,0.36725 -0.1248,0.202 -0.052,0.36726 0.162,0.36726 0.2139,0 0.3889,-0.16526 0.3889,-0.36726 z m -8.8143,-2.20356 c -0.303,-0.1958 -1.7904,-0.35602 -3.3053,-0.35602 -1.515,0 -3.0024,0.16022 -3.3054,0.35602 -0.3748,0.24221 0.6817,0.35601 3.3054,0.35601 2.6236,0 3.6801,-0.11379 3.3053,-0.35601 z m -20.5352,-11.9166 c 0.1848,0.11413 0.3359,0.0148 0.3359,-0.22063 0,-0.23961 -0.2558,-0.33004 -0.5809,-0.20531 -0.3195,0.12257 -0.6598,0.22292 -0.7562,0.22292 -0.096,0 -0.053,0.19844 0.097,0.441 0.2118,0.34262 0.3055,0.34211 0.4203,-0.002 0.081,-0.24381 0.2989,-0.34986 0.4837,-0.23568 z m 35.5403,-0.2433 c -0.675,-0.42771 -1.0491,-0.40561 -1.0491,0.0619 0,0.21392 0.1652,0.2868 0.3672,0.16196 0.202,-0.12479 0.3673,-0.0422 0.3673,0.18364 0,0.22583 0.1829,0.29756 0.4064,0.1594 0.2834,-0.17512 0.2556,-0.34686 -0.092,-0.56694 z m -34.1026,-0.32698 c 0,-0.20199 -0.175,-0.36726 -0.3889,-0.36726 -0.2139,0 -0.2868,0.16527 -0.162,0.36726 0.1248,0.202 0.2999,0.36726 0.389,0.36726 0.089,0 0.1619,-0.16526 0.1619,-0.36726 z m 32.5026,0 c 0.1248,-0.20199 0.052,-0.36726 -0.162,-0.36726 -0.2139,0 -0.3889,0.16527 -0.3889,0.36726 0,0.202 0.073,0.36726 0.1619,0.36726 0.089,0 0.2641,-0.16526 0.389,-0.36726 z m 63.3526,124.68527 c 2.5188,-2.52493 4.6623,-4.59077 4.7633,-4.59077 0.1011,0 -1.8772,2.06584 -4.3961,4.59077 -2.5188,2.52491 -4.6624,4.59076 -4.7633,4.59076 -0.1011,0 1.8772,-2.06585 4.3961,-4.59076 z m -81.2648,-32.03319 c 0.652,-0.0811 1.8088,-0.0825 2.5708,-0.002 0.762,0.0795 0.2286,0.14587 -1.1854,0.1475 -1.414,10e-4 -2.0374,-0.0634 -1.3854,-0.14455 z m 49.4306,-47.84618 c 0,-1.31296 0.067,-1.85009 0.1481,-1.1936 0.082,0.65648 0.082,1.73071 0,2.38719 -0.082,0.65648 -0.1481,0.11938 -0.1481,-1.19359 z"
           style="fill:#ffc800;stroke-width:0.36726141;fill-opacity:1" />
      </g>
      <g
         style="opacity:0.99952608"
         inkscape:label="view"
         id="layer2" />
    </g>
  </g>
</svg>
