<?xml version="1.0" encoding="UTF-8" standalone="no"?>
<!-- Created with Inkscape (http://www.inkscape.org/) -->

<svg
   xmlns:dc="http://purl.org/dc/elements/1.1/"
   xmlns:cc="http://creativecommons.org/ns#"
   xmlns:rdf="http://www.w3.org/1999/02/22-rdf-syntax-ns#"
   xmlns:svg="http://www.w3.org/2000/svg"
   xmlns="http://www.w3.org/2000/svg"
   xmlns:sodipodi="http://sodipodi.sourceforge.net/DTD/sodipodi-0.dtd"
   xmlns:inkscape="http://www.inkscape.org/namespaces/inkscape"
   width="500"
   height="500"
   viewBox="0 0 132.29166 132.29167"
   version="1.1"
   id="svg8"
   sodipodi:docname="filtrer.svg"
   inkscape:version="0.92.4 (5da689c313, 2019-01-14)">
  <defs
     id="defs2" />
  <sodipodi:namedview
     id="base"
     pagecolor="#ffffff"
     bordercolor="#666666"
     borderopacity="1.0"
     inkscape:pageopacity="0.0"
     inkscape:pageshadow="2"
     inkscape:zoom="0.64"
     inkscape:cx="359.86524"
     inkscape:cy="985.44154"
     inkscape:document-units="mm"
     inkscape:current-layer="layer1-3"
     showgrid="false"
     units="px"
     inkscape:window-width="2880"
     inkscape:window-height="1586"
     inkscape:window-x="-11"
     inkscape:window-y="-11"
     inkscape:window-maximized="1" />
  <metadata
     id="metadata5">
    <rdf:RDF>
      <cc:Work
         rdf:about="">
        <dc:format>image/svg+xml</dc:format>
        <dc:type
           rdf:resource="http://purl.org/dc/dcmitype/StillImage" />
        <dc:title></dc:title>
      </cc:Work>
    </rdf:RDF>
  </metadata>
  <g
     inkscape:label="Calque 1"
     inkscape:groupmode="layer"
     id="layer1"
     transform="translate(0,-164.70832)">
    <g
       id="g38"
       transform="translate(-1140.413,-144.57434)">
      <g
         style="display:inline"
         transform="translate(0,-164.70832)"
         id="layer1-3"
         inkscape:label="Calque 1">
        <g
           style="display:inline;fill:#ffc800;fill-opacity:1"
           transform="translate(1140.499,308.92856)"
           id="layer1-7"
           inkscape:label="Calque 1">
          <path
             inkscape:connector-curvature="0"
             id="path4049"
             d="m 37.439259,296.97316 c -6.756355,-1.22068 -12.59079,-6.24266 -14.906422,-12.83067 l -0.448444,-1.27583 -9.334431,-0.0466 -9.3344398,-0.0466 -0.3159036,-0.39023 c -0.2927441,-0.36164 -0.3159035,-0.70261 -0.3159035,-4.65135 0,-3.94881 0.023178,-4.28972 0.3159222,-4.65135 l 0.315916,-0.39023 9.3409497,-0.0453 9.340954,-0.0453 0.355318,-1.09983 c 0.93361,-2.88984 2.486538,-5.38578 4.774376,-7.67362 3.020104,-3.0201 6.544259,-4.85111 10.604228,-5.50953 9.32847,-1.51283 18.401824,3.82188 21.564102,12.67871 l 0.546129,1.52958 34.358165,0.0836 c 18.897005,0.046 34.371475,0.10178 34.387695,0.12397 0.0162,0.0221 0.14641,0.15723 0.28928,0.3001 0.39014,0.39014 0.39014,9.00821 0,9.39835 -0.14287,0.14288 -0.27304,0.27774 -0.28928,0.29972 -0.0163,0.022 -15.4901,0.0778 -34.386365,0.12397 l -34.35684,0.084 -0.53549,1.42326 c -2.518319,6.69333 -8.148507,11.43887 -14.957832,12.60757 -1.900122,0.32611 -5.216781,0.32776 -7.011684,0.004 z m 6.338298,-9.76062 c 3.194916,-0.89099 5.726633,-3.43834 6.711688,-6.75315 0.395744,-1.33172 0.395744,-3.79251 0,-5.12423 -0.80361,-2.70422 -2.567081,-4.85869 -4.938931,-6.03398 -2.526456,-1.25191 -5.125537,-1.40342 -7.747673,-0.45163 -3.700102,1.34306 -6.257118,5.04048 -6.257118,9.04773 0,6.37394 6.105744,11.02375 12.232034,9.31526 z m 43.72125,-36.75102 c -1.925653,-0.41624 -3.109824,-0.84841 -5.041581,-1.8399 -4.230833,-2.17154 -7.627834,-5.9733 -9.24538,-10.34701 -0.295724,-0.7996 -0.594709,-1.5654 -0.664419,-1.70176 -0.111942,-0.219 -4.147666,-0.25282 -34.563067,-0.28966 l -34.436329,-0.0417 -0.3821579,-0.35902 c -0.3804399,-0.35741 -0.382158,-0.37843 -0.382158,-4.67943 0,-4.11944 0.015681,-4.33724 0.3370387,-4.68217 L 3.4577863,226.1591 H 37.895686 c 27.352837,0 34.471571,-0.0425 34.601562,-0.20662 0.09002,-0.11365 0.294494,-0.61574 0.454397,-1.11576 0.159898,-0.50002 0.667524,-1.64875 1.128044,-2.55274 2.690874,-5.282 7.41254,-8.91342 13.381876,-10.29196 0.877926,-0.20275 1.960657,-0.27471 4.087035,-0.27161 2.57399,0.004 3.067279,0.0509 4.477102,0.4278 4.796668,1.28243 8.418068,3.69058 11.195018,7.44442 0.95915,1.29655 2.14206,3.53423 2.68482,5.0788 0.20765,0.59094 0.44848,1.1674 0.53517,1.28105 0.12271,0.16086 2.16099,0.20662 9.20314,0.20662 8.55322,0 9.06041,0.0164 9.31909,0.30229 0.2404,0.26564 0.27356,0.84571 0.27356,4.78426 0,4.44417 -0.003,4.48415 -0.36737,4.7393 -0.32153,0.2252 -1.48462,0.25732 -9.31909,0.25732 -6.96388,0 -8.98805,0.0459 -9.11537,0.20663 -0.09,0.11363 -0.2951,0.61573 -0.45574,1.11575 -1.10212,3.43058 -3.75744,7.08925 -6.85424,9.44425 -1.53835,1.16986 -4.722293,2.70209 -6.699806,3.22419 -1.418489,0.37452 -2.063334,0.44447 -4.545687,0.49323 -2.397718,0.0471 -3.147283,0.002 -4.38039,-0.26478 z m 6.28131,-9.67431 c 4.360749,-0.91556 7.539663,-4.79667 7.581263,-9.25596 0.026,-2.79334 -0.86775,-5.03162 -2.779724,-6.96102 -6.069258,-6.12458 -16.455028,-1.83539 -16.455028,6.79574 0,6.17872 5.586398,10.69505 11.653489,9.42124 z m -29.17504,-36.55225 c -4.504563,-0.42272 -9.162194,-2.69371 -12.260438,-5.97801 -1.964018,-2.08197 -3.510208,-4.59326 -4.287779,-6.96415 -0.195889,-0.59728 -0.429754,-1.17896 -0.519698,-1.2926 -0.129357,-0.16344 -4.748061,-0.20662 -22.099082,-0.20662 H 3.5025369 l -0.3594108,-0.38257 c -0.349996,-0.37256 -0.359411,-0.49517 -0.359411,-4.68217 0,-4.2785 0.00187,-4.30136 0.3819268,-4.65841 l 0.3819268,-0.3588 21.9713543,-0.042 21.971346,-0.0419 0.504541,-1.40503 c 1.328022,-3.69826 3.62219,-6.88247 6.546066,-9.08569 2.929989,-2.20782 5.627798,-3.33786 9.320357,-3.90408 2.044549,-0.31352 3.524738,-0.29042 5.727666,0.0894 4.341413,0.74849 7.836487,2.57584 10.811228,5.65246 2.187691,2.26262 3.577604,4.47816 4.546961,7.24793 0.206816,0.59093 0.446963,1.16742 0.533654,1.28106 0.124674,0.16343 4.656978,0.20662 21.683128,0.20662 20.64362,0 21.53671,0.0124 21.79907,0.30228 0.24036,0.2656 0.27356,0.84495 0.27356,4.7734 0,3.95719 -0.0314,4.49718 -0.27333,4.69797 -0.22746,0.18879 -3.9069,0.24073 -21.92796,0.30951 l -21.654665,0.0827 -0.366577,1.07443 c -0.611822,1.79326 -1.197397,2.97106 -2.302332,4.63079 -2.86526,4.30396 -7.294487,7.29187 -12.347963,8.32978 -1.310338,0.26913 -4.455941,0.44596 -5.758596,0.32373 z m 5.321998,-10.19635 c 3.195576,-1.21744 5.433222,-3.8193 6.182999,-7.18941 1.096344,-4.92785 -2.133224,-10.07768 -7.118022,-11.3503 -1.251924,-0.31962 -3.338437,-0.31846 -4.700531,0.002 -3.304303,0.7789 -6.164066,3.61101 -7.028116,6.96017 -0.327174,1.26816 -0.335271,3.65294 -0.01649,4.85243 0.912656,3.43402 3.548003,6.06784 7.027553,7.02351 1.418647,0.38964 4.236208,0.24059 5.652598,-0.29902 z"
             style="fill:#ffc800;fill-opacity:1;stroke-width:0.16529775" />
        </g>
      </g>
      <g
         style="opacity:0.99952608"
         inkscape:label="view"
         id="layer2" />
    </g>
  </g>
</svg>
