<?xml version="1.0" encoding="UTF-8" standalone="no"?>
<!-- Created with Inkscape (http://www.inkscape.org/) -->

<svg
   xmlns:dc="http://purl.org/dc/elements/1.1/"
   xmlns:cc="http://creativecommons.org/ns#"
   xmlns:rdf="http://www.w3.org/1999/02/22-rdf-syntax-ns#"
   xmlns:svg="http://www.w3.org/2000/svg"
   xmlns="http://www.w3.org/2000/svg"
   xmlns:sodipodi="http://sodipodi.sourceforge.net/DTD/sodipodi-0.dtd"
   xmlns:inkscape="http://www.inkscape.org/namespaces/inkscape"
   width="500"
   height="500"
   viewBox="0 0 132.29166 132.29167"
   version="1.1"
   id="svg8"
   sodipodi:docname="home.svg"
   inkscape:version="0.92.4 (5da689c313, 2019-01-14)">
  <defs
     id="defs2" />
  <sodipodi:namedview
     id="base"
     pagecolor="#ffffff"
     bordercolor="#666666"
     borderopacity="1.0"
     inkscape:pageopacity="0.0"
     inkscape:pageshadow="2"
     inkscape:zoom="0.64"
     inkscape:cx="697.16884"
     inkscape:cy="500.76602"
     inkscape:document-units="mm"
     inkscape:current-layer="layer1-3"
     showgrid="false"
     units="px"
     inkscape:window-width="2880"
     inkscape:window-height="1586"
     inkscape:window-x="-11"
     inkscape:window-y="-11"
     inkscape:window-maximized="1" />
  <metadata
     id="metadata5">
    <rdf:RDF>
      <cc:Work
         rdf:about="">
        <dc:format>image/svg+xml</dc:format>
        <dc:type
           rdf:resource="http://purl.org/dc/dcmitype/StillImage" />
        <dc:title></dc:title>
      </cc:Work>
    </rdf:RDF>
  </metadata>
  <g
     inkscape:label="Calque 1"
     inkscape:groupmode="layer"
     id="layer1"
     transform="translate(0,-164.70832)">
    <g
       id="g38"
       transform="translate(-1140.413,-144.57434)">
      <g
         style="display:inline"
         transform="translate(0,-164.70832)"
         id="layer1-3"
         inkscape:label="Calque 1">
        <g
           style="display:inline;fill:#ffc800;fill-opacity:1"
           transform="translate(1140.8174,309.79249)"
           id="layer1-36"
           inkscape:label="Calque 1">
          <path
             inkscape:connector-curvature="0"
             id="path4036"
             d="m 2.42082,257.48466 c 0.030062,-29.64868 0.086011,-39.56938 0.2230674,-39.56938 0.1006083,0 14.1789596,-11.81391 31.2852236,-26.25313 17.106263,-14.43923 31.190349,-26.27165 31.29797,-26.29426 0.107615,-0.0226 13.788237,11.15137 30.401382,24.83109 16.613157,13.67973 30.258137,24.86341 30.322197,24.85262 0.064,-0.0108 0.21982,0.12085 0.34613,0.29253 0.12631,0.17167 0.89877,0.85355 1.71659,1.51528 1.00691,0.81475 1.34906,1.03241 1.05987,0.67424 -0.2349,-0.29089 -0.50921,-0.51012 -0.60959,-0.48719 -0.10362,0.0237 -0.1323,-0.0357 -0.0663,-0.13726 0.0699,-0.10769 0.0478,-0.13869 -0.0556,-0.0778 -0.0945,0.0556 -0.32626,-0.10538 -0.51501,-0.35773 -0.18875,-0.25236 -0.42049,-0.41332 -0.515,-0.35772 -0.10936,0.0644 -0.12495,0.0288 -0.0429,-0.0975 0.0804,-0.12388 0.0663,-0.16182 -0.0374,-0.10079 -0.0915,0.0538 -0.35827,-0.14179 -0.59291,-0.43466 -0.23464,-0.29287 -0.489,-0.49579 -0.56524,-0.45094 -0.0762,0.0449 -0.33059,-0.15806 -0.56523,-0.45093 -0.23465,-0.29288 -0.50145,-0.48847 -0.59291,-0.43466 -0.1037,0.061 -0.11776,0.0231 -0.0374,-0.10079 0.0821,-0.12642 0.0664,-0.16189 -0.0429,-0.0975 -0.0945,0.0557 -0.32627,-0.10535 -0.51501,-0.35771 -0.18875,-0.25235 -0.4205,-0.41333 -0.51501,-0.35772 -0.10935,0.0644 -0.12494,0.0289 -0.0429,-0.0975 0.0804,-0.12388 0.0663,-0.16182 -0.0374,-0.1008 -0.0914,0.0538 -0.35826,-0.14178 -0.59291,-0.43465 -0.23499,-0.29332 -0.5046,-0.4866 -0.60025,-0.43034 -0.11118,0.0655 -0.12725,0.0307 -0.0447,-0.0965 0.082,-0.12642 0.0664,-0.16188 -0.0429,-0.0975 -0.0945,0.0556 -0.32626,-0.10537 -0.51501,-0.35772 -0.18874,-0.25235 -0.42049,-0.41333 -0.51501,-0.35772 -0.10934,0.0644 -0.12493,0.0288 -0.0429,-0.0975 0.0804,-0.12388 0.0663,-0.16182 -0.0374,-0.10079 -0.0914,0.0538 -0.35827,-0.14179 -0.59291,-0.43466 -0.23463,-0.29287 -0.48899,-0.4958 -0.56523,-0.45093 -0.0762,0.0448 -0.3306,-0.15807 -0.56523,-0.45094 -0.23465,-0.29288 -0.50146,-0.48847 -0.59291,-0.43465 -0.1037,0.061 -0.11776,0.023 -0.0374,-0.1008 0.082,-0.12642 0.0664,-0.16189 -0.0429,-0.0975 -0.0945,0.0556 -0.32626,-0.10535 -0.51501,-0.35771 -0.18874,-0.25235 -0.4205,-0.41333 -0.51501,-0.35772 -0.10934,0.0644 -0.12494,0.0288 -0.0429,-0.0975 0.0804,-0.12389 0.0663,-0.16182 -0.0374,-0.10081 -0.0915,0.0538 -0.35827,-0.14178 -0.59291,-0.43465 -0.23499,-0.29332 -0.50461,-0.48661 -0.60025,-0.43034 -0.11118,0.0655 -0.12726,0.0307 -0.0448,-0.0965 0.082,-0.12641 0.0664,-0.16188 -0.0429,-0.0975 -0.0945,0.0557 -0.32627,-0.10536 -0.51501,-0.35772 -0.18874,-0.25235 -0.4205,-0.41332 -0.51501,-0.35773 -0.10934,0.0644 -0.12495,0.029 -0.0429,-0.0975 0.0804,-0.12388 0.0663,-0.16182 -0.0374,-0.1008 -0.0915,0.0538 -0.35827,-0.14178 -0.59291,-0.43465 -0.23463,-0.29287 -0.48899,-0.49579 -0.56523,-0.45094 -0.0762,0.0449 -0.3306,-0.15806 -0.56523,-0.45093 -0.23464,-0.29288 -0.50146,-0.48847 -0.59291,-0.43466 -0.1037,0.0611 -0.11776,0.0231 -0.0374,-0.10079 0.082,-0.12642 0.0664,-0.16189 -0.0429,-0.0975 -0.0945,0.0556 -0.32626,-0.10536 -0.515,-0.35771 -0.18875,-0.25235 -0.4205,-0.41334 -0.51501,-0.35772 -0.10935,0.0644 -0.12495,0.0288 -0.0428,-0.0975 0.0804,-0.12388 0.0663,-0.16182 -0.0374,-0.1008 -0.0915,0.0538 -0.35828,-0.14178 -0.59291,-0.43466 -0.235,-0.29331 -0.50461,-0.4866 -0.60025,-0.43033 -0.11119,0.0655 -0.12727,0.0307 -0.0446,-0.0965 0.082,-0.12641 0.0664,-0.16188 -0.0429,-0.0975 -0.0945,0.0556 -0.32626,-0.10537 -0.51501,-0.35772 -0.18874,-0.25236 -0.42049,-0.41333 -0.515,-0.35771 -0.10935,0.0644 -0.12495,0.0288 -0.0429,-0.0975 0.0804,-0.12389 0.0663,-0.16182 -0.0374,-0.10079 -0.0915,0.0538 -0.35828,-0.14179 -0.59291,-0.43466 -0.23465,-0.29287 -0.48901,-0.4958 -0.56525,-0.45094 -0.0762,0.0448 -0.33058,-0.15806 -0.56523,-0.45093 -0.23464,-0.29287 -0.50144,-0.48847 -0.5929,-0.43466 -0.10371,0.061 -0.11776,0.0231 -0.0374,-0.10079 0.0821,-0.12642 0.0664,-0.16189 -0.0429,-0.0975 -0.0945,0.0557 -0.32627,-0.10535 -0.51501,-0.35771 -0.18874,-0.25235 -0.4205,-0.41333 -0.51501,-0.35772 -0.10934,0.0644 -0.12494,0.0289 -0.0429,-0.0975 0.0804,-0.12388 0.0663,-0.16182 -0.0374,-0.10081 -0.0914,0.0538 -0.35826,-0.14177 -0.5929,-0.43465 -0.235,-0.29331 -0.5046,-0.4866 -0.60025,-0.43033 -0.11119,0.0655 -0.12726,0.0307 -0.0448,-0.0965 0.082,-0.12642 0.0664,-0.16189 -0.0429,-0.0975 -0.0945,0.0556 -0.32627,-0.10537 -0.51501,-0.35772 -0.18874,-0.25236 -0.4205,-0.41333 -0.51501,-0.35771 -0.10935,0.0644 -0.12494,0.0288 -0.0429,-0.0975 0.0804,-0.12388 0.0663,-0.16182 -0.0374,-0.1008 -0.0914,0.0538 -0.35826,-0.14178 -0.5929,-0.43465 -0.235,-0.29332 -0.5046,-0.48661 -0.60025,-0.43033 -0.11119,0.0655 -0.12726,0.0307 -0.0448,-0.0965 0.082,-0.12641 0.0664,-0.16188 -0.0429,-0.0975 -0.0945,0.0556 -0.32627,-0.10536 -0.51501,-0.35771 -0.18875,-0.25235 -0.4205,-0.41333 -0.51502,-0.35771 -0.10935,0.0644 -0.12494,0.0288 -0.0429,-0.0976 0.0821,-0.12641 0.0665,-0.16188 -0.0429,-0.0975 -0.0945,0.0556 -0.32626,-0.10536 -0.51501,-0.35771 -0.18874,-0.25236 -0.4205,-0.41332 -0.51501,-0.35772 -0.10935,0.0644 -0.12495,0.0288 -0.0429,-0.0975 0.0804,-0.12388 0.0664,-0.16182 -0.0374,-0.1008 -0.0915,0.0538 -0.358267,-0.14178 -0.592907,-0.43466 -0.234996,-0.29331 -0.504608,-0.4866 -0.600253,-0.43033 -0.111187,0.0655 -0.127254,0.0307 -0.0447,-0.0965 0.08205,-0.1264 0.06647,-0.16187 -0.0429,-0.0975 -0.09451,0.0557 -0.326266,-0.10537 -0.515012,-0.35772 -0.18874,-0.25236 -0.420495,-0.41333 -0.515006,-0.35772 -0.10935,0.0644 -0.124948,0.0289 -0.0429,-0.0975 0.08042,-0.12388 0.06637,-0.16182 -0.03735,-0.1008 -0.09146,0.0538 -0.358268,-0.14178 -0.592909,-0.43465 -0.234995,-0.29333 -0.504607,-0.48661 -0.600252,-0.43033 -0.111186,0.0655 -0.127254,0.0307 -0.0447,-0.0965 0.08205,-0.12641 0.06647,-0.16188 -0.04289,-0.0975 -0.09451,0.0556 -0.326266,-0.10537 -0.515013,-0.35771 -0.18874,-0.25236 -0.420493,-0.41334 -0.515005,-0.35773 -0.10935,0.0644 -0.124947,0.0288 -0.04289,-0.0975 0.08206,-0.12642 0.06647,-0.1619 -0.0429,-0.0975 -0.09451,0.0556 -0.326261,-0.10536 -0.515007,-0.35771 -0.18874,-0.25236 -0.420495,-0.41333 -0.515005,-0.35772 -0.109357,0.0644 -0.124947,0.0288 -0.0429,-0.0975 0.08042,-0.12388 0.06636,-0.16182 -0.03735,-0.1008 -0.09146,0.0538 -0.358268,-0.14178 -0.592909,-0.43466 -0.234996,-0.29331 -0.504608,-0.4866 -0.600252,-0.43032 -0.111187,0.0655 -0.127255,0.0307 -0.0447,-0.0965 0.08206,-0.12641 0.06647,-0.16188 -0.0429,-0.0975 -0.09451,0.0556 -0.32626,-0.10537 -0.515006,-0.35773 -0.18874,-0.25235 -0.420495,-0.41332 -0.515007,-0.3577 -0.109356,0.0644 -0.124946,0.0288 -0.0429,-0.0975 0.08043,-0.12389 0.06636,-0.16182 -0.03735,-0.1008 -0.09146,0.0538 -0.358268,-0.14178 -0.592908,-0.43465 -0.234997,-0.29332 -0.504609,-0.48661 -0.600252,-0.43033 -0.111188,0.0655 -0.127255,0.0307 -0.0447,-0.0965 0.08206,-0.12641 0.06647,-0.16188 -0.0429,-0.0975 -0.0945,0.0556 -0.326259,-0.10537 -0.515005,-0.35772 -0.18874,-0.25235 -0.420495,-0.41333 -0.515007,-0.35772 -0.109355,0.0644 -0.124947,0.0289 -0.0429,-0.0975 0.08206,-0.12641 0.06647,-0.16188 -0.04289,-0.0975 -0.09451,0.0557 -0.326265,-0.10536 -0.515005,-0.35771 -0.188746,-0.25236 -0.420501,-0.41332 -0.515013,-0.35773 -0.109349,0.0644 -0.124941,0.0289 -0.04289,-0.0975 0.08257,-0.1272 0.0665,-0.1619 -0.0447,-0.0965 -0.09564,0.0563 -0.365257,-0.13702 -0.600252,-0.43034 -0.234641,-0.29288 -0.501446,-0.48847 -0.592909,-0.43465 -0.103704,0.061 -0.117754,0.023 -0.03735,-0.10081 0.08206,-0.12641 0.06647,-0.16188 -0.0429,-0.0975 -0.09451,0.0556 -0.326266,-0.10537 -0.515006,-0.35773 -0.188745,-0.25235 -0.4205,-0.41332 -0.515012,-0.35771 -0.109349,0.0644 -0.124941,0.0288 -0.0429,-0.0975 0.08043,-0.12389 0.06637,-0.16182 -0.03735,-0.1008 -0.09145,0.0538 -0.358267,-0.14178 -0.592908,-0.43465 -0.234995,-0.29333 -0.504601,-0.48662 -0.600252,-0.43034 -0.111181,0.0655 -0.127254,0.0307 -0.0447,-0.0965 0.08206,-0.12641 0.06647,-0.16188 -0.0429,-0.0975 -0.09451,0.0556 -0.326267,-0.10535 -0.515007,-0.35771 -0.188746,-0.25235 -0.4205,-0.41333 -0.515011,-0.35772 -0.109351,0.0644 -0.124942,0.0288 -0.0429,-0.0975 0.08206,-0.12642 0.06647,-0.16188 -0.0429,-0.0975 -0.09451,0.0556 -0.326266,-0.10536 -0.515012,-0.35772 -0.18874,-0.25235 -0.420495,-0.41332 -0.515006,-0.35772 -0.10935,0.0644 -0.124947,0.0289 -0.0429,-0.0975 0.08257,-0.12719 0.06651,-0.16189 -0.0447,-0.0965 -0.09565,0.0563 -0.365256,-0.13702 -0.600252,-0.43033 -0.234641,-0.29288 -0.501451,-0.48847 -0.592908,-0.43465 -0.103705,0.061 -0.117754,0.023 -0.03735,-0.10081 0.08205,-0.12641 0.06647,-0.16188 -0.0429,-0.0975 -0.09451,0.0557 -0.326267,-0.10536 -0.515013,-0.35772 -0.18874,-0.25235 -0.420495,-0.41332 -0.515006,-0.35771 -0.10935,0.0644 -0.124948,0.0288 -0.0429,-0.0975 0.08043,-0.12387 0.06637,-0.16182 -0.03735,-0.10079 -0.09146,0.0538 -0.358269,-0.14178 -0.592909,-0.43466 -0.234996,-0.29332 -0.504608,-0.48661 -0.600252,-0.43033 -0.111188,0.0655 -0.127255,0.0307 -0.0447,-0.0965 0.08205,-0.12641 0.06647,-0.16188 -0.0429,-0.0975 -0.09451,0.0556 -0.326266,-0.10536 -0.515012,-0.35771 -0.18874,-0.25236 -0.420494,-0.41334 -0.515006,-0.35772 -0.10935,0.0644 -0.124947,0.0288 -0.0429,-0.0975 0.08206,-0.12642 0.06647,-0.16188 -0.0429,-0.0975 -0.09451,0.0556 -0.32626,-0.10537 -0.515006,-0.35773 -0.18874,-0.25235 -0.420495,-0.41332 -0.515006,-0.35772 -0.109356,0.0644 -0.124948,0.0288 -0.0429,-0.0975 0.08257,-0.1272 0.0665,-0.1619 -0.0447,-0.0965 -0.09564,0.0563 -0.36525,-0.13702 -0.600252,-0.43033 -0.234634,-0.29288 -0.501445,-0.48847 -0.592902,-0.43466 -0.103705,0.061 -0.117761,0.0232 -0.03735,-0.1008 0.08206,-0.12641 0.06647,-0.16188 -0.0429,-0.0975 -0.09451,0.0556 -0.32626,-0.10536 -0.515007,-0.35772 -0.18874,-0.25235 -0.420493,-0.41332 -0.515005,-0.35771 -0.109356,0.0644 -0.124947,0.0289 -0.0429,-0.0975 0.08042,-0.12387 0.06636,-0.16181 -0.03735,-0.1008 -0.09146,0.0538 -0.358268,-0.14177 -0.592908,-0.43464 -0.234996,-0.29333 -0.504608,-0.48662 -0.600252,-0.43034 -0.111187,0.0655 -0.127255,0.0307 -0.0447,-0.0965 0.08206,-0.12643 0.06647,-0.16189 -0.0429,-0.0975 -0.0945,0.0557 -0.32626,-0.10536 -0.515006,-0.35771 -0.18874,-0.25235 -0.420495,-0.41333 -0.515006,-0.35772 -0.109356,0.0644 -0.124947,0.0288 -0.0429,-0.0975 0.08206,-0.12642 0.06647,-0.16188 -0.0429,-0.0975 -0.09451,0.0556 -0.326266,-0.10537 -0.515006,-0.35772 -0.188747,-0.25235 -0.420501,-0.41332 -0.515013,-0.35772 -0.10935,0.0644 -0.12494,0.0289 -0.0429,-0.0975 0.08257,-0.1272 0.0665,-0.1619 -0.0447,-0.0965 -0.09564,0.0563 -0.365256,-0.13702 -0.600252,-0.43034 -0.234641,-0.29287 -0.501446,-0.48846 -0.592909,-0.43464 -0.103698,0.061 -0.117753,0.023 -0.03735,-0.10081 0.08206,-0.12641 0.06647,-0.16188 -0.0429,-0.0975 -0.09451,0.0557 -0.326265,-0.10537 -0.515005,-0.35772 -0.188746,-0.25236 -0.420501,-0.41332 -0.515013,-0.35771 -0.109349,0.0644 -0.124941,0.0288 -0.0429,-0.0975 0.08042,-0.12387 0.06636,-0.16182 -0.03735,-0.10079 -0.09145,0.0538 -0.358268,-0.14178 -0.592901,-0.43466 -0.235002,-0.29332 -0.504608,-0.48661 -0.600253,-0.43033 -0.111187,0.0655 -0.12726,0.0307 -0.0447,-0.0965 0.08206,-0.12641 0.06647,-0.16188 -0.0429,-0.0975 -0.09451,0.0556 -0.326266,-0.10536 -0.515006,-0.35771 -0.188746,-0.25236 -0.420501,-0.41333 -0.515012,-0.35773 -0.10935,0.0644 -0.124942,0.0289 -0.0429,-0.0975 0.07331,-0.11294 0.06598,-0.1616 -0.01699,-0.11278 -0.08027,0.0472 -0.284373,-0.0105 -0.453587,-0.1283 -0.266305,-0.1854 -0.271679,-0.21418 -0.04,-0.21418 0.147188,0 1.412245,0.93897 2.811231,2.0866 26.552583,21.7818 61.224312,50.42562 61.360232,50.69236 0.12915,0.25349 0.1776,11.1104 0.1776,39.79702 v 39.44843 h -21.97972 c -19.895596,0 -21.9889,-0.0228 -22.076478,-0.24004 -0.05319,-0.13203 -0.09675,-8.62825 -0.09675,-18.8805 0,-14.16133 0.04506,-18.65477 0.18762,-18.7 0.103186,-0.0327 0.13482,-0.14088 0.07029,-0.24028 -0.170287,-0.26231 -39.397771,-0.26231 -39.568058,0 -0.06453,0.0994 -0.0329,0.20753 0.07029,0.24028 0.142538,0.0452 0.187619,4.53867 0.187619,18.7 0,10.25225 -0.04355,18.74847 -0.09675,18.8805 -0.08758,0.21729 -2.180912,0.24004 -22.076773,0.24004 H 2.3791911 Z m 44.058323,1.66928 c -0.04061,-0.0626 8.770901,-0.11382 19.581192,-0.11382 10.810292,0 19.621827,0.0512 19.581192,0.11382 -0.04067,0.0626 -8.852171,0.11381 -19.581192,0.11381 -10.729022,0 -19.540557,-0.0512 -19.581192,-0.11381 z M 2.7156386,217.68764 c 0.00542,-0.2527 61.7431804,-52.39829 62.1392584,-52.48472 0.172179,-0.0376 0.131194,0.0664 -0.132755,0.33677 -0.210001,0.21511 -0.43508,0.35976 -0.50018,0.32146 -0.0651,-0.0383 -0.382938,0.23776 -0.706318,0.61346 -0.323369,0.37571 -0.646147,0.64886 -0.717284,0.60701 -0.07112,-0.0418 -0.393908,0.2313 -0.717289,0.60701 -0.323369,0.37571 -0.643893,0.65018 -0.712271,0.60996 -0.06838,-0.0402 -0.354328,0.19934 -0.635453,0.53238 -0.281131,0.33304 -0.570298,0.57073 -0.642604,0.52819 -0.0723,-0.0426 -0.396041,0.23004 -0.719416,0.60575 -0.323373,0.37571 -0.646152,0.64887 -0.717288,0.60701 -0.07113,-0.0419 -0.393909,0.23131 -0.717283,0.60701 -0.323375,0.3757 -0.646152,0.64886 -0.71729,0.60701 -0.07113,-0.0419 -0.393908,0.2313 -0.717282,0.60701 -0.323375,0.37571 -0.646153,0.64886 -0.717289,0.60701 -0.07113,-0.0418 -0.393909,0.23129 -0.717284,0.60701 -0.323375,0.37571 -0.647893,0.64783 -0.721156,0.60473 -0.07326,-0.0431 -0.360979,0.19543 -0.639381,0.53007 -0.278396,0.33465 -0.56357,0.57469 -0.633718,0.53341 -0.07015,-0.0413 -0.39212,0.23236 -0.715495,0.60807 -0.323373,0.37571 -0.646152,0.64886 -0.717282,0.607 -0.07113,-0.0419 -0.393915,0.2313 -0.717289,0.60701 -0.323375,0.37571 -0.646152,0.64887 -0.717284,0.60701 -0.07113,-0.0418 -0.393914,0.23131 -0.717288,0.60701 -0.323375,0.37572 -0.646153,0.64886 -0.717283,0.60702 -0.07114,-0.0419 -0.393915,0.23129 -0.71729,0.607 -0.323375,0.37571 -0.647893,0.64784 -0.72115,0.60473 -0.07326,-0.0431 -0.360985,0.19543 -0.639381,0.53008 -0.278402,0.33464 -0.563576,0.57469 -0.633724,0.53341 -0.07015,-0.0413 -0.392114,0.23235 -0.715489,0.60806 -0.323373,0.37571 -0.646152,0.64887 -0.717288,0.60701 -0.07113,-0.0419 -0.393909,0.2313 -0.717283,0.60701 -0.323375,0.37571 -0.646152,0.64886 -0.71729,0.60701 -0.07112,-0.0419 -0.393908,0.23131 -0.717282,0.607 -0.323375,0.37572 -0.646153,0.64887 -0.717289,0.60703 -0.07114,-0.0419 -0.393909,0.23129 -0.717284,0.607 -0.323374,0.37571 -0.646152,0.64886 -0.717289,0.60701 -0.07113,-0.0419 -0.393909,0.2313 -0.717283,0.60701 -0.323374,0.37571 -0.643899,0.65018 -0.712276,0.60995 -0.06838,-0.0402 -0.354328,0.19934 -0.635453,0.53239 -0.281125,0.33304 -0.570299,0.57073 -0.642604,0.52819 -0.0723,-0.0426 -0.396042,0.23004 -0.719416,0.60575 -0.323375,0.37571 -0.646152,0.64887 -0.71729,0.607 -0.07113,-0.0419 -0.393908,0.2313 -0.717282,0.60701 -0.323375,0.37571 -0.646153,0.64887 -0.717289,0.60701 -0.07114,-0.0419 -0.393909,0.23131 -0.717284,0.60702 -0.323374,0.37571 -0.646152,0.64886 -0.717289,0.607 -0.07114,-0.0418 -0.393909,0.2313 -0.717282,0.60701 -0.323375,0.37572 -0.647895,0.64784 -0.721158,0.60473 -0.07325,-0.0431 -0.360979,0.19544 -0.639381,0.53008 -0.278396,0.33465 -0.563569,0.57469 -0.633718,0.53341 -0.07015,-0.0413 -0.392118,0.23235 -0.715493,0.60807 -0.323375,0.37571 -0.646152,0.64886 -0.717284,0.607 -0.07114,-0.0419 -0.393914,0.2313 -0.717289,0.60701 -0.323374,0.37571 -0.646152,0.64886 -0.717282,0.60701 -0.07114,-0.0419 -0.393915,0.23131 -0.71729,0.607 -0.323374,0.37571 -0.646152,0.64887 -0.717283,0.60702 -0.07113,-0.0419 -0.393915,0.2313 -0.717288,0.60701 -0.323375,0.37571 -0.646153,0.64886 -0.717284,0.60701 -0.07113,-0.0419 -0.393914,0.2313 -0.717289,0.607 -0.323375,0.37571 -0.643894,0.65019 -0.712271,0.60996 -0.06838,-0.0402 -0.354334,0.19934 -0.635459,0.53239 -0.281125,0.33304 -0.570293,0.57073 -0.642598,0.52819 -0.0723,-0.0426 -0.396041,0.23004 -0.719416,0.60574 -0.323374,0.37571 -0.646152,0.64887 -0.717288,0.60701 -0.07114,-0.0418 -0.393909,0.2313 -0.717284,0.60701 -0.323374,0.37571 -0.646152,0.64887 -0.717289,0.60702 -0.07113,-0.0419 -0.393909,0.2313 -0.717282,0.60701 -0.323375,0.37571 -0.646153,0.64886 -0.71729,0.607 -0.07113,-0.0418 -0.393908,0.2313 -0.717283,0.60701 -0.323375,0.37571 -0.647893,0.64784 -0.721156,0.60473 -0.07326,-0.0431 -0.360986,0.19543 -0.639382,0.53008 -0.278401,0.33465 -0.563575,0.57468 -0.633718,0.53341 -0.07015,-0.0413 -0.392119,0.23235 -0.715494,0.60806 -0.323374,0.37571 -0.646152,0.64887 -0.717282,0.60701 -0.07114,-0.0419 -0.393915,0.2313 -0.71729,0.60701 -0.323374,0.37571 -0.646152,0.64886 -0.717283,0.607 -0.07114,-0.0418 -0.393915,0.23131 -0.717289,0.60702 -0.323375,0.3757 -0.646153,0.64886 -0.717284,0.60701 -0.07114,-0.0419 -0.393915,0.2313 -0.717289,0.607 -0.3233747,0.37572 -0.6461527,0.64886 -0.7172832,0.60702 -0.071136,-0.0419 -0.3939147,0.2313 -0.7172891,0.607 -0.3233744,0.37571 -0.6438995,0.65019 -0.712271,0.60997 -0.068377,-0.0402 -0.354334,0.19933 -0.6354589,0.53238 -0.281125,0.33304 -0.5702925,0.57072 -0.6425981,0.52819 -0.072305,-0.0426 -0.3960473,0.23004 -0.7194217,0.60574 -0.3233744,0.37571 -0.6461524,0.64887 -0.7172831,0.60701 -0.071136,-0.0418 -0.3939147,0.2313 -0.717289,0.60701 -0.3233744,0.37571 -0.647267,0.64821 -0.7197652,0.60556 -0.072498,-0.0427 -0.3515207,0.17847 -0.6200424,0.4914 -0.2685279,0.31295 -0.4860286,0.46655 -0.4833417,0.34135 z"
             style="fill:#ffc800;fill-opacity:1;stroke-width:0.15552759" />
        </g>
      </g>
      <g
         style="opacity:0.99952608"
         inkscape:label="view"
         id="layer2" />
    </g>
  </g>
</svg>
