<?xml version="1.0" encoding="UTF-8" standalone="no"?>
<!-- Created with Inkscape (http://www.inkscape.org/) -->

<svg
   xmlns:dc="http://purl.org/dc/elements/1.1/"
   xmlns:cc="http://creativecommons.org/ns#"
   xmlns:rdf="http://www.w3.org/1999/02/22-rdf-syntax-ns#"
   xmlns:svg="http://www.w3.org/2000/svg"
   xmlns="http://www.w3.org/2000/svg"
   xmlns:sodipodi="http://sodipodi.sourceforge.net/DTD/sodipodi-0.dtd"
   xmlns:inkscape="http://www.inkscape.org/namespaces/inkscape"
   width="500"
   height="500"
   viewBox="0 0 132.29166 132.29167"
   version="1.1"
   id="svg8"
   inkscape:version="0.92.4 (5da689c313, 2019-01-14)"
   sodipodi:docname="map.svg">
  <defs
     id="defs2" />
  <sodipodi:namedview
     id="base"
     pagecolor="#ffffff"
     bordercolor="#666666"
     borderopacity="1.0"
     inkscape:pageopacity="0.0"
     inkscape:pageshadow="2"
     inkscape:zoom="1.4"
     inkscape:cx="248.18436"
     inkscape:cy="73.750969"
     inkscape:document-units="mm"
     inkscape:current-layer="layer1"
     showgrid="false"
     inkscape:window-width="2880"
     inkscape:window-height="1586"
     inkscape:window-x="-11"
     inkscape:window-y="-11"
     inkscape:window-maximized="1"
     units="px" />
  <metadata
     id="metadata5">
    <rdf:RDF>
      <cc:Work
         rdf:about="">
        <dc:format>image/svg+xml</dc:format>
        <dc:type
           rdf:resource="http://purl.org/dc/dcmitype/StillImage" />
        <dc:title></dc:title>
      </cc:Work>
    </rdf:RDF>
  </metadata>
  <g
     inkscape:label="Calque 1"
     inkscape:groupmode="layer"
     id="layer1"
     transform="translate(0,-164.70832)"
     style="display:inline">
    <path
       style="fill:#000000;stroke-width:0.26458335"
       d="m 741.44328,271.17199 c -13.99774,-0.9615 -27.31022,-5.89312 -36.45339,-13.5042 -3.22219,-2.68226 -4.2082,-4.46135 -4.69599,-8.47318 -0.3447,-2.83503 0.0522,-11.81271 0.66507,-15.04354 1.38149,-7.28261 6.19428,-15.66688 9.911,-17.26577 3.25609,-1.40074 3.8299,-1.4674 12.71394,-1.47722 7.46442,-0.008 8.42385,-0.0581 9.19167,-0.47769 1.15629,-0.63186 1.8403,-2.08227 2.06701,-4.383 l 0.18848,-1.91273 -1.71581,-1.77727 c -2.73827,-2.83637 -4.77484,-6.38532 -5.65073,-9.84707 -0.34616,-1.36812 -0.68729,-1.9903 -1.66827,-3.0427 -1.68586,-1.80861 -2.9011,-3.7929 -3.49859,-5.71261 -0.59821,-1.92207 -0.61877,-3.17792 -0.0754,-4.60614 0.22146,-0.58209 0.46384,-1.24983 0.53861,-1.48388 0.0946,-0.29599 -0.23038,-0.64023 -1.06745,-1.13078 -2.98871,-1.7515 -5.72628,-5.18336 -5.71206,-7.16072 0.0231,-3.21 4.4087,-6.94306 11.23898,-9.5667 1.92276,-0.73856 2.32655,-1.68569 2.28318,-5.35538 -0.0183,-1.55056 -0.19635,-4.50143 -0.39561,-6.55749 -0.54863,-5.66095 -0.0827,-7.62106 2.34327,-9.85721 1.56144,-1.43928 3.56492,-2.35849 6.16341,-2.82781 1.68617,-0.30455 2.99184,-0.31599 7.50725,-0.0658 4.15281,0.23012 6.72811,0.22781 10.71886,-0.01 4.44642,-0.26453 5.59455,-0.25284 7.47917,0.0762 3.76497,0.65727 6.71566,2.48658 7.96685,4.93911 0.95381,1.86963 1.08683,3.45987 0.6513,7.7864 -0.54186,5.38281 -0.52779,9.16849 0.0385,10.36185 0.4448,0.93734 0.73632,1.1168 3.56996,2.19763 3.71004,1.41512 8.00164,4.70213 9.03519,6.92021 1.29915,2.78808 -0.57098,6.20902 -4.83209,8.83912 -0.87832,0.54213 -1.59694,1.01316 -1.59694,1.04674 0,0.0336 0.25067,0.62773 0.55705,1.32034 1.26868,2.86806 0.002,7.10737 -3.12887,10.46781 -1.17296,1.25915 -1.63534,1.97682 -1.77821,2.75996 -0.56211,3.08118 -3.12739,7.67953 -6.09068,10.91776 l -1.51664,1.65735 0.1838,1.64994 c 0.29067,2.60925 0.93995,3.81795 2.39715,4.46254 1.16875,0.51699 1.52739,0.53404 7.4848,0.35582 8.89812,-0.2662 13.11781,0.3725 15.76565,2.38631 2.27703,1.73178 5.7898,7.51127 7.29325,11.99941 1.20571,3.59935 1.56294,5.85013 1.86935,11.77822 0.52153,10.08992 -0.26552,12.58097 -5.24376,16.59678 -8.65554,6.98219 -20.18481,11.4064 -33.4033,12.81811 -3.26828,0.34904 -17.22556,0.48068 -21.29896,0.20088 z m 4.86104,-41.08875 c 1.0383,-4.43838 1.88476,-8.24838 1.88101,-8.46667 -0.004,-0.21828 -0.59644,-1.34252 -1.31709,-2.49831 -0.72065,-1.1558 -1.27802,-2.1337 -1.2386,-2.17311 0.0394,-0.0394 0.60189,0.0876 1.24994,0.28237 2.06195,0.61957 4.22069,0.73669 6.20536,0.33668 1.01865,-0.20531 2.07998,-0.46931 2.35851,-0.58667 0.58295,-0.24563 0.64896,-0.3857 -1.18873,2.52238 l -1.25398,1.98437 2.02166,8.53282 c 1.11192,4.69304 2.09403,8.53281 2.18247,8.53281 0.0884,0 1.0016,-1.75617 2.02926,-3.90261 3.08951,-6.45299 4.8101,-11.60037 4.90137,-14.66313 0.0428,-1.43625 -0.10399,-2.03301 -1.03027,-4.18843 -0.59411,-1.38245 -1.14937,-2.71188 -1.23391,-2.9543 -0.13386,-0.38379 -0.4117,-0.31117 -2.14919,0.5617 -2.35246,1.1818 -4.73056,1.82478 -7.55452,2.04255 -3.64802,0.28132 -8.7528,-0.82933 -11.17294,-2.4309 -0.58034,-0.38405 -1.12086,-0.63256 -1.20118,-0.55225 -0.1657,0.16571 -1.11152,2.38656 -2.08389,4.89316 -0.61919,1.59618 -0.63923,1.80645 -0.35289,3.70416 0.32874,2.17878 1.18329,5.09406 2.41235,8.22963 1.21999,3.11244 4.26357,9.29275 4.46528,9.06722 0.10018,-0.11202 1.03167,-3.83508 2.06998,-8.27347 z m 8.89729,-20.1581 c 0.7276,-0.15454 2.15635,-0.6639 3.175,-1.13192 5.40982,-2.48555 8.94271,-7.80786 10.45577,-15.75165 0.31873,-1.67333 0.8147,-7.68189 0.65538,-7.93967 -0.0587,-0.0949 -1.27375,0.0358 -2.70019,0.2905 -4.34839,0.77643 -8.34071,1.03278 -16.08388,1.03278 -7.73717,0 -11.73582,-0.25641 -16.07173,-1.03061 l -2.58139,-0.46092 v 2.10178 c 0,6.51624 2.14948,13.36762 5.49771,17.52372 1.56136,1.93809 4.68028,4.09068 7.09557,4.89716 2.88254,0.96251 7.30816,1.15903 10.55776,0.46883 z m -28.58869,-26.90733 c -0.0893,-0.0893 -0.50968,0.22642 -0.93421,0.70156 -1.04766,1.17252 -1.02428,2.38991 0.088,4.58359 l 0.85989,1.69591 0.0743,-3.40937 c 0.0409,-1.87514 10e-4,-3.48241 -0.088,-3.57169 z m 49.21511,5.28313 c 1.20673,-2.38137 1.09958,-4.05299 -0.31965,-4.9865 l -0.59531,-0.39158 v 3.33957 c 0,1.83676 0.0575,3.33956 0.12783,3.33956 0.0703,0 0.42452,-0.58547 0.78713,-1.30105 z m -16.7207,-16.02106 c 5.09979,-0.93258 9.67714,-2.68036 11.68734,-4.4626 l 0.94422,-0.83715 -0.86031,-2.68664 -0.8603,-2.68664 -1.67653,1.01783 c -7.25968,4.40738 -18.72258,6.02256 -27.13603,3.8236 -3.12394,-0.81648 -6.79335,-2.53837 -9.07135,-4.25677 -0.46323,-0.34944 -0.89742,-0.63534 -0.96486,-0.63534 -0.23322,0 -0.7546,4.45854 -0.58417,4.99551 0.25554,0.80511 3.22793,3.18458 5.04653,4.03984 2.0465,0.96245 5.1737,1.74904 8.19266,2.0607 3.46291,0.3575 12.49505,0.13745 15.2828,-0.37234 z"
       id="path3724"
       inkscape:connector-curvature="0" />
    <path
       style="fill:#000000;stroke-width:0.26458335"
       d="m 723.52533,119.35577 c -0.15064,-0.28148 -0.27389,-1.52488 -0.27389,-2.76312 0,-2.02655 0.0587,-2.29248 0.58804,-2.66323 0.50735,-0.35537 1.97759,-0.41188 10.71563,-0.41188 h 10.12758 l -0.004,-1.38906 c -0.002,-0.76399 -0.17772,-6.85717 -0.3906,-13.540395 -0.29334,-9.20959 -0.46863,-12.20312 -0.72405,-12.36522 -0.18536,-0.11764 -0.73503,-0.21571 -1.2215,-0.21794 -1.32157,-0.006 -5.76669,-0.96254 -8.13888,-1.75131 -2.75305,-0.91541 -6.69241,-2.95568 -8.85496,-4.58617 -3.42804,-2.58461 -7.02461,-6.95775 -9.04399,-10.99678 -1.14045,-2.28104 -2.61011,-6.49987 -3.27131,-9.39069 -0.70835,-3.09698 -1.42409,-8.58248 -1.42409,-10.91446 v -1.52297 h 3.01586 3.01586 l 0.17198,1.91823 c 0.83032,9.261 3.27776,16.4687 7.43441,21.89427 2.51651,3.28474 6.46106,6.31953 10.28092,7.90974 7.49039,3.11826 18.24273,2.97488 25.41496,-0.3389 9.29403,-4.2941 14.67261,-13.63642 16.08782,-27.94376 l 0.32714,-3.30729 2.97657,-0.0748 2.97656,-0.0748 v 2.50865 c 0,8.93595 -2.97198,18.7161 -7.53493,24.79589 -5.06254,6.74546 -12.31763,10.68998 -21.8096,11.85769 -1.2236,0.15052 -2.26705,0.31599 -2.31877,0.36771 -0.0863,0.0863 -1.14075,24.335495 -1.14373,26.302485 l -10e-4,0.8599 h 10.07156 c 6.4366,0 10.25626,0.0989 10.58333,0.27389 0.45234,0.24208 0.51177,0.57395 0.51177,2.8575 0,1.6567 -0.11391,2.69752 -0.3175,2.90111 -0.2422,0.2422 -5.91872,0.3175 -23.93548,0.3175 -23.07962,0 -23.62423,-0.0117 -23.89188,-0.51177 z m 5.93374,-52.237035 c -0.74566,-0.34723 -1.81527,-1.16861 -2.42753,-1.86418 -1.74395,-1.98124 -1.92802,-2.85942 -1.92802,-9.19873 v -5.50912 h 10.55094 c 11.50962,0 11.27414,0.0319 11.09787,-1.50535 l -0.0853,-0.7436 -10.78177,-0.0691 -10.78178,-0.0691 v -4.888864 -4.88885 l 10.78178,-0.0691 10.78177,-0.0691 v -0.92604 -0.92604 l -10.78177,-0.0691 -10.78178,-0.0691 v -4.88886 -4.88885 l 10.78178,-0.0691 10.78177,-0.0691 v -0.92604 -0.92604 l -10.78177,-0.0691 -10.78178,-0.0691 v -4.75657 -4.75656 l 10.78178,-0.0691 10.78177,-0.0691 v -0.92604 -0.92604 l -10.78177,-0.0691 -10.78178,-0.0691 V 3.2306605 c 0,-10.67482 0.0512,-11.03227 1.87491,-13.10416 0.57277,-0.6507095 1.65877,-1.4907495 2.41332,-1.8667595 l 1.37192,-0.68366 h 16.65225 c 11.61044,0 16.95429,0.0905 17.64984,0.29888 1.67897,0.50303 3.46525,2.05949 4.35077,3.7909995 l 0.79845,1.56125 V 27.641751 62.056295 l -0.74562,1.5184 c -0.43992,0.89589 -1.20867,1.89785 -1.87507,2.44391 -2.16533,1.77432 -1.60774,1.72651 -20.10059,1.72365 l -16.70163,-0.003 -1.333,-0.62072 z"
       id="path3737"
       inkscape:connector-curvature="0" />
    <path
       style="fill:#000000;stroke-width:0.26458335"
       d="m 695.99324,406.01099 v -2.11667 h 3.30729 3.30729 V 374.1708 344.44728 l 1.42997,-0.32002 c 2.43388,-0.54467 4.20436,-2.02792 5.505,-4.61188 l 0.37582,-0.74665 0.49384,1.09513 c 1.51044,3.34957 5.4138,5.15521 8.93282,4.13221 1.78458,-0.51879 4.08405,-2.48536 4.82351,-4.12519 l 0.49028,-1.08723 0.80292,1.49635 c 0.95032,1.77105 2.60113,3.1281 4.48625,3.68791 1.69522,0.50343 2.64435,0.49799 4.40626,-0.0252 1.94097,-0.5764 4.22124,-2.83335 4.88662,-4.83665 l 0.47011,-1.41537 0.43712,1.29122 c 0.86152,2.54486 2.66569,4.26196 5.27512,5.02054 3.40474,0.98979 7.07927,-0.72539 8.76534,-4.09145 l 0.57344,-1.14482 0.6635,1.33147 c 1.31001,2.62885 3.81017,4.12965 6.84562,4.10931 2.97933,-0.0199 5.31072,-1.52668 6.761,-4.36946 l 0.54655,-1.07132 0.6635,1.33147 c 1.28602,2.58072 3.69645,4.08812 6.58103,4.11555 1.51722,0.0144 2.12592,-0.11685 3.36663,-0.72611 1.77188,-0.8701 3.18677,-2.40862 3.8499,-4.18629 l 0.47222,-1.26589 0.44479,1.25234 c 0.62109,1.74871 2.0647,3.32528 3.84567,4.19984 3.7185,1.826 8.09573,0.32117 10.0201,-3.44478 l 0.65309,-1.2781 0.66399,1.33246 c 2.31785,4.65131 8.85969,5.59668 12.22279,1.76632 0.96856,-1.10313 1.64828,-2.3342 1.90652,-3.45301 0.16134,-0.69899 0.20611,-0.73057 0.37504,-0.26458 1.28996,3.55835 3.21774,5.41706 6.29853,6.0729 l 0.72761,0.15489 v 29.76059 29.76058 h 3.30729 3.30729 v 2.11667 2.11666 h -66.14583 -66.14583 v -2.11666 z M 810.8224,381.93391 v -21.96042 h -13.09688 -13.09687 v 21.96042 21.96041 h 13.09687 13.09688 z m -33.60208,13.75833 v -0.79375 h -33.3375 -33.3375 v 0.79375 0.79375 h 33.3375 33.3375 z m -4.56186,-17.92552 0.0683,-14.88281 h -28.84179 -28.84178 v 14.77256 c 0,8.12492 0.0799,14.85248 0.17756,14.95014 0.0977,0.0977 13.04571,0.14727 28.77344,0.11024 l 28.59587,-0.0673 z m 4.56186,-17.92552 v -0.92604 h -33.3375 -33.3375 v 0.92604 0.92604 h 33.3375 33.3375 z M 700.8421,342.75724 c -2.79098,-0.53521 -4.84886,-2.4308 -4.84886,-4.46645 v -0.80689 h 6.21771 c 6.21617,0 6.21771,1.5e-4 6.21771,0.57793 0,1.84651 -2.34149,4.25192 -4.46981,4.59184 -0.52478,0.0838 -1.19228,0.18905 -1.48332,0.23386 -0.29104,0.0448 -1.02608,-0.0138 -1.63343,-0.13029 z m 15.08584,8e-4 c -2.58833,-0.49659 -4.509,-2.18664 -4.77984,-4.2059 l -0.14328,-1.06824 h 6.25254 6.25255 v 0.672 c 0,1.85413 -2.28481,4.1496 -4.47849,4.4994 -0.52001,0.0829 -1.1836,0.18742 -1.47464,0.23223 -0.29104,0.0448 -1.02402,-0.0135 -1.62884,-0.1295 z m 14.81208,0.005 c -2.11401,-0.41663 -3.66507,-1.63456 -4.43795,-3.48477 -0.79061,-1.89267 -1.11572,-1.79445 5.93909,-1.79445 7.14341,0 6.81072,-0.11393 5.84919,2.0031 -1.10399,2.43067 -4.33439,3.87049 -7.35033,3.27611 z m 15.39176,-0.009 c -2.83545,-0.53447 -4.49591,-1.99449 -5.01625,-4.41071 l -0.18517,-0.8599 h 6.37102 c 6.2282,0 6.37102,0.0121 6.37102,0.53767 0,0.97216 -0.69545,2.22475 -1.77705,3.20071 -1.51217,1.36447 -3.64521,1.93154 -5.76357,1.53223 z m 14.35625,-0.0991 c -1.84688,-0.37972 -3.28035,-1.44866 -4.10365,-3.0601 -1.13481,-2.22117 -1.43395,-2.11142 5.75469,-2.11142 7.13811,0 6.80968,-0.11141 5.85656,1.98665 -1.19489,2.63022 -4.13627,3.87801 -7.5076,3.18487 z m 14.96656,0.10769 c -2.11401,-0.41663 -3.66506,-1.63455 -4.43794,-3.48477 -0.79062,-1.89266 -1.11572,-1.79444 5.93908,-1.79444 7.14343,0 6.81073,-0.11393 5.8492,2.0031 -1.10399,2.43067 -4.33439,3.87049 -7.35034,3.27611 z m 15.39177,-0.009 c -2.83544,-0.53447 -4.4959,-1.99449 -5.01624,-4.41071 l -0.18518,-0.8599 h 6.37102 c 6.2282,0 6.37102,0.0121 6.37102,0.53767 0,0.97216 -0.69544,2.22475 -1.77705,3.20071 -1.51216,1.36447 -3.64521,1.93154 -5.76357,1.53223 z m 14.207,-0.10314 c -1.73494,-0.41495 -3.17274,-1.52612 -3.9544,-3.05605 -1.13481,-2.22117 -1.43395,-2.11142 5.75469,-2.11142 7.13812,0 6.80968,-0.11141 5.85656,1.98665 -1.20043,2.64242 -4.38193,3.96409 -7.65685,3.18082 z m 15.64498,0.11174 c -1.4614,-0.28801 -2.41938,-0.81191 -3.44357,-1.88319 -0.87586,-0.91615 -1.40529,-2.00269 -1.40529,-2.88407 0,-0.49168 0.24612,-0.51195 6.21771,-0.51195 h 6.21771 l -10e-4,0.8599 c -0.003,2.78255 -4.0191,5.12219 -7.58557,4.41931 z m -124.7051,-7.1407 c 0,-0.26031 6.34186,-23.53904 7.43995,-27.30941 l 0.52031,-1.78653 58.24345,0.0667 58.24346,0.0667 3.92103,14.2875 c 2.15656,7.85812 3.92158,14.43632 3.92225,14.61823 9.6e-4,0.2637 -13.4037,0.33072 -66.14462,0.33072 -45.4349,0 -66.14583,-0.0858 -66.14583,-0.27399 z m 17.99167,-41.92705 v -10.71474 h 47.88957 47.88959 v 10.71562 10.71563 h -47.88959 -47.88957 z m 92.07499,0 v -7.01146 h -44.18542 -44.18541 v 7.01146 7.01146 h 44.18541 44.18542 z"
       id="path3750"
       inkscape:connector-curvature="0" />
    <path
       style="fill:#000000;stroke-width:0.26458335"
       d="m 489.84978,112.46883 c -1.63767,-0.88859 -1.52468,3.35615 -1.52468,-57.278307 V -0.14699657 l 0.89958,-0.89958003 0.89959,-0.89959 h 12.32958 12.32958 l 0.001,6.15157 c 8e-4,5.67158 0.042,6.2188396 0.52675,7.0138696 1.03934,1.70466 1.748,1.91384 6.48372,1.91384 3.73299,0 4.33345,-0.0611 5.08039,-0.51648 1.66334,-1.0142 1.7895,-1.57791 1.88252,-8.4112296 l 0.0837,-6.15157 h 26.04386 26.04387 l 10e-4,6.15157 c 7.9e-4,5.67158 0.042,6.2188396 0.52674,7.0138696 1.03663,1.70021 1.75369,1.91372 6.43072,1.91482 4.64546,10e-4 5.25228,-0.15729 6.316,-1.64866 0.59681,-0.83675 0.61891,-1.06131 0.7033,-7.1477396 l 0.0871,-6.28386 h 11.77943 11.77943 l 0.89958,0.89959 0.89958,0.89958003 V 55.190523 c 0,60.827427 0.12169,56.411747 -1.57884,57.291127 -0.6876,0.35558 -8.04289,0.40014 -64.48771,0.39076 -55.83751,-0.009 -63.80123,-0.0592 -64.43599,-0.40358 z M 608.44594,63.405923 v -38.62917 h -53.975 -53.97501 v 38.62917 38.629167 h 53.97501 53.975 z M 507.3751,87.615293 v -8.59895 h 12.96458 12.96459 v 8.59895 8.59896 H 520.33968 507.3751 Z m 34.39583,0 v -8.59895 h 12.96459 12.96458 v 8.59895 8.59896 h -12.96458 -12.96459 z m 34.13126,0 v -8.59895 h 12.96458 12.96458 v 8.59895 8.59896 H 588.86677 575.90219 Z M 507.3751,63.538213 v -8.59896 h 12.96458 12.96459 v 8.59896 8.59896 H 520.33968 507.3751 Z m 34.39583,0 v -8.59896 h 12.96459 12.96458 v 8.59896 8.59896 h -12.96458 -12.96459 z m 34.13126,0 v -8.59896 h 12.96458 12.96458 v 8.59896 8.59896 H 588.86677 575.90219 Z M 507.3751,39.461133 v -8.59896 h 12.96458 12.96459 v 8.59896 8.59895 H 520.33968 507.3751 Z m 34.39583,0 v -8.59896 h 12.96459 12.96458 v 8.59896 8.59895 h -12.96458 -12.96459 z m 34.13126,0 v -8.59896 h 12.96458 12.96458 v 8.59896 8.59895 h -12.96458 -12.96458 z m -59.61405,-28.12646 -0.71096,-0.74208 V -1.5804066 -13.753407 l 0.74209,-0.71096 0.74208,-0.71096 h 4.70223 4.70223 l 0.77339,0.77339 0.7734,0.7734 V -1.5492866 10.529963 l -0.7734,0.77339 -0.77339,0.7734 h -4.73336 -4.73335 z m 66.14584,0 -0.71096,-0.74208 V -1.5804066 -13.753407 l 0.74208,-0.71096 0.74208,-0.71096 h 4.70223 4.70223 l 0.7734,0.77339 0.7734,0.7734 V -1.5492866 10.529963 l -0.7734,0.77339 -0.7734,0.7734 h -4.73335 -4.73335 z"
       id="path3776"
       inkscape:connector-curvature="0" />
    <path
       style="fill:#000000;stroke-width:0.26458335"
       d="m 498.0012,232.73332 c -2.61452,-0.44125 -5.7271,-2.62555 -6.85716,-4.81211 -0.49266,-0.95327 -0.50733,-2.00934 -0.50733,-36.53329 v -35.55163 l 0.82796,-1.24999 c 1.01887,-1.53821 2.71474,-2.86224 4.68793,-3.66002 l 1.49557,-0.60467 21.96042,-0.13303 c 19.58787,-0.11865 22.07753,-0.18015 23.04447,-0.56931 3.25119,-1.30848 4.78929,-2.58621 9.3927,-7.80271 5.67259,-6.42806 8.33045,-7.4979 18.62741,-7.4979 10.56983,0 12.95382,1.01737 19.18107,8.1856 1.74083,2.00387 3.79272,4.12031 4.55975,4.7032 3.63034,2.7588 3.70838,2.77628 13.30085,2.97903 7.3946,0.1563 8.04149,0.20866 9.45797,0.76544 1.92428,0.75639 4.18224,2.7986 5.07495,4.59003 l 0.68062,1.36584 v 34.65722 c 0,34.38048 -0.004,34.66616 -0.54154,35.7759 -1.30982,2.70572 -4.14208,4.80678 -7.24612,5.37539 -1.852,0.33926 -115.13265,0.35571 -117.13952,0.017 z m 79.41885,-10.54007 c 6.22613,-1.48221 11.14926,-4.28575 15.51924,-8.83762 4.09562,-4.26609 6.51458,-8.84353 8.07302,-15.27673 0.22909,-0.94567 0.34911,-3.1228 0.34278,-6.21771 -0.009,-4.31436 -0.0755,-5.00062 -0.70824,-7.29301 -1.5685,-5.6824 -4.22068,-10.33852 -8.13442,-14.28062 -7.78321,-7.83959 -18.98953,-10.87203 -29.77676,-8.0576 -5.19528,1.35547 -9.85851,4.04391 -13.7643,7.9354 -4.0395,4.02469 -6.71127,8.67167 -8.21457,14.2875 -0.94575,3.53298 -1.18005,9.16017 -0.5288,12.7 1.18357,6.43323 3.75341,11.56346 8.06263,16.09563 4.66348,4.90476 10.65877,8.13349 17.25906,9.29476 3.04815,0.53631 8.86822,0.3647 11.87036,-0.35 z m -10.80551,-6.00534 c -8.17624,-1.49288 -14.61752,-6.43254 -18.17243,-13.93599 -1.61791,-3.41495 -2.05798,-5.60564 -2.06075,-10.25844 -0.002,-3.65922 0.0713,-4.34333 0.68194,-6.35 0.37641,-1.23693 1.06075,-3.08239 1.52076,-4.10104 l 0.83637,-1.85208 0.63546,1.2411 c 2.66063,5.19643 10.58406,3.37191 10.54429,-2.42803 -0.0172,-2.51324 -1.85105,-4.93761 -4.11018,-5.4338 -1.03734,-0.22784 -0.73287,-0.60145 1.63791,-2.00991 5.83464,-3.46629 13.56893,-4.36122 19.91671,-2.30454 6.35219,2.05812 11.41801,6.38865 14.33942,12.25809 2.07502,4.16896 2.56774,6.2556 2.59277,10.98021 0.0243,4.5794 -0.49593,6.97511 -2.3267,10.71563 -4.79441,9.79561 -15.59209,15.38564 -26.03557,13.4788 z m 8.95342,-2.06182 c 4.32333,-1.21361 7.79826,-3.2262 10.86448,-6.29241 4.2185,-4.2185 7.15018,-10.81335 7.10043,-15.97249 l -0.0153,-1.5875 -0.36901,1.71979 c -1.29025,6.01318 -4.14402,10.99276 -8.82276,15.39495 -3.57999,3.36838 -7.87522,5.70044 -13.11193,7.11901 l -1.86361,0.50484 1.98438,-0.12744 c 1.0914,-0.0701 2.9964,-0.41152 4.23333,-0.75875 z m -9.1161,-25.16329 c 1.33328,-1.33328 0.44172,-3.5839 -1.41971,-3.5839 -1.7716,0 -2.61221,2.57606 -1.20246,3.68496 0.92478,0.72744 1.8285,0.69261 2.62217,-0.10106 z m 9.5619,-42.2299 c 1.69542,-0.64057 2.99379,-2.52659 2.99379,-4.34879 0,-1.82221 -1.29837,-3.70822 -2.99379,-4.3488 -0.42348,-0.16 -2.75609,-0.28141 -5.40657,-0.28141 -4.19219,0 -4.77713,0.0559 -5.80735,0.55458 -3.393,1.64252 -3.19816,6.76177 0.31708,8.33082 0.99117,0.44242 9.77394,0.51786 10.89684,0.0936 z m -72.84387,2.00663 c -0.28907,-0.75331 0.94904,-2.75449 2.13371,-3.44875 1.11349,-0.65255 1.17371,-0.65772 7.66064,-0.65772 7.00714,0 7.32079,0.0513 8.58513,1.40499 0.64164,0.68696 1.40861,2.54617 1.19376,2.8938 -0.0677,0.10952 -4.46556,0.19913 -9.77305,0.19913 -8.27428,0 -9.67139,-0.0558 -9.80019,-0.39145 z"
       id="path3789"
       inkscape:connector-curvature="0" />
    <path
       style="fill:#000000;stroke-width:0.26458335"
       d="m 64.12366,285.56944 c -1.19661,-0.76303 -9.251273,-8.58143 -12.609227,-12.23938 -1.627323,-1.7727 -3.449966,-3.75887 -4.050321,-4.41371 -0.600356,-0.65485 -2.165959,-2.50032 -3.479115,-4.10105 -8.141089,-9.92391 -13.181177,-18.27655 -16.763556,-27.78125 -1.622125,-4.30379 -2.916945,-11.3057 -2.911199,-15.74271 0.0029,-2.24733 0.607796,-6.75794 1.29507,-9.65729 2.382278,-10.04992 8.953401,-19.17669 17.748556,-24.65134 5.500664,-3.42395 9.505736,-4.90958 16.404167,-6.08491 7.110025,-1.21139 16.462435,0.21456 23.283335,3.54997 11.37886,5.56425 19.46287,15.4433 22.24648,27.18628 0.67993,2.86835 1.29232,7.39902 1.29663,9.59289 0.009,4.42461 -1.30052,11.52956 -2.91276,15.80711 -3.58239,9.5047 -8.62247,17.85734 -16.76356,27.78125 -1.31316,1.60073 -2.88266,3.4462 -3.48778,4.10105 -0.60512,0.65484 -1.80115,1.99092 -2.65785,2.96907 -2.42789,2.7721 -12.73885,12.85916 -13.88269,13.58124 -1.21134,0.76468 -1.69016,0.78254 -2.75618,0.10278 z m 6.80173,-11.8757 c 5.36865,-5.43021 8.22952,-8.53822 11.21676,-12.18573 0.41713,-0.50932 0.82358,-0.98557 0.90323,-1.05833 0.74669,-0.6821 7.13974,-9.3479 7.13974,-9.67794 0,-0.0808 0.28811,-0.52596 0.64024,-0.98919 1.40456,-1.8477 4.9339,-8.47625 6.23462,-11.7094 0.46409,-1.15359 0.94569,-2.33555 1.07022,-2.6266 0.40598,-0.9488 1.52684,-4.98916 1.83499,-6.61458 0.16553,-0.87313 0.41398,-2.16213 0.55211,-2.86446 0.13814,-0.70232 0.25115,-2.67676 0.25115,-4.38764 0,-7.67764 -2.47295,-15.02965 -7.14172,-21.23212 -2.61199,-3.47004 -6.16332,-6.78927 -9.26244,-8.65707 -1.45007,-0.87393 -6.23609,-3.20767 -6.57829,-3.20767 -0.16943,0 -0.5148,-0.1072 -0.76749,-0.23821 -0.25269,-0.13102 -1.11428,-0.42182 -1.91464,-0.64622 -4.56922,-1.28108 -8.70983,-1.69442 -12.61457,-1.25925 -3.533662,0.39381 -4.761715,0.66298 -8.287515,1.81646 -6.840443,2.23789 -12.522082,6.32888 -16.938861,12.19661 -4.696489,6.23933 -7.121785,13.44272 -7.133604,21.1876 -0.0099,6.49597 2.017448,13.77349 5.928199,21.28014 1.822395,3.49808 3.215918,5.91743 4.010271,6.96241 0.352134,0.46323 0.640244,0.90837 0.640244,0.98919 0,0.33004 6.393046,8.99584 7.139737,9.67794 0.07965,0.0728 0.486106,0.54901 0.903232,1.05833 3.126713,3.81781 5.932622,6.85102 11.575875,12.51361 4.518262,4.53376 5.002372,4.94403 5.481032,4.6451 0.28877,-0.18034 2.59163,-2.41818 5.11748,-4.97298 z M 60.419493,244.31045 c -5.084998,-1.29217 -8.199461,-3.02284 -11.662519,-6.4807 -4.592685,-4.5858 -6.984553,-10.78031 -6.64133,-17.19986 0.217472,-4.06748 0.559909,-5.54111 2.121181,-9.12813 1.144198,-2.62879 4.712872,-6.94703 7.33184,-8.87182 3.68637,-2.70927 9.429371,-4.62193 13.877915,-4.62193 2.89318,0 7.63931,1.14456 10.45104,2.52034 4.69534,2.29744 9.23802,7.19155 11.16776,12.03174 1.02854,2.5798 1.05916,2.67461 1.32454,4.10105 1.96151,10.54312 -2.6325,20.32092 -11.96313,25.46209 -4.50591,2.48276 -11.22915,3.40141 -16.007297,2.18722 z m 8.793597,-5.59196 c 6.26644,-1.49106 11.23102,-6.0423 13.09998,-12.0093 0.89191,-2.84759 1.07156,-5.09711 0.61541,-7.706 -0.50238,-2.87329 -1.18056,-4.64337 -2.67132,-6.97226 -2.36334,-3.69206 -5.37519,-6.00363 -9.73056,-7.46813 -2.358,-0.79288 -7.80205,-0.79288 -10.160045,0 -2.322435,0.78092 -3.45096,1.34094 -5.038479,2.5003 -3.167181,2.31296 -5.020953,4.7496 -6.626693,8.71026 -0.156025,0.38485 -0.485233,1.79644 -0.731568,3.13687 -0.383201,2.08517 -0.401259,2.72923 -0.125031,4.45965 1.166108,7.30507 5.27789,12.37913 12.045543,14.86456 2.109093,0.77457 7.028373,1.02998 9.322763,0.48405 z"
       id="path3802"
       inkscape:connector-curvature="0" />
  </g>
</svg>
