<?xml version="1.0" encoding="UTF-8" standalone="no"?>
<!-- Created with Inkscape (http://www.inkscape.org/) -->

<svg
   xmlns:dc="http://purl.org/dc/elements/1.1/"
   xmlns:cc="http://creativecommons.org/ns#"
   xmlns:rdf="http://www.w3.org/1999/02/22-rdf-syntax-ns#"
   xmlns:svg="http://www.w3.org/2000/svg"
   xmlns="http://www.w3.org/2000/svg"
   xmlns:sodipodi="http://sodipodi.sourceforge.net/DTD/sodipodi-0.dtd"
   xmlns:inkscape="http://www.inkscape.org/namespaces/inkscape"
   width="500"
   height="500"
   viewBox="0 0 132.29166 132.29167"
   version="1.1"
   id="svg8"
   inkscape:version="0.92.4 (5da689c313, 2019-01-14)"
   sodipodi:docname="photo.svg">
  <defs
     id="defs2" />
  <sodipodi:namedview
     id="base"
     pagecolor="#ffffff"
     bordercolor="#666666"
     borderopacity="1.0"
     inkscape:pageopacity="0.0"
     inkscape:pageshadow="2"
     inkscape:zoom="0.12374369"
     inkscape:cx="-742.66708"
     inkscape:cy="-2422.3888"
     inkscape:document-units="mm"
     inkscape:current-layer="layer1"
     showgrid="false"
     inkscape:window-width="2880"
     inkscape:window-height="1586"
     inkscape:window-x="-11"
     inkscape:window-y="-11"
     inkscape:window-maximized="1"
     units="px" />
  <metadata
     id="metadata5">
    <rdf:RDF>
      <cc:Work
         rdf:about="">
        <dc:format>image/svg+xml</dc:format>
        <dc:type
           rdf:resource="http://purl.org/dc/dcmitype/StillImage" />
        <dc:title />
      </cc:Work>
    </rdf:RDF>
  </metadata>
  <g
     inkscape:label="Calque 1"
     inkscape:groupmode="layer"
     id="layer1"
     transform="translate(0,-164.70832)"
     style="display:inline">
    <path
       style="fill:#000000;stroke-width:0.26458335"
       d="m 7.3881098,280.35832 c -2.61452,-0.44125 -5.7271,-2.62555 -6.85715997,-4.81211 -0.49266,-0.95327 -0.50733,-2.00934 -0.50733,-36.53329 v -35.55163 l 0.82796,-1.24999 c 1.01886997,-1.53821 2.71473997,-2.86224 4.68792997,-3.66002 l 1.49557,-0.60467 21.9604202,-0.13303 c 19.58787,-0.11865 22.07753,-0.18015 23.04447,-0.56931 3.25119,-1.30848 4.78929,-2.58621 9.3927,-7.80271 5.67259,-6.42806 8.33045,-7.4979 18.62741,-7.4979 10.56983,0 12.95382,1.01737 19.18107,8.1856 1.74083,2.00387 3.79272,4.12031 4.55975,4.7032 3.63034,2.7588 3.70838,2.77628 13.30085,2.97903 7.3946,0.1563 8.04149,0.20866 9.45797,0.76544 1.92428,0.75639 4.18224,2.7986 5.07495,4.59003 l 0.68062,1.36584 v 34.65722 c 0,34.38048 -0.004,34.66616 -0.54154,35.7759 -1.30982,2.70572 -4.14208,4.80678 -7.24612,5.37539 -1.852,0.33926 -115.1326499,0.35571 -117.1395202,0.017 z M 86.80696,269.81825 c 6.22613,-1.48221 11.14926,-4.28575 15.51924,-8.83762 4.09562,-4.26609 6.51458,-8.84353 8.07302,-15.27673 0.22909,-0.94567 0.34911,-3.1228 0.34278,-6.21771 -0.009,-4.31436 -0.0755,-5.00062 -0.70824,-7.29301 -1.5685,-5.6824 -4.22068,-10.33852 -8.13442,-14.28062 -7.78321,-7.83959 -18.98953,-10.87203 -29.77676,-8.0576 -5.19528,1.35547 -9.85851,4.04391 -13.7643,7.9354 -4.0395,4.02469 -6.71127,8.67167 -8.21457,14.2875 -0.94575,3.53298 -1.18005,9.16017 -0.5288,12.7 1.18357,6.43323 3.75341,11.56346 8.06263,16.09563 4.66348,4.90476 10.65877,8.13349 17.25906,9.29476 3.04815,0.53631 8.86822,0.3647 11.87036,-0.35 z m -10.80551,-6.00534 c -8.17624,-1.49288 -14.61752,-6.43254 -18.17243,-13.93599 -1.61791,-3.41495 -2.05798,-5.60564 -2.06075,-10.25844 -0.002,-3.65922 0.0713,-4.34333 0.68194,-6.35 0.37641,-1.23693 1.06075,-3.08239 1.52076,-4.10104 l 0.83637,-1.85208 0.63546,1.2411 c 2.66063,5.19643 10.58406,3.37191 10.54429,-2.42803 -0.0172,-2.51324 -1.85105,-4.93761 -4.11018,-5.4338 -1.03734,-0.22784 -0.73287,-0.60145 1.63791,-2.00991 5.83464,-3.46629 13.56893,-4.36122 19.91671,-2.30454 6.35219,2.05812 11.41801,6.38865 14.33942,12.25809 2.07502,4.16896 2.56774,6.2556 2.59277,10.98021 0.0243,4.5794 -0.49593,6.97511 -2.3267,10.71563 -4.79441,9.79561 -15.59209,15.38564 -26.03557,13.4788 z m 8.95342,-2.06182 c 4.32333,-1.21361 7.79826,-3.2262 10.86448,-6.29241 4.2185,-4.2185 7.15018,-10.81335 7.10043,-15.97249 l -0.0153,-1.5875 -0.36901,1.71979 c -1.29025,6.01318 -4.14402,10.99276 -8.82276,15.39495 -3.57999,3.36838 -7.87522,5.70044 -13.11193,7.11901 l -1.86361,0.50484 1.98438,-0.12744 c 1.0914,-0.0701 2.9964,-0.41152 4.23333,-0.75875 z m -9.1161,-25.16329 c 1.33328,-1.33328 0.44172,-3.5839 -1.41971,-3.5839 -1.7716,0 -2.61221,2.57606 -1.20246,3.68496 0.92478,0.72744 1.8285,0.69261 2.62217,-0.10106 z m 9.5619,-42.2299 c 1.69542,-0.64057 2.99379,-2.52659 2.99379,-4.34879 0,-1.82221 -1.29837,-3.70822 -2.99379,-4.3488 -0.42348,-0.16 -2.75609,-0.28141 -5.40657,-0.28141 -4.19219,0 -4.77713,0.0559 -5.80735,0.55458 -3.393,1.64252 -3.19816,6.76177 0.31708,8.33082 0.99117,0.44242 9.77394,0.51786 10.89684,0.0936 z m -72.84387,2.00663 c -0.28907,-0.75331 0.94904,-2.75449 2.13371,-3.44875 1.11349,-0.65255 1.17371,-0.65772 7.66064,-0.65772 7.00714,0 7.32079,0.0513 8.58513,1.40499 0.64164,0.68696 1.40861,2.54617 1.19376,2.8938 -0.0677,0.10952 -4.46556,0.19913 -9.77305,0.19913 -8.27428,0 -9.67139,-0.0558 -9.80019,-0.39145 z"
       id="path3789"
       inkscape:connector-curvature="0" />
  </g>
</svg>
