<svg xmlns="http://www.w3.org/2000/svg" viewBox="0 0 213.7 146.63" aria-hidden="true" focusable="false">
	<defs><style>.cls-1{fill:#1f1d21;}.cls-2{fill:none;}.cls-3{fill:#ffdb4c;}
</style></defs>
<path class="cls-1" d="M62.69,15.55A6.78,6.78,0,1,1,56,22.28,6.68,6.68,0,0,1,62.69,15.55Z"/>
<path class="cls-1" d="M61,.16h2.21V5.78h3V7.64H61Z"/>
<path class="cls-1" d="M70.37.16H72.5l3,7.48H73.22l-.56-1.42H70.21l-.56,1.42H67.38Zm1.78,4.38-.72-2.1-.71,2.1Z"/>
<path class="cls-1" d="M83.42,7.33A3.31,3.31,0,0,1,82,6a4.08,4.08,0,0,1-.5-2.08A4.08,4.08,0,0,1,82,1.83,3.36,3.36,0,0,1,83.42.47,4.83,4.83,0,0,1,85.6,0,6.22,6.22,0,0,1,87,.15a4.07,4.07,0,0,1,1.18.48V2.68a2.94,2.94,0,0,0-1.06-.53A5.08,5.08,0,0,0,85.79,2a2.19,2.19,0,0,0-1.53.48,1.89,1.89,0,0,0-.51,1.44,1.85,1.85,0,0,0,.53,1.44,2.19,2.19,0,0,0,1.51.48,4.73,4.73,0,0,0,1.36-.17,3.66,3.66,0,0,0,1.15-.54v2a5,5,0,0,1-2.7.65A4.7,4.7,0,0,1,83.42,7.33Z"/>
<path class="cls-1" d="M91.51,7.31a3.61,3.61,0,0,1-1.45-1.37,3.82,3.82,0,0,1-.53-2,3.86,3.86,0,0,1,.53-2A3.64,3.64,0,0,1,91.51.49,4.44,4.44,0,0,1,93.57,0a4.34,4.34,0,0,1,2.05.49,3.7,3.7,0,0,1,1.45,1.38,4,4,0,0,1,.53,2,3.91,3.91,0,0,1-.53,2,3.68,3.68,0,0,1-1.45,1.37,4.23,4.23,0,0,1-2.05.49A4.32,4.32,0,0,1,91.51,7.31Zm3-1.8a1.66,1.66,0,0,0,.63-.63,1.91,1.91,0,0,0,.24-1,1.79,1.79,0,0,0-.5-1.32,1.74,1.74,0,0,0-1.27-.49,1.77,1.77,0,0,0-1.28.49,1.75,1.75,0,0,0-.5,1.32,1.91,1.91,0,0,0,.23,1,1.68,1.68,0,0,0,.64.63,1.86,1.86,0,0,0,.91.22A1.82,1.82,0,0,0,94.47,5.51Z"/><path class="cls-1" d="M99.31.16h2l2,4.4,2-4.4h2V7.64h-2.07V4.33l-1.53,3.31h-.92l-1.53-3.31V7.64H99.31Z"/><path class="cls-1" d="M109.35.16h3.45A3.17,3.17,0,0,1,115,.85a2.48,2.48,0,0,1,.8,2,2.51,2.51,0,0,1-.8,2,3.17,3.17,0,0,1-2.15.69h-1.23V7.64h-2.22Zm3,3.59a1.37,1.37,0,0,0,.81-.21.81.81,0,0,0,.29-.71.82.82,0,0,0-.29-.71,1.37,1.37,0,0,0-.81-.2h-.81V3.75Z"/><path class="cls-1" d="M119.06.16h2.13l3,7.48h-2.27l-.55-1.42H118.9l-.56,1.42h-2.27Zm1.78,4.38-.72-2.1-.71,2.1Z"/><path class="cls-1" d="M127,7.33A3.31,3.31,0,0,1,125.6,6a4.08,4.08,0,0,1-.51-2.08,4.08,4.08,0,0,1,.51-2.08A3.36,3.36,0,0,1,127,.47,4.81,4.81,0,0,1,129.2,0a4.77,4.77,0,0,1,2.62.62V2.67a3.18,3.18,0,0,0-1.06-.52A5.13,5.13,0,0,0,129.4,2a2.11,2.11,0,0,0-1.53.51,1.84,1.84,0,0,0-.52,1.41,2,2,0,0,0,.5,1.44,2,2,0,0,0,1.44.48,2,2,0,0,0,.75-.12v-1h-1V3.35h3.05V7.1a5.32,5.32,0,0,1-2.86.7A4.69,4.69,0,0,1,127,7.33Z"/><path class="cls-1" d="M133.77.16h2.16l2.33,3.92V.16h2.22V7.64h-2.14L136,3.73V7.64h-2.22Z"/><path class="cls-1" d="M142.4.16h2.22V7.64H142.4Z"/><path class="cls-1" d="M146.55.16H152V2h-3.22v1h2.32v1.7h-2.32v1H152V7.64h-5.43Z"/><path class="cls-1" d="M158.08.16h2.77A4.92,4.92,0,0,1,163,.61a3.32,3.32,0,0,1,1.43,1.29,3.73,3.73,0,0,1,.51,2,3.55,3.55,0,0,1-1.1,2.82,4.47,4.47,0,0,1-3,.95h-2.75ZM161,5.78a1.6,1.6,0,0,0,1.27-.51,2.11,2.11,0,0,0,.44-1.4,2,2,0,0,0-.45-1.32A1.54,1.54,0,0,0,161,2h-.73V5.78Z"/><path class="cls-1" d="M166.67.16h5.43V2h-3.21v1h2.31v1.7h-2.31v1h3.21V7.64h-5.43Z"/><path class="cls-1" d="M174.67,7.66a4.54,4.54,0,0,1-1.18-.38v-2a4.82,4.82,0,0,0,1.24.48A4.93,4.93,0,0,0,176,6c.55,0,.82-.14.82-.44a.45.45,0,0,0-.12-.31,1.26,1.26,0,0,0-.37-.26l-.78-.36a4.23,4.23,0,0,1-1.51-1,2,2,0,0,1-.46-1.33,2,2,0,0,1,.37-1.18,2.34,2.34,0,0,1,1-.81A3.83,3.83,0,0,1,176.46,0a6.6,6.6,0,0,1,1.25.11,4.91,4.91,0,0,1,1.06.36v1.9a3.81,3.81,0,0,0-1.9-.52,1.49,1.49,0,0,0-.69.13.39.39,0,0,0-.26.35.43.43,0,0,0,.23.38,7.23,7.23,0,0,0,.88.41l.23.09a5.48,5.48,0,0,1,1.18.62,1.85,1.85,0,0,1,.59.7,2.52,2.52,0,0,1,.18,1,2,2,0,0,1-.77,1.66,3.74,3.74,0,0,1-2.32.59A7.19,7.19,0,0,1,174.67,7.66Z"/><polygon class="cls-1" points="183.6 0.08 183.6 7.55 206.22 7.55 206.22 101.12 157.7 101.12 157.7 108.6 213.7 108.6 213.7 0.08 183.6 0.08"/><polygon class="cls-1" points="0 0.08 0 108.6 51.89 108.6 51.89 146.63 75.5 123.01 75.5 113.03 75.2 112.74 59.36 128.58 59.36 101.12 7.48 101.12 7.48 7.55 55.62 7.55 55.62 0.08 0 0.08"/><path class="cls-1" d="M81.28,101.74h2.23a2,2,0,0,1,1.37.42,1.84,1.84,0,0,1,.1,2.31,1.66,1.66,0,0,1-1,.56l1.38,2.49h-.67l-1.36-2.46H81.92v2.46h-.64Zm2.15,2.78a1.47,1.47,0,0,0,.93-.28,1.23,1.23,0,0,0,0-1.7,1.49,1.49,0,0,0-.93-.26H81.92v2.24Z"/><path class="cls-1" d="M87.41,101.74h3.72v.54H88.06v2.07h2.3v.55h-2.3V107h3.07v.55H87.41Zm2-1.76h.67l-.66,1.4h-.57Z"/><path class="cls-1" d="M93.8,107.56a3.33,3.33,0,0,1-.76-.22v-.62a4,4,0,0,0,1.67.34,2,2,0,0,0,1.09-.24.8.8,0,0,0,.35-.72.92.92,0,0,0-.14-.53,1.11,1.11,0,0,0-.42-.34c-.18-.09-.5-.23-.94-.41a3.38,3.38,0,0,1-1.19-.72,1.43,1.43,0,0,1-.37-1,1.28,1.28,0,0,1,.24-.77,1.49,1.49,0,0,1,.67-.53,2.5,2.5,0,0,1,1-.19,5.12,5.12,0,0,1,.82.07,3.56,3.56,0,0,1,.72.23v.59a3.44,3.44,0,0,0-1.45-.31,1.72,1.72,0,0,0-1,.24.77.77,0,0,0-.34.67.92.92,0,0,0,.14.5,1.3,1.3,0,0,0,.44.38,7.79,7.79,0,0,0,.83.38,6.7,6.7,0,0,1,.94.43,1.52,1.52,0,0,1,.52.52,1.45,1.45,0,0,1,.19.79,1.35,1.35,0,0,1-.52,1.14,2.48,2.48,0,0,1-1.54.4A4.84,4.84,0,0,1,93.8,107.56Z"/><path class="cls-1" d="M98.87,101.74h3.72v.54H99.51v2.07h2.31v.55H99.51V107h3.08v.55H98.87Z"/><path class="cls-1" d="M106.8,101.74h.6l2.31,5.78h-.66l-.62-1.55h-2.67l-.61,1.55h-.66Zm1.44,3.69-1.15-3-1.14,3Z"/>
<path class="cls-1" d="M111.78,107.06a2.15,2.15,0,0,1-.58-1.61v-3.71h.64v3.76a1.48,1.48,0,0,0,.44,1.17,2.12,2.12,0,0,0,2.45,0,1.48,1.48,0,0,0,.44-1.17v-3.76h.64v3.71a2.15,2.15,0,0,1-.58,1.61,2.86,2.86,0,0,1-3.45,0Z"/>
<path class="cls-1" d="M122.22,101.74h.65V107h3.07v.55h-3.72Z"/>
<path class="cls-1" d="M128.67,107.27a2.74,2.74,0,0,1-1.09-1.07,3.28,3.28,0,0,1,0-3.14,2.85,2.85,0,0,1,1.08-1.07,3.35,3.35,0,0,1,3.1,0,2.85,2.85,0,0,1,1.08,1.07,3.28,3.28,0,0,1,0,3.14,2.74,2.74,0,0,1-1.09,1.07,3.39,3.39,0,0,1-3.08,0Zm2.75-.5a2.2,2.2,0,0,0,.86-.85,2.82,2.82,0,0,0,0-2.57,2.17,2.17,0,0,0-.85-.85,2.43,2.43,0,0,0-1.2-.3,2.48,2.48,0,0,0-1.22.3,2.2,2.2,0,0,0-.86.85,2.46,2.46,0,0,0-.32,1.28,2.57,2.57,0,0,0,.31,1.29,2.2,2.2,0,0,0,.86.85,2.67,2.67,0,0,0,2.42,0Z"/><path class="cls-1" d="M136.48,107.27a2.73,2.73,0,0,1-1.08-1,3.17,3.17,0,0,1-.38-1.59,3.11,3.11,0,0,1,.38-1.58,2.69,2.69,0,0,1,1.08-1.06,3.26,3.26,0,0,1,1.57-.38,3.1,3.1,0,0,1,2,.63v.63a2.79,2.79,0,0,0-1.94-.67,2.61,2.61,0,0,0-1.26.3,2.16,2.16,0,0,0-.87.85,2.5,2.5,0,0,0-.31,1.28,2.57,2.57,0,0,0,.32,1.29,2.16,2.16,0,0,0,.87.85,2.71,2.71,0,0,0,1.25.29,3.5,3.5,0,0,0,1.11-.16,2.52,2.52,0,0,0,.9-.55V107a3,3,0,0,1-2.06.65A3.25,3.25,0,0,1,136.48,107.27Z"/><path class="cls-1" d="M144.11,101.74h.61l2.3,5.78h-.66l-.62-1.55h-2.66l-.61,1.55h-.67Zm1.45,3.69-1.15-3-1.14,3Z"/><path class="cls-1" d="M149.09,101.74h.65V107h3.07v.55h-3.72Z"/><path class="cls-1" d="M81.28,114.79h1.78a3.51,3.51,0,0,1,1.61.35,2.45,2.45,0,0,1,1,1,3.09,3.09,0,0,1,.36,1.53,2.78,2.78,0,0,1-.83,2.18,3.37,3.37,0,0,1-2.32.74H81.28ZM82.89,120a2.66,2.66,0,0,0,1.92-.6,2.75,2.75,0,0,0,0-3.48,2.37,2.37,0,0,0-1.78-.61H81.92V120Z"/><path class="cls-1" d="M88.15,114.79h3.72v.55H88.79v2.07H91.1V118H88.79V120h3.08v.55H88.15Z"/><path class="cls-1" d="M99.46,120.33a2.69,2.69,0,0,1-1.08-1.06,3.4,3.4,0,0,1,0-3.16,2.69,2.69,0,0,1,1.08-1.06,3.22,3.22,0,0,1,1.56-.38,3.08,3.08,0,0,1,2,.63v.63a2.78,2.78,0,0,0-1.94-.67,2.71,2.71,0,0,0-1.25.29,2.22,2.22,0,0,0-.87.85,2.57,2.57,0,0,0-.32,1.29A2.51,2.51,0,0,0,99,119a2.25,2.25,0,0,0,.88.85,2.53,2.53,0,0,0,1.24.3,3.42,3.42,0,0,0,1.11-.16,2.63,2.63,0,0,0,.9-.55v.64a3,3,0,0,1-2.06.65A3.21,3.21,0,0,1,99.46,120.33Z"/><path class="cls-1" d="M106.26,120.32a2.69,2.69,0,0,1-1.08-1.06,3.28,3.28,0,0,1,0-3.14,2.71,2.71,0,0,1,1.08-1.07,3.18,3.18,0,0,1,1.55-.38,3.14,3.14,0,0,1,1.54.38,2.8,2.8,0,0,1,1.09,1.07,3.36,3.36,0,0,1,0,3.14,2.78,2.78,0,0,1-1.09,1.06,3.33,3.33,0,0,1-3.09,0Zm2.75-.5a2.13,2.13,0,0,0,.86-.85,2.51,2.51,0,0,0,.32-1.28,2.63,2.63,0,0,0-.31-1.28,2.17,2.17,0,0,0-.85-.85,2.47,2.47,0,0,0-1.21-.3,2.57,2.57,0,0,0-1.21.29,2.25,2.25,0,0,0-.87.86,2.53,2.53,0,0,0-.32,1.28,2.51,2.51,0,0,0,.32,1.28,2.13,2.13,0,0,0,.86.85,2.47,2.47,0,0,0,1.21.3A2.43,2.43,0,0,0,109,119.82Z"/><path class="cls-1" d="M114.18,120.32a2.78,2.78,0,0,1-1.09-1.06,3.28,3.28,0,0,1,0-3.14,2.84,2.84,0,0,1,1.08-1.07,3.35,3.35,0,0,1,3.1,0,2.71,2.71,0,0,1,1.08,1.07,3.28,3.28,0,0,1,0,3.14,2.71,2.71,0,0,1-1.09,1.06,3.31,3.31,0,0,1-3.08,0Zm2.75-.5a2.2,2.2,0,0,0,.86-.85,2.5,2.5,0,0,0,.31-1.28,2.53,2.53,0,0,0-.31-1.28,2.11,2.11,0,0,0-.85-.85,2.43,2.43,0,0,0-1.2-.3,2.61,2.61,0,0,0-1.22.29,2.22,2.22,0,0,0-.86.86,2.44,2.44,0,0,0-.32,1.28,2.5,2.5,0,0,0,.31,1.28,2.2,2.2,0,0,0,.86.85,2.59,2.59,0,0,0,2.42,0Z"/><path class="cls-1" d="M120.81,114.79H123a2.19,2.19,0,0,1,1.42.43,1.62,1.62,0,0,1,.5,1.28,1.54,1.54,0,0,1-.5,1.27,2.17,2.17,0,0,1-1.42.42h-1.5v2.39h-.65Zm2.1,2.86a1.69,1.69,0,0,0,1-.25,1.32,1.32,0,0,0,0-1.81,1.62,1.62,0,0,0-1-.25h-1.45v2.31Z"/><path class="cls-1" d="M126.79,114.79h3.72v.55h-3.08v2.07h2.31V118h-2.31V120h3.08v.55h-3.72Zm2-1.76h.67l-.66,1.41h-.57Z"/><path class="cls-1" d="M132.58,114.79h2.23a1.94,1.94,0,0,1,1.37.43,1.58,1.58,0,0,1,.46,1.24,1.63,1.63,0,0,1-.36,1.07,1.71,1.71,0,0,1-1,.56l1.38,2.49H136l-1.36-2.46h-1.38v2.46h-.64Zm2.15,2.78a1.41,1.41,0,0,0,.93-.28,1.22,1.22,0,0,0,0-1.69,1.49,1.49,0,0,0-.93-.26h-1.51v2.23Z"/><path class="cls-1" d="M140.48,114.79h.61l2.3,5.79h-.66l-.62-1.55h-2.66l-.61,1.55h-.67Zm1.45,3.69-1.15-2.94-1.14,2.94Z"/><path class="cls-1" d="M146,115.34H144.1v-.55h4.35v.55h-1.86v5.24H146Z"/><path class="cls-1" d="M150.36,114.79H151v5.79h-.64Z"/><path class="cls-1" d="M154.56,120.32a2.78,2.78,0,0,1-1.09-1.06,3.36,3.36,0,0,1,0-3.14,2.8,2.8,0,0,1,1.09-1.07,3.33,3.33,0,0,1,3.09,0,2.71,2.71,0,0,1,1.08,1.07,3.28,3.28,0,0,1,0,3.14,2.69,2.69,0,0,1-1.08,1.06,3.33,3.33,0,0,1-3.09,0Zm2.75-.5a2.13,2.13,0,0,0,.86-.85,2.51,2.51,0,0,0,.32-1.28,2.63,2.63,0,0,0-.31-1.28,2.13,2.13,0,0,0-.86-.85,2.43,2.43,0,0,0-1.2-.3,2.55,2.55,0,0,0-1.21.29,2.18,2.18,0,0,0-.87.86,2.53,2.53,0,0,0-.32,1.28A2.51,2.51,0,0,0,154,119a2.13,2.13,0,0,0,.86.85,2.57,2.57,0,0,0,2.41,0Z"/><path class="cls-1" d="M161.2,114.79h.62l3.18,4.69v-4.69h.65v5.79H165l-3.19-4.69v4.69h-.64Z"/><path class="cls-1" d="M49.28,36l.51-2.63H39.17V16h-.91c-2.43,10.11-8.8,16.89-16.59,19v1H26L26,56.16l13.21,0V36Z"/><path class="cls-1" d="M53.54,33.41v.2c3.33,2.12,4.24,4,4.24,11V56.12L71,56.1V33.41Z"/><path class="cls-1" d="M93.45,32.4c-10.18,0-19.36,9.4-20.25,23.7l37.75,0C110.92,42.46,105.36,32.4,93.45,32.4ZM86.88,53.94c.3-11.23,2.53-19.62,6.47-19.62,4.75,0,5.16,8.8,5.16,19.62Z"/><path class="cls-1" d="M134.48,40.69c3,0,4.45,1.82,4.45,4.55a4.63,4.63,0,0,1-2.83,4.45c.4.51,1.61,1,3.44,1,4.55,0,8.19-3.55,8.19-9.21,0-5.26-3.54-9-8.8-9-6.17,0-10,6.37-11.53,13.65V33.41H109.9v.2c3.33,2.12,4.25,4,4.25,11V56.06l13.25,0V54.45C127.4,46,130.74,40.69,134.48,40.69Z"/><path class="cls-1" d="M163.3,40.89c0-3.84,2.43-6.57,6.07-6.57,5.87,0,10.72,6.17,14.16,15.07h.31v-17c-1.52,1.51-2.63,2.42-4.35,2.42-2.94,0-5.37-2.42-10.42-2.42-7.69,0-14.57,6-14.57,15.17A15.4,15.4,0,0,0,156.66,56l24.73,0a34.83,34.83,0,0,0-8.78-5.27C165.22,47.47,163.3,45.14,163.3,40.89Z"/><polygon class="cls-3" points="25.15 86.76 54.47 86.76 54.47 75.57 38.64 75.57 38.64 59.88 25.15 59.88 25.15 86.76"/><rect class="cls-3" x="57.8" y="59.88" width="13.15" height="26.88"/><path class="cls-3" d="M73.14,64.24c0,14.65,7.64,23.37,20,23.37,8.54,0,15.46-4.58,17.52-13.3L99.21,71.07c-.81,4.05-2.7,6.38-5.93,6.38-4.32,0-6.83-3.86-6.92-10.87h24a40.35,40.35,0,0,0,.63-6.47v-.23H73.4A38.27,38.27,0,0,0,73.14,64.24Z"/>
<path class="cls-3" d="M150.56,59.88H137.4v8.86c0,5.81-2.39,8.37-5.55,8.37s-4.52-2.31-4.52-6V59.88H114.18V74.63c0,8.46,5.21,13,12,13,6,0,10.16-3.07,11.78-8.54l1.45,7.69h9.85l1.26-2.2Z"/>
<polygon class="cls-3" points="176.88 64.39 179.45 59.88 159.12 59.88 161.85 64.81 150.56 84.56 149.3 86.76 162.28 86.76 168.94 74.03 169.11 74.03 175.94 86.76 189.52 86.76 176.88 64.39"/></svg>