<svg xmlns="http://www.w3.org/2000/svg" width="100px" height="100px" viewBox="0 0 115.42607 144.49769">
  <g>
    <path
       style="fill:#FF0000;stroke-width:0.282223"
       d="M 50.766778,117.86487 V 90.419661 L 34.18528,106.99937 17.603787,123.57908 12.59515,118.57044 7.586517,113.56181 27.835409,93.311451 48.084305,73.06109 24.238021,49.213554 0.39173396,25.366016 5.400817,20.356932 l 5.009084,-5.009083 52.704005,52.704001 52.703994,52.704 -5.0085,5.0085 -5.0085,5.0085 -8.326366,-8.32279 -8.32638,-8.32278 -15.593301,15.5914 -15.5933,15.5914 H 54.364164 50.766778 Z M 72.285491,97.262482 65.442332,90.41932 v 13.68632 13.68632 l 6.843159,-6.84316 6.843165,-6.84316 z m 0.212175,-38.735947 -4.933061,-4.939109 5.781098,-5.78626 5.781095,-5.78626 -6.84223,-6.842236 -6.842236,-6.842234 v 11.358719 c 0,6.247291 -0.09618,11.358716 -0.213741,11.358716 -0.11756,0 -3.41956,-3.207669 -7.337777,-7.128148 L 50.766778,36.791576 V 18.801947 0.81231718 h 3.599058 3.599058 L 78.565331,21.414204 99.165764,42.016091 88.443774,52.74087 c -5.897093,5.898627 -10.787477,10.724777 -10.867519,10.724777 -0.08004,0 -2.365406,-2.2226 -5.078589,-4.939112 z"
       id="path170" />
  </g>
</svg>
