<?xml version="1.0" encoding="UTF-8" standalone="no"?>
<!-- Created with Inkscape (http://www.inkscape.org/) -->

<svg
   xmlns:dc="http://purl.org/dc/elements/1.1/"
   xmlns:cc="http://creativecommons.org/ns#"
   xmlns:rdf="http://www.w3.org/1999/02/22-rdf-syntax-ns#"
   xmlns:svg="http://www.w3.org/2000/svg"
   xmlns="http://www.w3.org/2000/svg"
   xmlns:sodipodi="http://sodipodi.sourceforge.net/DTD/sodipodi-0.dtd"
   xmlns:inkscape="http://www.inkscape.org/namespaces/inkscape"
   width="500"
   height="500"
   viewBox="0 0 132.29166 132.29167"
   version="1.1"
   id="svg8"
   inkscape:version="0.92.4 (5da689c313, 2019-01-14)"
   sodipodi:docname="artistes.svg">
  <defs
     id="defs2" />
  <sodipodi:namedview
     id="base"
     pagecolor="#ffffff"
     bordercolor="#666666"
     borderopacity="1.0"
     inkscape:pageopacity="0.0"
     inkscape:pageshadow="2"
     inkscape:zoom="0.0875"
     inkscape:cx="3162.653"
     inkscape:cy="-282.26019"
     inkscape:document-units="mm"
     inkscape:current-layer="layer1-3"
     showgrid="false"
     units="px"
     inkscape:window-width="1920"
     inkscape:window-height="1046"
     inkscape:window-x="2869"
     inkscape:window-y="-11"
     inkscape:window-maximized="1" />
  <metadata
     id="metadata5">
    <rdf:RDF>
      <cc:Work
         rdf:about="">
        <dc:format>image/svg+xml</dc:format>
        <dc:type
           rdf:resource="http://purl.org/dc/dcmitype/StillImage" />
        <dc:title></dc:title>
      </cc:Work>
    </rdf:RDF>
  </metadata>
  <g
     inkscape:label="Calque 1"
     inkscape:groupmode="layer"
     id="layer1"
     transform="translate(0,-164.70832)">
    <g
       id="g38"
       transform="translate(-1119.566,-145.64342)">
      <g
         style="display:inline"
         transform="translate(0,-164.70832)"
         id="layer1-3"
         inkscape:label="Calque 1">
        <path
           inkscape:connector-curvature="0"
           id="path3724"
           d="m 1175.7725,606.99222 c -13.9977,-0.9615 -27.3102,-5.89312 -36.4534,-13.5042 -3.2222,-2.68226 -4.2082,-4.46135 -4.696,-8.47318 -0.3447,-2.83503 0.052,-11.81271 0.6651,-15.04354 1.3815,-7.28261 6.1943,-15.66688 9.911,-17.26577 3.2561,-1.40074 3.8299,-1.4674 12.7139,-1.47722 7.4644,-0.008 8.4239,-0.0581 9.1917,-0.47769 1.1563,-0.63186 1.8403,-2.08227 2.067,-4.383 l 0.1885,-1.91273 -1.7158,-1.77727 c -2.7383,-2.83637 -4.7749,-6.38532 -5.6508,-9.84707 -0.3461,-1.36812 -0.6872,-1.9903 -1.6682,-3.0427 -1.6859,-1.80861 -2.9011,-3.7929 -3.4986,-5.71261 -0.5982,-1.92207 -0.6188,-3.17792 -0.075,-4.60614 0.2214,-0.58209 0.4638,-1.24983 0.5386,-1.48388 0.095,-0.29599 -0.2304,-0.64023 -1.0675,-1.13078 -2.9887,-1.7515 -5.7262,-5.18336 -5.712,-7.16072 0.023,-3.21 4.4087,-6.94306 11.239,-9.5667 1.9227,-0.73856 2.3265,-1.68569 2.2831,-5.35538 -0.018,-1.55056 -0.1963,-4.50143 -0.3956,-6.55749 -0.5486,-5.66095 -0.083,-7.62106 2.3433,-9.85721 1.5614,-1.43928 3.5649,-2.35849 6.1634,-2.82781 1.6862,-0.30455 2.9919,-0.31599 7.5073,-0.0658 4.1528,0.23012 6.7281,0.22781 10.7188,-0.01 4.4464,-0.26453 5.5946,-0.25284 7.4792,0.0762 3.765,0.65727 6.7157,2.48658 7.9668,4.93911 0.9539,1.86963 1.0869,3.45987 0.6513,7.7864 -0.5418,5.38281 -0.5277,9.16849 0.038,10.36185 0.4448,0.93734 0.7364,1.1168 3.57,2.19763 3.71,1.41512 8.0016,4.70213 9.0352,6.92021 1.2991,2.78808 -0.571,6.20902 -4.8321,8.83912 -0.8783,0.54213 -1.5969,1.01316 -1.5969,1.04674 0,0.0336 0.2506,0.62773 0.557,1.32034 1.2687,2.86806 0,7.10737 -3.1289,10.46781 -1.1729,1.25915 -1.6353,1.97682 -1.7782,2.75996 -0.5621,3.08118 -3.1274,7.67953 -6.0906,10.91776 l -1.5167,1.65735 0.1838,1.64994 c 0.2907,2.60925 0.94,3.81795 2.3972,4.46254 1.1687,0.51699 1.5274,0.53404 7.4848,0.35582 8.8981,-0.2662 13.1178,0.3725 15.7656,2.38631 2.277,1.73178 5.7898,7.51127 7.2933,11.99941 1.2057,3.59935 1.5629,5.85013 1.8693,11.77822 0.5215,10.08992 -0.2655,12.58097 -5.2437,16.59678 -8.6556,6.98219 -20.1849,11.4064 -33.4033,12.81811 -3.2683,0.34904 -17.2256,0.48068 -21.299,0.20088 z m 4.861,-41.08875 c 1.0383,-4.43838 1.8848,-8.24838 1.881,-8.46667 0,-0.21828 -0.5964,-1.34252 -1.317,-2.49831 -0.7207,-1.1558 -1.2781,-2.1337 -1.2386,-2.17311 0.039,-0.0394 0.6018,0.0876 1.2499,0.28237 2.0619,0.61957 4.2207,0.73669 6.2054,0.33668 1.0186,-0.20531 2.0799,-0.46931 2.3585,-0.58667 0.5829,-0.24563 0.6489,-0.3857 -1.1888,2.52238 l -1.2539,1.98437 2.0216,8.53282 c 1.1119,4.69304 2.094,8.53281 2.1825,8.53281 0.088,0 1.0016,-1.75617 2.0292,-3.90261 3.0896,-6.45299 4.8101,-11.60037 4.9014,-14.66313 0.043,-1.43625 -0.104,-2.03301 -1.0303,-4.18843 -0.5941,-1.38245 -1.1493,-2.71188 -1.2339,-2.9543 -0.1338,-0.38379 -0.4117,-0.31117 -2.1492,0.5617 -2.3524,1.1818 -4.7305,1.82478 -7.5545,2.04255 -3.648,0.28132 -8.7528,-0.82933 -11.1729,-2.4309 -0.5804,-0.38405 -1.1209,-0.63256 -1.2012,-0.55225 -0.1657,0.16571 -1.1115,2.38656 -2.0839,4.89316 -0.6192,1.59618 -0.6392,1.80645 -0.3529,3.70416 0.3288,2.17878 1.1833,5.09406 2.4124,8.22963 1.22,3.11244 4.2635,9.29275 4.4653,9.06722 0.1001,-0.11202 1.0316,-3.83508 2.0699,-8.27347 z m 8.8973,-20.1581 c 0.7276,-0.15454 2.1564,-0.6639 3.175,-1.13192 5.4098,-2.48555 8.9427,-7.80786 10.4558,-15.75165 0.3187,-1.67333 0.8147,-7.68189 0.6554,-7.93967 -0.059,-0.0949 -1.2738,0.0358 -2.7002,0.2905 -4.3484,0.77643 -8.3407,1.03278 -16.0839,1.03278 -7.7372,0 -11.7358,-0.25641 -16.0717,-1.03061 l -2.5814,-0.46092 v 2.10178 c 0,6.51624 2.1495,13.36762 5.4977,17.52372 1.5614,1.93809 4.6803,4.09068 7.0956,4.89716 2.8825,0.96251 7.3081,1.15903 10.5577,0.46883 z m -28.5887,-26.90733 c -0.089,-0.0893 -0.5096,0.22642 -0.9342,0.70156 -1.0476,1.17252 -1.0243,2.38991 0.088,4.58359 l 0.8599,1.69591 0.074,-3.40937 c 0.041,-1.87514 10e-4,-3.48241 -0.088,-3.57169 z m 49.2151,5.28313 c 1.2068,-2.38137 1.0996,-4.05299 -0.3196,-4.9865 l -0.5953,-0.39158 v 3.33957 c 0,1.83676 0.057,3.33956 0.1278,3.33956 0.07,0 0.4245,-0.58547 0.7871,-1.30105 z m -16.7207,-16.02106 c 5.0998,-0.93258 9.6772,-2.68036 11.6874,-4.4626 l 0.9442,-0.83715 -0.8603,-2.68664 -0.8603,-2.68664 -1.6765,1.01783 c -7.2597,4.40738 -18.7226,6.02256 -27.1361,3.8236 -3.1239,-0.81648 -6.7933,-2.53837 -9.0713,-4.25677 -0.4632,-0.34944 -0.8974,-0.63534 -0.9649,-0.63534 -0.2332,0 -0.7546,4.45854 -0.5841,4.99551 0.2555,0.80511 3.2279,3.18458 5.0465,4.03984 2.0465,0.96245 5.1737,1.74904 8.1926,2.0607 3.463,0.3575 12.4951,0.13745 15.2828,-0.37234 z"
           style="fill:#000000;stroke-width:0.26458335" />
      </g>
      <g
         style="opacity:0.99952608"
         inkscape:label="view"
         id="layer2" />
    </g>
  </g>
</svg>
