<?xml version="1.0" encoding="UTF-8" standalone="no"?>
<!-- Created with Inkscape (http://www.inkscape.org/) -->

<svg
   width="50.357651mm"
   height="22.201721mm"
   viewBox="0 0 50.357651 22.201721"
   version="1.1"
   id="svg1"
   xml:space="preserve"
   xmlns:xlink="http://www.w3.org/1999/xlink"
   xmlns="http://www.w3.org/2000/svg"
   xmlns:svg="http://www.w3.org/2000/svg"><defs
     id="defs1"><linearGradient
       id="linearGradient35"><stop
         style="stop-color:#e9b720;stop-opacity:1;"
         offset="0"
         id="stop35" /><stop
         style="stop-color:#e93363;stop-opacity:1;"
         offset="1"
         id="stop36" /></linearGradient><linearGradient
       id="linearGradient45"><stop
         style="stop-color:#3e94cb;stop-opacity:1;"
         offset="0"
         id="stop44" /><stop
         style="stop-color:#348bc0;stop-opacity:0;"
         offset="1"
         id="stop45" /></linearGradient><linearGradient
       id="linearGradient48"><stop
         style="stop-color:#00a746;stop-opacity:1;"
         offset="0"
         id="stop47" /><stop
         style="stop-color:#269f4c;stop-opacity:0;"
         offset="1"
         id="stop48" /></linearGradient><radialGradient
       xlink:href="#linearGradient35"
       id="radialGradient43-7-5-7"
       cx="1247.2418"
       cy="51.762833"
       fx="1247.2418"
       fy="51.762833"
       r="14.4836"
       gradientTransform="matrix(1.7383077,0.02049435,-0.01313334,1.1139556,-91.774171,71.008099)"
       gradientUnits="userSpaceOnUse" /><radialGradient
       xlink:href="#linearGradient45"
       id="radialGradient44-3-6-0"
       cx="1262.7365"
       cy="44.664909"
       fx="1262.7365"
       fy="44.664909"
       r="14.4836"
       gradientTransform="matrix(2.0600896,0.05467356,-0.01790279,0.67457375,-497.87454,49.506921)"
       gradientUnits="userSpaceOnUse" /><radialGradient
       xlink:href="#linearGradient48"
       id="radialGradient47-3-9-9"
       cx="1255.6011"
       cy="56.670609"
       fx="1255.6011"
       fy="56.670609"
       r="14.4836"
       gradientTransform="matrix(1.7384004,0.00988253,-0.00548099,0.96414213,-92.266755,91.727227)"
       gradientUnits="userSpaceOnUse" /></defs><g
     id="layer1"
     transform="translate(-2071.0583,-135.23362)"><path
       id="path96-5-1-8-2-0-9-8-5-7-3-0-59-4-1-5-6-1-9-6-4-4-1-0-2-9"
       style="fill:url(#radialGradient43-7-5-7);fill-opacity:1;stroke:none;stroke-width:0.864999;stroke-linejoin:round;stroke-dasharray:none"
       d="m 2074.9012,145.61339 c -2.2161,0 -3.748,0.94148 -3.748,0.94148 -0.068,0.002 -0.078,0.005 -0.078,0.0674 l -0.017,6.38463 v 0.0117 0.60639 0.0216 1.04569 l 0.017,-0.005 c 0,0 0.8951,0.10629 1.2226,0.38 0.8723,0.72913 1.0257,1.9349 1.0519,2.27195 v 0.0961 h 1.4895 c 0,-0.43174 0.3507,-0.78154 0.7825,-0.78157 0.4318,0 0.7816,0.34981 0.7816,0.78157 h 1.4903 c 0,-0.43176 0.3498,-0.78157 0.7816,-0.78157 0.4319,0 0.7816,0.34981 0.7816,0.78157 h 1.4904 c 0,-0.43176 0.3498,-0.78157 0.7816,-0.78157 0.017,0 0.024,0.002 0.037,0.002 0,-5.3e-4 0.017,-10e-4 0.021,-0.002 0.3178,4e-5 0.6043,0.19261 0.7243,0.48691 v -0.0225 c 0.045,0.0994 0.071,0.20657 0.071,0.31713 h 1.3701 c 0,-0.43653 0.3522,-0.78856 0.7814,-0.78876 0.4228,1.2e-4 0.7693,0.34186 0.7816,0.77169 0.4943,-0.0381 0.9504,-0.17373 1.363,-0.41954 0.4985,-0.30124 0.8932,-0.70074 1.184,-1.1993 0.2908,-0.49859 0.4356,-1.04965 0.4356,-1.65209 0,-0.43625 -0.083,-0.85133 -0.2489,-1.24602 -0.1669,-0.39472 -0.4002,-0.74266 -0.7015,-1.04389 0.2805,-0.23889 0.5195,-0.55087 0.7168,-0.93519 0.2077,-0.38431 0.3117,-0.79937 0.3117,-1.24602 0,-0.55051 -0.1356,-1.0598 -0.4051,-1.52721 -0.2699,-0.46741 -0.6383,-0.84069 -1.1058,-1.12115 -0.4674,-0.29084 -0.9971,-0.4366 -1.5892,-0.4366 h -2.9915 c -9e-4,0 0,8.8e-4 0,9e-4 -0.05,-0.002 -1.7802,-0.0625 -2.6591,-0.16171 -1.6526,-0.18648 -1.7345,-0.81661 -4.9212,-0.81661 z m 15.7742,0.91184 c -0.042,0 -0.063,0.0204 -0.063,0.062 l -0.017,10.70393 c 0,0.052 0.026,0.0782 0.078,0.0782 h 1.7608 c 0.042,0 0.063,-0.0262 0.063,-0.0782 l -0.017,-10.70393 c 0,-0.0416 -0.021,-0.062 -0.063,-0.062 z m 4.385,0 c -0.052,0 -0.078,0.0262 -0.078,0.0782 l -0.017,10.68776 c 0,0.052 0.021,0.0782 0.063,0.0782 h 5.0326 c 0.052,0 0.078,-0.0262 0.078,-0.0782 v -1.76078 c 0,-0.0518 -0.026,-0.0773 -0.078,-0.0773 h -3.2099 l 0.017,-8.84972 c 0,-0.052 -0.026,-0.0782 -0.078,-0.0782 z m 6.8338,0 c -0.052,0 -0.078,0.0262 -0.078,0.0782 l -0.017,10.68776 c 0,0.052 0.021,0.0782 0.062,0.0782 h 5.0326 c 0.052,0 0.078,-0.0262 0.078,-0.0782 v -1.76078 c 0,-0.0518 -0.026,-0.0773 -0.078,-0.0773 h -3.2098 l 0.017,-8.84972 c 0,-0.052 -0.026,-0.0782 -0.078,-0.0782 z m 6.7492,0 c -0.042,0 -0.062,0.0204 -0.062,0.062 l -0.017,10.70393 c 0,0.052 0.021,0.0782 0.063,0.0782 h 5.0325 c 0.042,0 0.063,-0.0206 0.063,-0.062 v -1.77605 c 0,-0.0518 -0.021,-0.0782 -0.063,-0.0782 h -3.2098 v -2.72652 h 3.2098 c 0.042,0 0.063,-0.0213 0.063,-0.0629 l -0.017,-1.75988 c 0,-0.0416 -0.021,-0.0629 -0.062,-0.0629 h -3.1946 v -2.43096 h 3.1946 c 0.042,0 0.062,-0.0204 0.062,-0.062 v -1.74461 c 0,-0.052 -0.021,-0.0782 -0.062,-0.0782 z m 6.7756,0 c -0.042,0 -0.063,0.0204 -0.063,0.062 l -0.017,1.74551 c 0,0.052 0.026,0.0773 0.078,0.0773 h 2.0258 v 8.88116 c 0,0.052 0.021,0.0782 0.063,0.0782 h 1.76 c 0.042,0 0.063,-0.0262 0.063,-0.0782 l -0.017,-8.88116 h 2.0411 c 0.042,0 0.063,-0.0253 0.063,-0.0773 v -1.74551 c 0,-0.0416 -0.026,-0.062 -0.078,-0.062 z m -34.8122,1.20829 h 8e-4 c 0.057,0.0175 0.2796,0.0486 0.3404,0.10961 0.082,0.0767 0.1235,0.194 0.1235,0.35305 0,0.16498 -0.05,0.31237 -0.1496,0.44199 -0.094,0.12969 -0.2468,0.19405 -0.4589,0.19405 -0.1304,0 -0.2366,-0.0374 -0.319,-0.1141 -0.082,-0.0824 -0.1234,-0.20079 -0.1234,-0.35395 0,-0.17089 0.047,-0.32137 0.1408,-0.45097 0.068,-0.0876 0.3353,-0.15158 0.4457,-0.17968 z m -3.5567,0.55967 v 0 c 0,0 0.283,0.0271 0.3361,0.0799 0.052,0.053 0.062,0.132 0.026,0.23807 l -0.433,1.71497 h 1.114 c 0.071,0 0.1199,0.0291 0.1495,0.088 0.03,0.053 0.03,0.1413 0,0.26502 -0.024,0.11786 -0.061,0.20609 -0.1148,0.26501 -0.054,0.0589 -0.1147,0.088 -0.1849,0.088 h -1.149 l -0.45,1.71497 c -0.064,0.24243 -0.097,0.45652 -0.097,0.64502 0,0.18849 0.033,0.34436 0.08,0.46804 0.054,0.12378 0.1234,0.21818 0.2121,0.28299 0.094,0.0589 0.2002,0.088 0.3179,0.088 v 9e-4 c 0,9e-5 2e-4,-9e-4 0.017,-9e-4 0.1356,0 0.2884,-0.0676 0.4591,-0.20303 0.1704,-0.13542 0.3682,-0.3505 0.5921,-0.64502 0.2179,-0.30043 0.4776,-0.69821 0.778,-1.19302 0.2654,-0.43731 0.5698,-0.96456 0.909,-1.57212 l 0.037,-0.15093 c 0.035,-0.11196 0.08,-0.18564 0.1321,-0.221 0.059,-0.0353 0.1478,-0.053 0.266,-0.053 0.1704,0 0.282,0.0262 0.335,0.0791 0.052,0.053 0.063,0.13301 0.026,0.23896 l -0.8391,3.31315 c -0.03,0.12951 -0.038,0.22715 -0.026,0.29196 0.017,0.0589 0.064,0.088 0.1408,0.088 0.054,0 0.1026,-0.0175 0.1495,-0.053 0.047,-0.0353 0.1008,-0.0852 0.1582,-0.15003 0.064,-0.0708 0.1391,-0.16214 0.2209,-0.27399 0.042,-0.0589 0.085,-0.0913 0.1322,-0.097 0.054,-0.0122 0.1112,0.003 0.1769,0.044 0.094,0.053 0.153,0.10907 0.1761,0.16799 0.024,0.053 0.017,0.10905 -0.017,0.16798 -0.1113,0.19439 -0.2293,0.35642 -0.3531,0.48601 -0.1234,0.12952 -0.2577,0.22409 -0.399,0.28298 -0.1356,0.0649 -0.282,0.097 -0.441,0.097 -0.3122,0 -0.5179,-0.11737 -0.618,-0.35306 -0.094,-0.24153 -0.077,-0.5925 0.054,-1.05198 l 0.2487,-1.03131 c -0.045,0.0791 -0.09,0.16221 -0.1338,0.23627 -0.3241,0.55372 -0.6125,0.99212 -0.8659,1.31609 -0.2533,0.32399 -0.4953,0.55666 -0.7251,0.69803 -0.2356,0.13542 -0.4807,0.20392 -0.734,0.20392 0,0 7e-4,-0.002 -0.017,-0.002 l -0.017,0.002 c -0.2651,0 -0.4853,-0.0592 -0.662,-0.17697 -0.1703,-0.12378 -0.3005,-0.28574 -0.389,-0.48602 -0.089,-0.20616 -0.1356,-0.44193 -0.1408,-0.707 0,-0.26507 0.026,-0.53925 0.097,-0.822 l 0.433,-1.67005 h -0.6712 c -0.071,0 -0.1199,-0.0291 -0.1495,-0.088 -0.024,-0.0589 -0.024,-0.14714 0,-0.26502 0.024,-0.1236 0.063,-0.21201 0.1148,-0.26501 0.059,-0.0589 0.1217,-0.088 0.1849,-0.088 h 0.7071 l 0.4511,-1.75898 c 0.028,-0.11043 0.064,-0.18566 0.1234,-0.221 0.059,-0.0353 0.1478,-0.0538 0.2641,-0.053 z m 7.2407,0.15182 h 1.1841 c 0.3324,0 0.6182,0.12439 0.857,0.37372 0.2389,0.23891 0.3576,0.52466 0.3576,0.85703 0,0.30124 -0.1147,0.58118 -0.3423,0.84087 -0.2181,0.24928 -0.5086,0.37461 -0.8723,0.37461 h -1.1841 z m 0,4.33098 h 0.9496 c 0.3739,0 0.6966,0.13515 0.9667,0.40516 0.27,0.27005 0.4367,0.47476 0.4501,0.77259 0.017,0.25037 -0.1234,0.52441 -0.319,0.68096 -0.2926,0.23403 -0.7239,0.24166 -1.0978,0.24166 h -0.9657 z" /><path
       id="path96-5-1-8-2-0-9-8-5-7-3-0-59-4-1-5-6-1-9-6-4-4-1-7-8-5-2"
       style="fill:url(#radialGradient44-3-6-0);fill-opacity:1;stroke:none;stroke-width:0.864999;stroke-linejoin:round;stroke-dasharray:none"
       d="m 2074.9012,145.61339 c -2.2161,0 -3.748,0.94148 -3.748,0.94148 -0.068,0.002 -0.078,0.005 -0.078,0.0674 l -0.017,6.38463 v 0.0117 0.60639 0.0216 1.04569 l 0.017,-0.005 c 0,0 0.8951,0.10629 1.2226,0.38 0.8723,0.72913 1.0257,1.9349 1.0519,2.27195 v 0.0961 h 1.4895 c 0,-0.43174 0.3507,-0.78154 0.7825,-0.78157 0.4318,0 0.7816,0.34981 0.7816,0.78157 h 1.4903 c 0,-0.43176 0.3498,-0.78157 0.7816,-0.78157 0.4319,0 0.7816,0.34981 0.7816,0.78157 h 1.4904 c 0,-0.43176 0.3498,-0.78157 0.7816,-0.78157 0.017,0 0.024,0.002 0.037,0.002 0,-5.3e-4 0.017,-10e-4 0.021,-0.002 0.3178,4e-5 0.6043,0.19261 0.7243,0.48691 v -0.0225 c 0.045,0.0994 0.071,0.20657 0.071,0.31713 h 1.3701 c 0,-0.43653 0.3522,-0.78856 0.7814,-0.78876 0.4228,1.2e-4 0.7693,0.34186 0.7816,0.77169 0.4943,-0.0381 0.9504,-0.17373 1.363,-0.41954 0.4985,-0.30124 0.8932,-0.70074 1.184,-1.1993 0.2908,-0.49859 0.4356,-1.04965 0.4356,-1.65209 0,-0.43625 -0.083,-0.85133 -0.2489,-1.24602 -0.1669,-0.39472 -0.4002,-0.74266 -0.7015,-1.04389 0.2805,-0.23889 0.5195,-0.55087 0.7168,-0.93519 0.2077,-0.38431 0.3117,-0.79937 0.3117,-1.24602 0,-0.55051 -0.1356,-1.0598 -0.4051,-1.52721 -0.2699,-0.46741 -0.6383,-0.84069 -1.1058,-1.12115 -0.4674,-0.29084 -0.9971,-0.4366 -1.5892,-0.4366 h -2.9915 c -9e-4,0 0,8.8e-4 0,9e-4 -0.05,-0.002 -1.7802,-0.0625 -2.6591,-0.16171 -1.6526,-0.18648 -1.7345,-0.81661 -4.9212,-0.81661 z m 15.7742,0.91184 c -0.042,0 -0.063,0.0204 -0.063,0.062 l -0.017,10.70393 c 0,0.052 0.026,0.0782 0.078,0.0782 h 1.7608 c 0.042,0 0.063,-0.0262 0.063,-0.0782 l -0.017,-10.70393 c 0,-0.0416 -0.021,-0.062 -0.063,-0.062 z m 4.385,0 c -0.052,0 -0.078,0.0262 -0.078,0.0782 l -0.017,10.68776 c 0,0.052 0.021,0.0782 0.063,0.0782 h 5.0326 c 0.052,0 0.078,-0.0262 0.078,-0.0782 v -1.76078 c 0,-0.0518 -0.026,-0.0773 -0.078,-0.0773 h -3.2099 l 0.017,-8.84972 c 0,-0.052 -0.026,-0.0782 -0.078,-0.0782 z m 6.8338,0 c -0.052,0 -0.078,0.0262 -0.078,0.0782 l -0.017,10.68776 c 0,0.052 0.021,0.0782 0.062,0.0782 h 5.0326 c 0.052,0 0.078,-0.0262 0.078,-0.0782 v -1.76078 c 0,-0.0518 -0.026,-0.0773 -0.078,-0.0773 h -3.2098 l 0.017,-8.84972 c 0,-0.052 -0.026,-0.0782 -0.078,-0.0782 z m 6.7492,0 c -0.042,0 -0.062,0.0204 -0.062,0.062 l -0.017,10.70393 c 0,0.052 0.021,0.0782 0.063,0.0782 h 5.0325 c 0.042,0 0.063,-0.0206 0.063,-0.062 v -1.77605 c 0,-0.0518 -0.021,-0.0782 -0.063,-0.0782 h -3.2098 v -2.72652 h 3.2098 c 0.042,0 0.063,-0.0213 0.063,-0.0629 l -0.017,-1.75988 c 0,-0.0416 -0.021,-0.0629 -0.062,-0.0629 h -3.1946 v -2.43096 h 3.1946 c 0.042,0 0.062,-0.0204 0.062,-0.062 v -1.74461 c 0,-0.052 -0.021,-0.0782 -0.062,-0.0782 z m 6.7756,0 c -0.042,0 -0.063,0.0204 -0.063,0.062 l -0.017,1.74551 c 0,0.052 0.026,0.0773 0.078,0.0773 h 2.0258 v 8.88116 c 0,0.052 0.021,0.0782 0.063,0.0782 h 1.76 c 0.042,0 0.063,-0.0262 0.063,-0.0782 l -0.017,-8.88116 h 2.0411 c 0.042,0 0.063,-0.0253 0.063,-0.0773 v -1.74551 c 0,-0.0416 -0.026,-0.062 -0.078,-0.062 z m -34.8122,1.20829 h 8e-4 c 0.057,0.0175 0.2796,0.0486 0.3404,0.10961 0.082,0.0767 0.1235,0.194 0.1235,0.35305 0,0.16498 -0.05,0.31237 -0.1496,0.44199 -0.094,0.12969 -0.2468,0.19405 -0.4589,0.19405 -0.1304,0 -0.2366,-0.0374 -0.319,-0.1141 -0.082,-0.0824 -0.1234,-0.20079 -0.1234,-0.35395 0,-0.17089 0.047,-0.32137 0.1408,-0.45097 0.068,-0.0876 0.3353,-0.15158 0.4457,-0.17968 z m -3.5567,0.55967 v 0 c 0,0 0.283,0.0271 0.3361,0.0799 0.052,0.053 0.062,0.132 0.026,0.23807 l -0.433,1.71497 h 1.114 c 0.071,0 0.1199,0.0291 0.1495,0.088 0.03,0.053 0.03,0.1413 0,0.26502 -0.024,0.11786 -0.061,0.20609 -0.1148,0.26501 -0.054,0.0589 -0.1147,0.088 -0.1849,0.088 h -1.149 l -0.45,1.71497 c -0.064,0.24243 -0.097,0.45652 -0.097,0.64502 0,0.18849 0.033,0.34436 0.08,0.46804 0.054,0.12378 0.1234,0.21818 0.2121,0.28299 0.094,0.0589 0.2002,0.088 0.3179,0.088 v 9e-4 c 0,9e-5 2e-4,-9e-4 0.017,-9e-4 0.1356,0 0.2884,-0.0676 0.4591,-0.20303 0.1704,-0.13542 0.3682,-0.3505 0.5921,-0.64502 0.2179,-0.30043 0.4776,-0.69821 0.778,-1.19302 0.2654,-0.43731 0.5698,-0.96456 0.909,-1.57212 l 0.037,-0.15093 c 0.035,-0.11196 0.08,-0.18564 0.1321,-0.221 0.059,-0.0353 0.1478,-0.053 0.266,-0.053 0.1704,0 0.282,0.0262 0.335,0.0791 0.052,0.053 0.063,0.13301 0.026,0.23896 l -0.8391,3.31315 c -0.03,0.12951 -0.038,0.22715 -0.026,0.29196 0.017,0.0589 0.064,0.088 0.1408,0.088 0.054,0 0.1026,-0.0175 0.1495,-0.053 0.047,-0.0353 0.1008,-0.0852 0.1582,-0.15003 0.064,-0.0708 0.1391,-0.16214 0.2209,-0.27399 0.042,-0.0589 0.085,-0.0913 0.1322,-0.097 0.054,-0.0122 0.1112,0.003 0.1769,0.044 0.094,0.053 0.153,0.10907 0.1761,0.16799 0.024,0.053 0.017,0.10905 -0.017,0.16798 -0.1113,0.19439 -0.2293,0.35642 -0.3531,0.48601 -0.1234,0.12952 -0.2577,0.22409 -0.399,0.28298 -0.1356,0.0649 -0.282,0.097 -0.441,0.097 -0.3122,0 -0.5179,-0.11737 -0.618,-0.35306 -0.094,-0.24153 -0.077,-0.5925 0.054,-1.05198 l 0.2487,-1.03131 c -0.045,0.0791 -0.09,0.16221 -0.1338,0.23627 -0.3241,0.55372 -0.6125,0.99212 -0.8659,1.31609 -0.2533,0.32399 -0.4953,0.55666 -0.7251,0.69803 -0.2356,0.13542 -0.4807,0.20392 -0.734,0.20392 0,0 7e-4,-0.002 -0.017,-0.002 l -0.017,0.002 c -0.2651,0 -0.4853,-0.0592 -0.662,-0.17697 -0.1703,-0.12378 -0.3005,-0.28574 -0.389,-0.48602 -0.089,-0.20616 -0.1356,-0.44193 -0.1408,-0.707 0,-0.26507 0.026,-0.53925 0.097,-0.822 l 0.433,-1.67005 h -0.6712 c -0.071,0 -0.1199,-0.0291 -0.1495,-0.088 -0.024,-0.0589 -0.024,-0.14714 0,-0.26502 0.024,-0.1236 0.063,-0.21201 0.1148,-0.26501 0.059,-0.0589 0.1217,-0.088 0.1849,-0.088 h 0.7071 l 0.4511,-1.75898 c 0.028,-0.11043 0.064,-0.18566 0.1234,-0.221 0.059,-0.0353 0.1478,-0.0538 0.2641,-0.053 z m 7.2407,0.15182 h 1.1841 c 0.3324,0 0.6182,0.12439 0.857,0.37372 0.2389,0.23891 0.3576,0.52466 0.3576,0.85703 0,0.30124 -0.1147,0.58118 -0.3423,0.84087 -0.2181,0.24928 -0.5086,0.37461 -0.8723,0.37461 h -1.1841 z m 0,4.33098 h 0.9496 c 0.3739,0 0.6966,0.13515 0.9667,0.40516 0.27,0.27005 0.4367,0.47476 0.4501,0.77259 0.017,0.25037 -0.1234,0.52441 -0.319,0.68096 -0.2926,0.23403 -0.7239,0.24166 -1.0978,0.24166 h -0.9657 z" /><path
       id="path96-5-1-8-2-0-9-8-5-7-3-0-59-4-1-5-6-1-9-6-4-4-1-8-5-4-0"
       style="fill:url(#radialGradient47-3-9-9);fill-opacity:1;stroke:none;stroke-width:0.864999;stroke-linejoin:round;stroke-dasharray:none"
       d="m 2074.9012,145.61339 c -2.2161,0 -3.748,0.94148 -3.748,0.94148 -0.068,0.002 -0.078,0.005 -0.078,0.0674 l -0.017,6.38463 v 0.0117 0.60639 0.0216 1.04569 l 0.017,-0.005 c 0,0 0.8951,0.10629 1.2226,0.38 0.8723,0.72913 1.0257,1.9349 1.0519,2.27195 v 0.0961 h 1.4895 c 0,-0.43174 0.3507,-0.78154 0.7825,-0.78157 0.4318,0 0.7816,0.34981 0.7816,0.78157 h 1.4903 c 0,-0.43176 0.3498,-0.78157 0.7816,-0.78157 0.4319,0 0.7816,0.34981 0.7816,0.78157 h 1.4904 c 0,-0.43176 0.3498,-0.78157 0.7816,-0.78157 0.017,0 0.024,0.002 0.037,0.002 0,-5.3e-4 0.017,-10e-4 0.021,-0.002 0.3178,4e-5 0.6043,0.19261 0.7243,0.48691 v -0.0225 c 0.045,0.0994 0.071,0.20657 0.071,0.31713 h 1.3701 c 0,-0.43653 0.3522,-0.78856 0.7814,-0.78876 0.4228,1.2e-4 0.7693,0.34186 0.7816,0.77169 0.4943,-0.0381 0.9504,-0.17373 1.363,-0.41954 0.4985,-0.30124 0.8932,-0.70074 1.184,-1.1993 0.2908,-0.49859 0.4356,-1.04965 0.4356,-1.65209 0,-0.43625 -0.083,-0.85133 -0.2489,-1.24602 -0.1669,-0.39472 -0.4002,-0.74266 -0.7015,-1.04389 0.2805,-0.23889 0.5195,-0.55087 0.7168,-0.93519 0.2077,-0.38431 0.3117,-0.79937 0.3117,-1.24602 0,-0.55051 -0.1356,-1.0598 -0.4051,-1.52721 -0.2699,-0.46741 -0.6383,-0.84069 -1.1058,-1.12115 -0.4674,-0.29084 -0.9971,-0.4366 -1.5892,-0.4366 h -2.9915 c -9e-4,0 0,8.8e-4 0,9e-4 -0.05,-0.002 -1.7802,-0.0625 -2.6591,-0.16171 -1.6526,-0.18648 -1.7345,-0.81661 -4.9212,-0.81661 z m 15.7742,0.91184 c -0.042,0 -0.063,0.0204 -0.063,0.062 l -0.017,10.70393 c 0,0.052 0.026,0.0782 0.078,0.0782 h 1.7608 c 0.042,0 0.063,-0.0262 0.063,-0.0782 l -0.017,-10.70393 c 0,-0.0416 -0.021,-0.062 -0.063,-0.062 z m 4.385,0 c -0.052,0 -0.078,0.0262 -0.078,0.0782 l -0.017,10.68776 c 0,0.052 0.021,0.0782 0.063,0.0782 h 5.0326 c 0.052,0 0.078,-0.0262 0.078,-0.0782 v -1.76078 c 0,-0.0518 -0.026,-0.0773 -0.078,-0.0773 h -3.2099 l 0.017,-8.84972 c 0,-0.052 -0.026,-0.0782 -0.078,-0.0782 z m 6.8338,0 c -0.052,0 -0.078,0.0262 -0.078,0.0782 l -0.017,10.68776 c 0,0.052 0.021,0.0782 0.062,0.0782 h 5.0326 c 0.052,0 0.078,-0.0262 0.078,-0.0782 v -1.76078 c 0,-0.0518 -0.026,-0.0773 -0.078,-0.0773 h -3.2098 l 0.017,-8.84972 c 0,-0.052 -0.026,-0.0782 -0.078,-0.0782 z m 6.7492,0 c -0.042,0 -0.062,0.0204 -0.062,0.062 l -0.017,10.70393 c 0,0.052 0.021,0.0782 0.063,0.0782 h 5.0325 c 0.042,0 0.063,-0.0206 0.063,-0.062 v -1.77605 c 0,-0.0518 -0.021,-0.0782 -0.063,-0.0782 h -3.2098 v -2.72652 h 3.2098 c 0.042,0 0.063,-0.0213 0.063,-0.0629 l -0.017,-1.75988 c 0,-0.0416 -0.021,-0.0629 -0.062,-0.0629 h -3.1946 v -2.43096 h 3.1946 c 0.042,0 0.062,-0.0204 0.062,-0.062 v -1.74461 c 0,-0.052 -0.021,-0.0782 -0.062,-0.0782 z m 6.7756,0 c -0.042,0 -0.063,0.0204 -0.063,0.062 l -0.017,1.74551 c 0,0.052 0.026,0.0773 0.078,0.0773 h 2.0258 v 8.88116 c 0,0.052 0.021,0.0782 0.063,0.0782 h 1.76 c 0.042,0 0.063,-0.0262 0.063,-0.0782 l -0.017,-8.88116 h 2.0411 c 0.042,0 0.063,-0.0253 0.063,-0.0773 v -1.74551 c 0,-0.0416 -0.026,-0.062 -0.078,-0.062 z m -34.8122,1.20829 h 8e-4 c 0.057,0.0175 0.2796,0.0486 0.3404,0.10961 0.082,0.0767 0.1235,0.194 0.1235,0.35305 0,0.16498 -0.05,0.31237 -0.1496,0.44199 -0.094,0.12969 -0.2468,0.19405 -0.4589,0.19405 -0.1304,0 -0.2366,-0.0374 -0.319,-0.1141 -0.082,-0.0824 -0.1234,-0.20079 -0.1234,-0.35395 0,-0.17089 0.047,-0.32137 0.1408,-0.45097 0.068,-0.0876 0.3353,-0.15158 0.4457,-0.17968 z m -3.5567,0.55967 v 0 c 0,0 0.283,0.0271 0.3361,0.0799 0.052,0.053 0.062,0.132 0.026,0.23807 l -0.433,1.71497 h 1.114 c 0.071,0 0.1199,0.0291 0.1495,0.088 0.03,0.053 0.03,0.1413 0,0.26502 -0.024,0.11786 -0.061,0.20609 -0.1148,0.26501 -0.054,0.0589 -0.1147,0.088 -0.1849,0.088 h -1.149 l -0.45,1.71497 c -0.064,0.24243 -0.097,0.45652 -0.097,0.64502 0,0.18849 0.033,0.34436 0.08,0.46804 0.054,0.12378 0.1234,0.21818 0.2121,0.28299 0.094,0.0589 0.2002,0.088 0.3179,0.088 v 9e-4 c 0,9e-5 2e-4,-9e-4 0.017,-9e-4 0.1356,0 0.2884,-0.0676 0.4591,-0.20303 0.1704,-0.13542 0.3682,-0.3505 0.5921,-0.64502 0.2179,-0.30043 0.4776,-0.69821 0.778,-1.19302 0.2654,-0.43731 0.5698,-0.96456 0.909,-1.57212 l 0.037,-0.15093 c 0.035,-0.11196 0.08,-0.18564 0.1321,-0.221 0.059,-0.0353 0.1478,-0.053 0.266,-0.053 0.1704,0 0.282,0.0262 0.335,0.0791 0.052,0.053 0.063,0.13301 0.026,0.23896 l -0.8391,3.31315 c -0.03,0.12951 -0.038,0.22715 -0.026,0.29196 0.017,0.0589 0.064,0.088 0.1408,0.088 0.054,0 0.1026,-0.0175 0.1495,-0.053 0.047,-0.0353 0.1008,-0.0852 0.1582,-0.15003 0.064,-0.0708 0.1391,-0.16214 0.2209,-0.27399 0.042,-0.0589 0.085,-0.0913 0.1322,-0.097 0.054,-0.0122 0.1112,0.003 0.1769,0.044 0.094,0.053 0.153,0.10907 0.1761,0.16799 0.024,0.053 0.017,0.10905 -0.017,0.16798 -0.1113,0.19439 -0.2293,0.35642 -0.3531,0.48601 -0.1234,0.12952 -0.2577,0.22409 -0.399,0.28298 -0.1356,0.0649 -0.282,0.097 -0.441,0.097 -0.3122,0 -0.5179,-0.11737 -0.618,-0.35306 -0.094,-0.24153 -0.077,-0.5925 0.054,-1.05198 l 0.2487,-1.03131 c -0.045,0.0791 -0.09,0.16221 -0.1338,0.23627 -0.3241,0.55372 -0.6125,0.99212 -0.8659,1.31609 -0.2533,0.32399 -0.4953,0.55666 -0.7251,0.69803 -0.2356,0.13542 -0.4807,0.20392 -0.734,0.20392 0,0 7e-4,-0.002 -0.017,-0.002 l -0.017,0.002 c -0.2651,0 -0.4853,-0.0592 -0.662,-0.17697 -0.1703,-0.12378 -0.3005,-0.28574 -0.389,-0.48602 -0.089,-0.20616 -0.1356,-0.44193 -0.1408,-0.707 0,-0.26507 0.026,-0.53925 0.097,-0.822 l 0.433,-1.67005 h -0.6712 c -0.071,0 -0.1199,-0.0291 -0.1495,-0.088 -0.024,-0.0589 -0.024,-0.14714 0,-0.26502 0.024,-0.1236 0.063,-0.21201 0.1148,-0.26501 0.059,-0.0589 0.1217,-0.088 0.1849,-0.088 h 0.7071 l 0.4511,-1.75898 c 0.028,-0.11043 0.064,-0.18566 0.1234,-0.221 0.059,-0.0353 0.1478,-0.0538 0.2641,-0.053 z m 7.2407,0.15182 h 1.1841 c 0.3324,0 0.6182,0.12439 0.857,0.37372 0.2389,0.23891 0.3576,0.52466 0.3576,0.85703 0,0.30124 -0.1147,0.58118 -0.3423,0.84087 -0.2181,0.24928 -0.5086,0.37461 -0.8723,0.37461 h -1.1841 z m 0,4.33098 h 0.9496 c 0.3739,0 0.6966,0.13515 0.9667,0.40516 0.27,0.27005 0.4367,0.47476 0.4501,0.77259 0.017,0.25037 -0.1234,0.52441 -0.319,0.68096 -0.2926,0.23403 -0.7239,0.24166 -1.0978,0.24166 h -0.9657 z" /><path
       id="path47-4-1-9-5-4-4-9-6-6-8-8-7-0-6-9-1-2-4-1-7-5-6-9-6-4-8"
       style="color:#000000;fill:#63515e;fill-opacity:1;stroke-width:0.999998;stroke-linejoin:round;-inkscape-stroke:none"
       d="m 2077.5672,135.23361 c -0.8553,0.0252 -1.7105,0.32052 -2.3176,0.94309 -0.3166,0.43326 -0.5619,0.44969 -1.001,0.17518 -0.7755,-0.12795 -1.6635,0.0564 -2.2335,0.61805 0.1252,0.15819 0.4464,0.0474 0.6491,0.0956 0.3072,0.0266 1.0936,-0.0226 0.3865,0.14572 -0.6764,0.26391 -1.2423,0.80263 -1.5653,1.44694 0.326,0.12517 0.7903,-0.3508 1.1524,-0.42116 0.3461,-0.12499 1.2807,-0.65096 1.2635,-0.5395 -0.5876,0.66944 -0.8043,1.65568 -0.6258,2.52077 0.2535,0.38899 0.6435,-0.54642 0.8945,-0.69039 0.4995,-0.55317 0.8076,-1.26375 0.8408,-2.01073 0.779,0.92811 1.143,2.15222 1.0583,3.35535 -0.021,0.89943 -0.1595,1.79118 -0.3203,2.67477 -1.6616,-0.072 -3.3531,0.43622 -4.6819,1.43816 0.3072,0.23903 1.1551,-0.25609 1.6422,-0.20413 1.559,-0.22836 3.1773,-0.35573 4.7109,0.0946 2.2268,0.58839 4.2701,0.83165 6.5784,0.44752 0.7167,-0.12864 1.4616,-0.28041 2.0758,-0.69246 0.073,-0.29207 -0.2026,-0.54328 -0.3467,-0.7767 -0.4156,-0.58506 -0.7928,-1.12647 -1.1648,-1.65985 l 0.7364,-3.48609 c 0.2146,0.10963 1.6568,0.82416 4.0669,1.61592 l 0.9436,2.36833 a 0.14343469,0.14343469 0 0 0 0.2382,0.045 l 1.4692,-1.64228 c 0.7549,0.19259 1.5516,0.37713 2.4035,0.54106 l 1.1756,1.90892 a 0.14343469,0.14343469 0 0 0 0.2382,0.0134 l 1.1679,-1.51205 c 0.8482,0.10725 1.7296,0.19027 2.6391,0.24339 l 1.3581,1.84278 a 0.14343469,0.14343469 0 0 0 0.2408,-0.0171 l 0.9478,-1.76217 c 1.131,-0.008 2.207,-0.0542 3.1931,-0.12299 l 1.264,1.5658 a 0.14343469,0.14343469 0 0 0 0.2377,-0.0165 l 1.0123,-1.78748 c 1.6585,-0.19483 2.6607,-0.37847 2.9626,-0.4377 l 0.4052,2.50837 -1.4051,0.93328 a 0.4149923,0.4149923 0 0 0 0.2294,0.76067 h 6.9552 a 0.4149923,0.4149923 0 0 0 0.3121,-0.68833 l -2.3565,-2.69751 a 0.4149923,0.4149923 0 0 0 -0.3565,-0.139 0.4149923,0.4149923 0 0 0 -0.3189,0.21084 l -0.4413,0.7953 -0.3044,-0.30903 a 0.4149923,0.4149923 0 0 0 -0.5255,-0.0543 l -1.1167,0.74156 -0.6444,-3.46646 a 0.14343469,0.14343469 0 0 0 -0.1422,-0.11575 h -0.3669 a 0.14343469,0.14343469 0 0 0 -0.1426,0.16588 l 0.1178,0.72812 c -0.532,0.10487 -4.1845,0.79375 -8.9054,0.79375 -9.4258,0 -16.3488,-3.62304 -16.3488,-3.62304 a 0.3172632,0.3172632 0 0 0 -0.073,-0.006 l 0.2434,-1.15135 c 0.017,-0.0689 -0.023,-0.13852 -0.089,-0.16381 l -0.6041,-0.20671 c -0.026,-0.0101 -0.054,-0.0124 -0.082,-0.007 -0.055,0.0115 -0.098,0.0539 -0.1116,0.10852 l -0.9421,4.49792 c -0.4079,-0.57702 -0.8242,-1.15816 -1.2944,-1.78335 -0.3442,0.1702 -0.547,0.65225 -0.8408,0.92501 -0.2111,0.28374 -0.4065,0.66166 -0.5623,0.0987 -0.4475,-0.67573 -0.8852,-1.36122 -1.3513,-2.02262 -0.3411,0.18599 -0.4914,0.73964 -0.7762,1.02785 -0.2955,0.40883 -0.5557,0.85874 -0.8723,1.24281 -0.2479,0.13804 -0.5783,0.18637 -0.6831,0.48731 -0.092,0.092 -0.3011,0.60488 -0.3008,0.36639 -0.017,-1.03544 0.017,-2.12469 -0.5338,-3.04839 -0.1147,-0.38404 -0.7229,-0.999 -0.677,-1.19838 0.9287,0.10865 1.8566,0.22962 2.7864,0.32504 0,-0.48651 -0.7891,-0.91959 -1.2733,-1.06763 -0.3419,-0.18721 -1.2158,-0.005 -1.2893,-0.0698 0.5069,-0.34789 1.0018,-0.72913 1.449,-1.14825 0.017,-0.0348 -0.021,-0.0734 -0.057,-0.0713 z" /></g></svg>
