<?xml version="1.0" encoding="UTF-8" standalone="no"?>
<!-- Created with Inkscape (http://www.inkscape.org/) -->

<svg
   width="17.517666mm"
   height="11.8215mm"
   viewBox="0 0 17.517666 11.8215"
   version="1.1"
   id="svg1"
   xml:space="preserve"
   xmlns="http://www.w3.org/2000/svg"
   xmlns:svg="http://www.w3.org/2000/svg"><defs
     id="defs1" /><g
     id="layer1"
     transform="translate(-1224.8488,104.00573)"><g
       id="g50-4-5-8-9-9-0-4"
       transform="matrix(1.7384285,0,0,1.7384285,-994.12359,-196.60673)"
       style="fill:#ffffff;stroke-width:0.575231"><path
         id="path96-5-1-8-2-0-9-8-5-7-3-0-59-4-1-5-6-1-9-6-4-4-1-8-5-4-8-3-0-6-3"
         style="fill:#ffffff;fill-opacity:1;stroke:none;stroke-width:0.497575;stroke-linejoin:round;stroke-dasharray:none"
         d="m 1278.6353,53.2671 c -1.2748,0 -2.156,0.541569 -2.156,0.541569 -0.039,0.0011 -0.045,0.0031 -0.045,0.03876 l -0.01,3.672644 v 0.0067 0.348816 0.0124 0.601514 l 0.01,-0.0031 c 0,0 0.5149,0.06114 0.7033,0.218591 0.5018,0.419418 0.59,1.113017 0.6051,1.306897 v 0.05529 h 0.8568 c 0,-0.24835 0.2017,-0.449565 0.4501,-0.449585 0.2484,0 0.4496,0.201225 0.4496,0.449585 h 0.8573 c 0,-0.24836 0.2012,-0.449585 0.4496,-0.449585 0.2484,0 0.4496,0.201225 0.4496,0.449585 h 0.8573 c 0,-0.24836 0.2012,-0.449585 0.4496,-0.449585 0.01,0 0.014,10e-4 0.021,10e-4 0,-3.1e-4 0.01,-8.63e-4 0.012,-10e-4 0.1828,2.8e-5 0.3476,0.110796 0.4166,0.280086 v -0.01292 c 0.026,0.05717 0.041,0.118824 0.041,0.182418 h 0.7881 c 0,-0.251101 0.2026,-0.453603 0.4495,-0.453719 0.2432,7e-5 0.4425,0.196652 0.4496,0.4439 0.2843,-0.0219 0.5467,-0.09993 0.784,-0.241329 0.2868,-0.173283 0.5138,-0.403091 0.6811,-0.68988 0.1673,-0.2868 0.2506,-0.60379 0.2506,-0.95033 0,-0.250947 -0.048,-0.489715 -0.1432,-0.716752 -0.096,-0.22706 -0.2302,-0.427203 -0.4035,-0.60048 0.1613,-0.13742 0.2988,-0.316879 0.4123,-0.537952 0.1195,-0.221069 0.1793,-0.459822 0.1793,-0.716752 0,-0.31667 -0.078,-0.60963 -0.233,-0.878499 -0.1553,-0.26887 -0.3672,-0.483592 -0.6361,-0.644922 -0.2689,-0.1673 -0.5736,-0.251148 -0.9142,-0.251148 h -1.7208 c -5e-4,0 -6e-4,5.08e-4 0,5.17e-4 -0.029,-9.92e-4 -1.024,-0.03595 -1.5296,-0.09302 -0.9506,-0.107267 -0.9977,-0.469739 -2.8308,-0.469739 z m 3.282,1.219564 h 5e-4 c 0.033,0.01007 0.1608,0.02795 0.1958,0.06305 0.047,0.0441 0.071,0.111598 0.071,0.203088 0,0.0949 -0.029,0.179688 -0.086,0.254248 -0.054,0.0746 -0.142,0.111621 -0.264,0.111621 -0.075,0 -0.1361,-0.02153 -0.1835,-0.06563 -0.047,-0.0474 -0.071,-0.115505 -0.071,-0.203605 0,-0.0983 0.027,-0.184865 0.081,-0.259415 0.039,-0.05041 0.1929,-0.08719 0.2564,-0.103353 z m -2.0459,0.321944 v 0 c 0,0 0.1628,0.01559 0.1933,0.04599 0.03,0.0305 0.036,0.07593 0.015,0.136942 l -0.2491,0.986504 h 0.6408 c 0.041,0 0.069,0.01674 0.086,0.05064 0.017,0.0305 0.017,0.08128 0,0.152446 -0.014,0.0678 -0.035,0.118555 -0.066,0.152445 -0.031,0.0339 -0.066,0.05064 -0.1064,0.05064 h -0.6609 l -0.2589,0.986503 c -0.037,0.139452 -0.056,0.262607 -0.056,0.371037 0,0.108427 0.019,0.198084 0.046,0.269234 0.031,0.0712 0.071,0.125501 0.122,0.162781 0.054,0.0339 0.1152,0.05064 0.1829,0.05064 v 5.17e-4 c 0,5e-5 10e-5,-5.17e-4 0.01,-5.17e-4 0.078,0 0.1659,-0.03887 0.2641,-0.116789 0.098,-0.0779 0.2118,-0.20162 0.3406,-0.371036 0.1253,-0.172819 0.2747,-0.401637 0.4475,-0.686263 0.1527,-0.251559 0.3278,-0.554846 0.5229,-0.904338 l 0.021,-0.08682 c 0.02,-0.0644 0.046,-0.106784 0.076,-0.127124 0.034,-0.0203 0.085,-0.03049 0.153,-0.03049 0.098,0 0.1622,0.01508 0.1927,0.04548 0.03,0.0305 0.036,0.07651 0.015,0.137459 l -0.4827,1.905827 c -0.017,0.0745 -0.022,0.130668 -0.015,0.167948 0.01,0.0339 0.037,0.05064 0.081,0.05064 0.031,0 0.059,-0.01009 0.086,-0.03049 0.027,-0.0203 0.058,-0.049 0.091,-0.0863 0.037,-0.0407 0.08,-0.09327 0.1271,-0.157613 0.024,-0.0339 0.049,-0.05251 0.076,-0.05581 0.031,-0.007 0.064,0.0019 0.1018,0.02532 0.054,0.0305 0.088,0.06274 0.1013,0.09663 0.014,0.0305 0.01,0.06273 -0.01,0.09663 -0.064,0.11182 -0.1319,0.205023 -0.2031,0.27957 -0.071,0.0745 -0.1482,0.1289 -0.2295,0.16278 -0.078,0.0373 -0.1622,0.05581 -0.2537,0.05581 -0.1796,0 -0.2979,-0.06751 -0.3555,-0.203089 -0.054,-0.138936 -0.044,-0.340824 0.031,-0.605131 l 0.1431,-0.593245 c -0.026,0.0455 -0.052,0.09331 -0.077,0.135909 -0.1864,0.31852 -0.3523,0.5707 -0.4981,0.75706 -0.1457,0.186369 -0.2849,0.320206 -0.4171,0.401526 -0.1355,0.0779 -0.2765,0.117305 -0.4222,0.117305 0,0 4e-4,-0.001 -0.01,-0.001 l -0.01,0.001 c -0.1525,0 -0.2792,-0.03407 -0.3808,-0.101802 -0.098,-0.0712 -0.1729,-0.164363 -0.2238,-0.27957 -0.051,-0.11859 -0.078,-0.254214 -0.081,-0.406693 0,-0.152476 0.015,-0.31019 0.056,-0.47284 l 0.2491,-0.960665 h -0.3861 c -0.041,0 -0.069,-0.01674 -0.086,-0.05064 -0.014,-0.0339 -0.014,-0.08464 0,-0.152445 0.014,-0.0711 0.036,-0.121956 0.066,-0.152446 0.034,-0.0339 0.07,-0.05064 0.1064,-0.05064 h 0.4067 l 0.2595,-1.011825 c 0.016,-0.06352 0.037,-0.106794 0.071,-0.127124 0.034,-0.0203 0.085,-0.03097 0.1519,-0.03049 z m 4.1651,0.08733 h 0.6811 c 0.1912,0 0.3556,0.07155 0.493,0.214974 0.1374,0.13743 0.2057,0.301803 0.2057,0.492993 0,0.17328 -0.066,0.334313 -0.1969,0.483692 -0.1255,0.143399 -0.2926,0.21549 -0.5018,0.21549 h -0.6811 z m 0,2.491321 h 0.5462 c 0.2151,0 0.4007,0.07774 0.5561,0.233061 0.1553,0.155339 0.2512,0.273094 0.2589,0.444417 0.01,0.144019 -0.071,0.301659 -0.1835,0.391707 -0.1683,0.134624 -0.4164,0.13901 -0.6315,0.13901 h -0.5555 z" /></g></g></svg>
