<?xml version="1.0" encoding="UTF-8" standalone="no"?>
<!-- Created with Inkscape (http://www.inkscape.org/) -->

<svg
   width="68.805618mm"
   height="30.33363mm"
   viewBox="0 0 68.805618 30.33363"
   version="1.1"
   id="svg1"
   xml:space="preserve"
   xmlns="http://www.w3.org/2000/svg"
   xmlns:svg="http://www.w3.org/2000/svg"><defs
     id="defs1" /><g
     id="layer1"
     transform="translate(-2065.5312,-45.977475)"><path
       id="path47-4-1-9-5-4-4-9-6-6-8-8-7-0-6-9-1-2-4-1-7-5-6-1-1"
       style="color:#000000;fill-opacity:1;stroke:none;stroke-width:0.999998;stroke-linejoin:round;-inkscape-stroke:none"
       d="m 2074.4258,45.977555 c -1.1684,0.03454 -2.3373,0.438306 -3.1667,1.288811 -0.4325,0.591987 -0.7674,0.613822 -1.3674,0.238745 -1.0596,-0.174819 -2.2726,0.077 -3.0514,0.844393 0.171,0.216148 0.6092,0.06494 0.8862,0.130741 0.4197,0.03634 1.4941,-0.03097 0.5281,0.198954 -0.9242,0.360589 -1.697,1.096797 -2.1383,1.977141 0.4454,0.171018 1.0798,-0.479549 1.5745,-0.575676 0.4729,-0.170782 1.7495,-0.888691 1.726,-0.736389 -0.8028,0.914666 -1.0986,2.261716 -0.8547,3.443717 0.3463,0.531489 0.8792,-0.746375 1.2222,-0.943095 0.6824,-0.755808 1.1038,-1.726493 1.1492,-2.747119 1.0643,1.268105 1.5616,2.940345 1.4459,4.584217 -0.028,1.228913 -0.2185,2.447799 -0.4382,3.655074 -2.2703,-0.09834 -4.5808,0.595239 -6.3965,1.964221 0.4197,0.326599 1.5777,-0.349532 2.2433,-0.278536 2.1301,-0.312014 4.3413,-0.486026 6.4368,0.129191 3.0424,0.803931 5.8343,1.136171 8.9881,0.611332 0.9794,-0.175769 1.9974,-0.383187 2.8365,-0.946195 0.1,-0.399069 -0.2764,-0.742508 -0.4733,-1.061434 -0.5678,-0.799358 -1.0834,-1.538812 -1.5917,-2.267562 l 1.0062,-4.763017 c 0.2949,0.150609 2.2648,1.12636 5.5562,2.207617 l 1.2899,3.235979 a 0.19597894,0.19597894 0 0 0 0.325,0.0615 l 2.0076,-2.243791 c 1.0314,0.263126 2.1201,0.515008 3.2841,0.738973 l 1.6066,2.608109 a 0.19597894,0.19597894 0 0 0 0.3256,0.0186 l 1.5957,-2.066024 c 1.1588,0.146513 2.3629,0.259719 3.6055,0.33228 l 1.8552,2.518192 a 0.19597894,0.19597894 0 0 0 0.3291,-0.02325 l 1.2951,-2.408122 c 1.5453,-0.01102 3.0153,-0.07341 4.3625,-0.167432 l 1.728,2.139405 a 0.19597894,0.19597894 0 0 0 0.3241,-0.02326 l 1.3833,-2.441711 c 2.2652,-0.266116 3.6339,-0.516874 4.0468,-0.597897 l 0.554,3.427181 -1.9198,1.274858 a 0.5670159,0.5670159 0 0 0 0.3142,1.039213 h 9.5023 a 0.5670159,0.5670159 0 0 0 0.4268,-0.939994 l -3.22,-3.685563 a 0.5670159,0.5670159 0 0 0 -0.4867,-0.190686 0.5670159,0.5670159 0 0 0 -0.4357,0.288871 l -0.603,1.086238 -0.416,-0.422196 a 0.5670159,0.5670159 0 0 0 -0.7178,-0.07441 l -1.5255,1.013375 -0.8806,-4.736145 a 0.19597894,0.19597894 0 0 0 -0.1948,-0.15813 h -0.5013 a 0.19597894,0.19597894 0 0 0 -0.1948,0.226859 l 0.1607,0.994255 c -0.7278,0.143463 -5.7176,1.084688 -12.1672,1.084688 -12.8787,0 -22.3376,-4.950085 -22.3376,-4.950085 a 0.43348583,0.43348583 0 0 0 -0.1003,-0.0083 l 0.3323,-1.573548 c 0.024,-0.09418 -0.031,-0.188682 -0.1214,-0.223242 l -0.8253,-0.28267 c -0.035,-0.01359 -0.073,-0.01705 -0.1101,-0.0098 -0.076,0.01496 -0.1355,0.07283 -0.1545,0.148312 l -1.2873,6.146395 c -0.5574,-0.788458 -1.1269,-1.582787 -1.7694,-2.437061 -0.4703,0.232539 -0.7467,0.89081 -1.1482,1.263489 -0.2883,0.387691 -0.5555,0.904009 -0.7684,0.134875 -0.6114,-0.923264 -1.2096,-1.859446 -1.8464,-2.763138 -0.466,0.254129 -0.6713,1.010254 -1.0604,1.404048 -0.4038,0.558591 -0.7591,1.173837 -1.1917,1.698605 -0.3387,0.188595 -0.7901,0.25441 -0.9333,0.665592 -0.1259,0.125652 -0.4118,0.826607 -0.4113,0.500745 -0.024,-1.414754 0.024,-2.903049 -0.7292,-4.165121 -0.1568,-0.524719 -0.9877,-1.365206 -0.925,-1.637626 1.2689,0.148454 2.5365,0.313523 3.807,0.443901 0,-0.664741 -1.0784,-1.256033 -1.7399,-1.458309 -0.4672,-0.255792 -1.6607,-0.0072 -1.7612,-0.09508 0.6926,-0.475337 1.3688,-0.996244 1.9798,-1.568896 0.024,-0.04734 -0.028,-0.100651 -0.078,-0.09819 z m -3.6426,14.181564 c -3.0279,0 -5.1207,1.286226 -5.1207,1.286226 -0.093,0.0026 -0.1069,0.0078 -0.1069,0.0925 l -0.024,8.723498 v 0.0155 0.82889 0.02946 1.428336 l 0.024,-0.0072 c 0,0 1.2227,0.145358 1.6702,0.519348 1.192,0.99623 1.4017,2.643687 1.4376,3.104203 v 0.131258 h 2.035 c 0,-0.589896 0.4792,-1.067587 1.0692,-1.067635 0.59,0 1.0682,0.477715 1.0682,1.067635 h 2.036 c 0,-0.58992 0.4782,-1.067635 1.0682,-1.067635 0.5901,0 1.0676,0.477715 1.0676,1.067635 h 2.0366 c 0,-0.58992 0.4775,-1.067635 1.0676,-1.067635 0.024,0 0.033,0.0021 0.05,0.0021 0,-7.37e-4 0.024,-0.0017 0.028,-0.0021 0.4342,6.7e-5 0.8252,0.262967 0.9891,0.665076 v -0.03049 c 0.062,0.135794 0.097,0.281995 0.097,0.433048 h 1.8717 c 0,-0.596431 0.4816,-1.077177 1.0681,-1.077453 0.5776,1.67e-4 1.0508,0.46692 1.0677,1.054199 0.6753,-0.05202 1.2983,-0.237232 1.8619,-0.573092 0.6813,-0.411592 1.2207,-0.95746 1.618,-1.638659 0.3974,-0.681226 0.5953,-1.434103 0.5953,-2.257227 0,-0.596064 -0.1142,-1.163466 -0.3401,-1.702738 -0.228,-0.539328 -0.5469,-1.014692 -0.9586,-1.42627 0.3832,-0.326409 0.7102,-0.752852 0.9798,-1.277958 0.2838,-0.5251 0.4258,-1.091945 0.4258,-1.702222 0,-0.752174 -0.1855,-1.44806 -0.5539,-2.086694 -0.3689,-0.638637 -0.8723,-1.148488 -1.511,-1.53169 -0.6387,-0.397381 -1.3625,-0.596862 -2.1715,-0.596862 h -4.0871 v 0.001 c -0.069,-0.0024 -2.4325,-0.0851 -3.6333,-0.220658 -2.2579,-0.254788 -2.3701,-1.115694 -6.7242,-1.115694 z m 21.5527,1.245918 c -0.057,0 -0.086,0.02798 -0.086,0.08475 l -0.024,14.624947 c 0,0.07102 0.036,0.10697 0.1065,0.10697 h 2.406 c 0.057,0 0.086,-0.03595 0.086,-0.10697 l -0.024,-14.624947 c 0,-0.05677 -0.029,-0.08475 -0.086,-0.08475 z m 5.9913,0 c -0.071,0 -0.107,0.03595 -0.107,0.106971 l -0.024,14.602726 c 0,0.07102 0.028,0.10697 0.085,0.10697 h 6.8761 c 0.071,0 0.107,-0.03595 0.107,-0.10697 v -2.405538 c 0,-0.07078 -0.036,-0.105937 -0.107,-0.105937 h -4.3858 l 0.024,-12.091251 c 0,-0.07102 -0.036,-0.106971 -0.107,-0.106971 z m 9.3374,0 c -0.071,0 -0.1069,0.03595 -0.1069,0.106971 l -0.024,14.602726 c 0,0.07102 0.028,0.10697 0.086,0.10697 h 6.876 c 0.071,0 0.107,-0.03595 0.107,-0.10697 v -2.405538 c 0,-0.07078 -0.036,-0.105937 -0.107,-0.105937 h -4.3857 l 0.024,-12.091251 c 0,-0.07102 -0.036,-0.106971 -0.1069,-0.106971 z m 9.2217,0 c -0.057,0 -0.086,0.02798 -0.086,0.08475 l -0.024,14.624947 c 0,0.07102 0.029,0.10697 0.086,0.10697 h 6.8761 c 0.057,0 0.086,-0.02822 0.086,-0.08475 v -2.426726 c 0,-0.07078 -0.028,-0.10697 -0.086,-0.10697 h -4.3858 v -3.725354 h 4.3858 c 0.057,0 0.086,-0.02901 0.086,-0.08578 l -0.024,-2.404504 c 0,-0.05677 -0.028,-0.08578 -0.085,-0.08578 h -4.3646 v -3.321761 h 4.3646 c 0.057,0 0.085,-0.02798 0.085,-0.08475 v -2.383317 c 0,-0.07102 -0.028,-0.106971 -0.085,-0.106971 z m 9.2573,0 c -0.057,0 -0.086,0.02798 -0.086,0.08475 l -0.024,2.384867 c 0,0.07102 0.036,0.10542 0.107,0.10542 h 2.7678 v 12.13466 c 0,0.07102 0.028,0.10697 0.086,0.10697 h 2.4055 c 0.057,0 0.086,-0.03595 0.086,-0.10697 l -0.024,-12.13466 h 2.789 c 0.057,0 0.086,-0.0344 0.086,-0.10542 v -2.384867 c 0,-0.05677 -0.036,-0.08475 -0.1064,-0.08475 z m -47.5645,1.651062 v 0 c 0.078,0.02392 0.3819,0.06597 0.4651,0.149345 0.1116,0.10475 0.1685,0.265345 0.1685,0.482658 0,0.225413 -0.069,0.426999 -0.2042,0.604098 -0.1282,0.177195 -0.3375,0.2651 -0.6273,0.2651 -0.1781,0 -0.3231,-0.05131 -0.4357,-0.156063 -0.1116,-0.112587 -0.1684,-0.274432 -0.1684,-0.483691 0,-0.233489 0.064,-0.438908 0.1922,-0.615984 0.093,-0.119736 0.458,-0.207074 0.6088,-0.245463 z m -4.8586,0.764295 h 0.011 c 0,0 0.3864,0.03735 0.4589,0.109554 0.071,0.07245 0.086,0.180125 0.036,0.325045 l -0.5917,2.343526 h 1.5218 c 0.097,0 0.1643,0.03937 0.2047,0.119889 0.04,0.07245 0.04,0.193214 0,0.362252 -0.033,0.161043 -0.083,0.281755 -0.1571,0.362252 -0.074,0.08052 -0.1568,0.120406 -0.2527,0.120406 h -1.5699 l -0.615,2.343009 c -0.088,0.331235 -0.1328,0.623534 -0.1328,0.881083 0,0.257542 0.045,0.470755 0.1095,0.639755 0.074,0.169119 0.1683,0.29799 0.2894,0.386539 0.1283,0.08052 0.2738,0.120407 0.4346,0.120407 v 0.001 c 0,1.19e-4 5e-4,-0.001 0.024,-0.001 0.1853,0 0.3942,-0.09243 0.6274,-0.277503 0.2328,-0.185033 0.5032,-0.478674 0.8092,-0.881083 0.2976,-0.410491 0.6525,-0.954328 1.063,-1.630392 0.3627,-0.597518 0.7784,-1.317537 1.2418,-2.147672 l 0.05,-0.206189 c 0.048,-0.152967 0.1092,-0.253994 0.1804,-0.302307 0.081,-0.04822 0.2019,-0.07235 0.3632,-0.07235 0.2328,0 0.3855,0.0358 0.4579,0.108004 0.071,0.07245 0.086,0.181825 0.036,0.326595 l -1.1467,4.526855 c -0.04,0.176957 -0.052,0.310392 -0.036,0.398942 0.024,0.08052 0.088,0.120406 0.1927,0.120406 0.074,0 0.14,-0.0239 0.2042,-0.07235 0.064,-0.04822 0.1376,-0.116558 0.216,-0.205155 0.088,-0.09667 0.1899,-0.221822 0.3018,-0.374654 0.057,-0.08052 0.1167,-0.124454 0.1808,-0.132292 0.074,-0.01663 0.1522,0.0043 0.2419,0.05994 0.1283,0.07245 0.2087,0.148946 0.2403,0.229443 0.033,0.07245 0.024,0.149439 -0.024,0.22996 -0.152,0.265602 -0.3136,0.486974 -0.4827,0.664042 -0.1687,0.176958 -0.3504,0.306066 -0.5436,0.38654 -0.1852,0.0886 -0.3863,0.132292 -0.6036,0.132292 -0.4266,0 -0.708,-0.160106 -0.8449,-0.482141 -0.1282,-0.330012 -0.1041,-0.809839 0.074,-1.437639 l 0.3396,-1.408699 c -0.062,0.108075 -0.1236,0.221277 -0.183,0.322461 -0.4428,0.756569 -0.8366,1.355686 -1.1829,1.798339 -0.3461,0.442676 -0.6765,0.760791 -0.9906,0.953947 -0.3218,0.185033 -0.6559,0.278536 -1.002,0.278536 0,0 7e-4,-0.0026 -0.024,-0.0026 l -0.024,0.0026 c -0.3622,0 -0.6636,-0.08096 -0.9049,-0.241845 -0.2328,-0.169119 -0.4108,-0.390396 -0.5317,-0.664042 -0.1211,-0.281683 -0.1852,-0.603653 -0.1923,-0.965833 0,-0.362171 0.036,-0.737109 0.1333,-1.123446 l 0.5912,-2.281514 h -0.9167 c -0.097,0 -0.1637,-0.03988 -0.2041,-0.120406 -0.033,-0.08052 -0.033,-0.201198 0,-0.362252 0.033,-0.168882 0.086,-0.28983 0.1565,-0.362252 0.081,-0.08052 0.1662,-0.119889 0.2538,-0.119889 h 0.9648 l 0.6165,-2.403471 c 0.038,-0.150877 0.088,-0.253501 0.1684,-0.30179 0.081,-0.04822 0.2021,-0.074 0.3613,-0.07286 z m 9.8924,0.207739 h 1.6174 c 0.4542,0 0.8447,0.169894 1.171,0.510563 0.3264,0.326433 0.4884,0.716862 0.4884,1.170988 0,0.411586 -0.1568,0.793954 -0.4677,1.148767 -0.2981,0.340613 -0.6948,0.512114 -1.1917,0.512114 h -1.6174 z m 0,5.917468 h 1.297 c 0.511,0 0.9518,0.184529 1.3209,0.553455 0.3689,0.368974 0.5966,0.64933 0.6149,1.056266 0.024,0.342084 -0.1686,0.716288 -0.4356,0.930176 -0.3997,0.319768 -0.9892,0.329696 -1.5002,0.329696 h -1.3193 z" /></g></svg>
